<svg width="24" height="24" viewBox="0 0 24 24" fill="none" xmlns="http://www.w3.org/2000/svg">
<path d="M19.089 14.4412V18.8812C19.0888 19.5094 18.8391 20.1118 18.3949 20.5561C17.9507 21.0003 17.3483 21.25 16.72 21.2502H5.11904C4.8068 21.2501 4.49765 21.1883 4.20938 21.0683C3.9211 20.9483 3.65937 20.7726 3.43923 20.5511C3.21909 20.3297 3.04488 20.0669 2.92661 19.7779C2.80833 19.489 2.74833 19.1795 2.75004 18.8672V7.27922C2.74818 6.96747 2.80822 6.65845 2.92666 6.37007C3.04511 6.08169 3.21961 5.81968 3.44006 5.59924C3.6605 5.37879 3.92251 5.20429 4.21089 5.08584C4.49927 4.9674 4.80829 4.90736 5.12004 4.90922H9.55904" stroke="#3EA7FD" stroke-width="1.5" stroke-linecap="round" stroke-linejoin="round"/>
<path d="M19.089 8.99521L15.004 4.90921M6.83399 15.8032V13.6382C6.83599 13.2812 6.97799 12.9382 7.22899 12.6852L16.761 3.15321C16.8875 3.02532 17.0381 2.92378 17.204 2.85449C17.37 2.78519 17.5481 2.74951 17.728 2.74951C17.9079 2.74951 18.0859 2.78519 18.2519 2.85449C18.4179 2.92378 18.5685 3.02532 18.695 3.15321L20.846 5.30421C20.9739 5.43069 21.0754 5.58128 21.1447 5.74727C21.214 5.91326 21.2497 6.09134 21.2497 6.27121C21.2497 6.45108 21.214 6.62917 21.1447 6.79515C21.0754 6.96114 20.9739 7.11173 20.846 7.23821L11.314 16.7702C11.0605 17.0219 10.7182 17.1638 10.361 17.1652H8.19599C8.01705 17.1655 7.83982 17.1304 7.67446 17.0621C7.5091 16.9937 7.35884 16.8934 7.23232 16.7669C7.10579 16.6404 7.00548 16.4901 6.93713 16.3247C6.86877 16.1594 6.83372 15.9821 6.83399 15.8032Z" stroke="#3EA7FD" stroke-width="1.5" stroke-linecap="round" stroke-linejoin="round"/>
</svg>
