<svg width="24" height="24" viewBox="0 0 24 24" fill="none" xmlns="http://www.w3.org/2000/svg">
<path d="M12 17.0004C12.2833 17.0004 12.521 16.9044 12.713 16.7124C12.905 16.5204 13.0007 16.2831 13 16.0004V12.0004C13 11.7171 12.904 11.4797 12.712 11.2884C12.52 11.0971 12.2827 11.0011 12 11.0004C11.7173 10.9997 11.48 11.0957 11.288 11.2884C11.096 11.4811 11 11.7184 11 12.0004V16.0004C11 16.2837 11.096 16.5214 11.288 16.7134C11.48 16.9054 11.7173 17.0011 12 17.0004ZM12 9.00039C12.2833 9.00039 12.521 8.90439 12.713 8.71239C12.905 8.52039 13.0007 8.28306 13 8.00039C12.9993 7.71772 12.9033 7.48039 12.712 7.28839C12.5207 7.09639 12.2833 7.00039 12 7.00039C11.7167 7.00039 11.4793 7.09639 11.288 7.28839C11.0967 7.48039 11.0007 7.71772 11 8.00039C10.9993 8.28306 11.0953 8.52072 11.288 8.71339C11.4807 8.90606 11.718 9.00172 12 9.00039ZM12 21.9004C11.8833 21.9004 11.775 21.8921 11.675 21.8754C11.575 21.8587 11.475 21.8337 11.375 21.8004C9.125 21.0504 7.33333 19.6627 6 17.6374C4.66667 15.6121 4 13.4331 4 11.1004V6.37539C4 5.95872 4.121 5.58372 4.363 5.25039C4.605 4.91706 4.91733 4.67539 5.3 4.52539L11.3 2.27539C11.5333 2.19206 11.7667 2.15039 12 2.15039C12.2333 2.15039 12.4667 2.19206 12.7 2.27539L18.7 4.52539C19.0833 4.67539 19.396 4.91706 19.638 5.25039C19.88 5.58372 20.0007 5.95872 20 6.37539V11.1004C20 13.4337 19.3333 15.6131 18 17.6384C16.6667 19.6637 14.875 21.0511 12.625 21.8004C12.525 21.8337 12.425 21.8587 12.325 21.8754C12.225 21.8921 12.1167 21.9004 12 21.9004Z" fill="#565656"/>
</svg>
