<svg width="309" height="227" viewBox="0 0 309 227" fill="none" xmlns="http://www.w3.org/2000/svg">
<path d="M154.5 0C239.828 0 309 65.1426 309 145.5C309 175.699 299.23 203.749 282.506 227H26.4941C9.76957 203.749 0 175.699 0 145.5C0 65.1426 69.172 0 154.5 0Z" fill="url(#paint0_linear_479_1199)"/>
<path d="M191.04 112.536C191.04 107.452 191.007 102.367 191.05 97.2833C191.088 92.8665 187.587 89.9656 183.798 89.9983C170.887 90.1099 157.975 90.0597 145.063 90.0286C141.585 90.0203 138.424 92.9147 138.267 96.7349C138.221 97.8668 138.26 99.0023 138.26 100.136C138.26 127.459 138.277 154.782 138.24 182.105C138.235 185.833 141.522 189.303 145.393 189.273C158.194 189.177 170.997 189.183 183.798 189.27C187.66 189.296 191.071 186.059 191.056 181.885C191.012 169.083 191.04 156.281 191.04 143.48" stroke="black" stroke-width="1.2" stroke-linecap="round" stroke-linejoin="round"/>
<path d="M135.078 106.61C132.373 106.302 129.682 105.889 126.959 105.715C123.301 105.481 119.653 105.339 115.984 105.491C111.196 105.689 106.439 106.145 101.723 106.955C96.6458 107.826 91.6285 108.957 86.6786 110.423C81.7996 111.868 77.0404 113.627 72.437 115.751C65.4979 118.951 58.9594 122.857 53.0012 127.68C52.1131 128.399 51.2441 129.142 50.3662 129.873" stroke="black" stroke-width="1.2" stroke-linecap="round" stroke-linejoin="round"/>
<path d="M197.624 128.118C197.58 127.454 198.135 127.176 198.511 126.81C199.094 126.243 199.119 125.509 198.792 124.959C198.394 124.29 197.644 124.358 196.965 124.714C195.372 125.551 193.667 126.155 192.13 127.118C191.003 127.824 190.216 129.18 191.034 130.536C191.228 130.858 191.099 131.18 190.945 131.526C190.554 132.407 190.695 133.302 191.284 134.023C191.592 134.4 191.605 134.749 191.582 135.14C191.539 135.865 191.646 136.512 192.243 137.011C192.419 137.159 192.674 137.378 192.666 137.554C192.549 140.062 194.566 140.85 196.22 141.795C197.518 142.537 198.182 143.553 198.625 144.902C200.375 150.228 202.307 155.487 204.876 160.483C206.131 162.925 207.608 165.254 209.709 167.055C212.988 169.867 217.703 170.029 221.019 166.103C221.731 165.261 222.314 164.266 223.301 163.67" stroke="black" stroke-width="1.2" stroke-linecap="round" stroke-linejoin="round"/>
<path d="M140.784 117.474C140.466 118.136 140.455 118.847 140.455 119.559C140.454 123.216 140.309 126.882 140.5 130.529C140.657 133.499 140.432 136.455 140.509 139.421C140.6 142.962 140.607 146.513 140.494 150.065C140.362 154.193 140.671 158.335 140.528 162.462C140.35 167.586 140.798 172.707 140.454 177.825C140.428 178.221 140.57 178.475 141.003 178.483C141.259 178.487 141.515 178.484 141.771 178.484C152.379 178.484 162.986 178.484 173.593 178.484C178.238 178.484 182.884 178.487 187.529 178.477C187.893 178.476 188.282 178.627 188.736 178.215C188.736 178.008 188.736 177.642 188.736 177.277C188.736 170.181 188.736 163.085 188.736 155.989C188.736 149.478 188.739 142.968 188.728 136.457C188.728 136.093 188.859 135.706 188.626 135.36" stroke="black" stroke-width="1.2" stroke-linecap="round" stroke-linejoin="round"/>
<path d="M184.457 98.7101C183.5 100.348 182.034 101.556 180.818 102.975C178.797 105.334 176.671 107.603 174.58 109.902C170.816 114.038 167.039 118.162 163.282 122.305C161.507 124.263 159.77 126.255 158.009 128.225C157.699 128.572 157.336 128.87 157.028 129.218C156.336 130 155.068 130.243 154.065 129.321C150.179 125.746 146.309 122.154 142.428 118.573C141.987 118.166 141.645 117.658 141.01 117.454C140.546 117.304 140.545 116.809 140.564 116.377C140.647 114.548 140.479 112.723 140.531 110.889C140.618 107.857 140.474 104.818 140.464 101.782C140.46 100.683 140.56 99.5842 140.617 98.3809C141.038 98.3809 141.405 98.3809 141.772 98.3809C155.525 98.3809 169.277 98.3809 183.03 98.3809C184.64 98.3809 186.249 98.3788 187.858 98.3826C188.187 98.3834 188.634 98.2719 188.715 98.714C188.786 99.107 188.847 99.5567 188.307 99.8271C187.927 100.017 187.607 100.364 187.314 100.689C182.918 105.585 178.542 110.497 174.139 115.386C171.158 118.695 168.167 121.995 165.131 125.253C164.073 126.388 164.049 127.654 165.13 128.79C166.326 130.047 167.389 131.431 168.553 132.72C169.433 133.693 169.521 134.732 168.433 135.906C166.358 138.146 164.264 140.369 162.183 142.603C161.458 143.381 160.746 144.171 160.073 144.907C160.168 145.419 160.498 145.633 160.757 145.892C163.168 148.309 165.592 150.714 167.992 153.141C168.79 153.948 169.677 154.467 170.85 154.343" stroke="black" stroke-width="1.2" stroke-linecap="round" stroke-linejoin="round"/>
<path d="M81.9688 162.354C83.2253 169.195 86.0543 175.38 90.2363 180.869C94.2144 186.091 99.1562 190.336 104.794 193.734C108.363 195.884 112.159 197.544 116.095 198.894" stroke="black" stroke-width="1.2" stroke-linecap="round" stroke-linejoin="round"/>
<path d="M134.858 119.339C130.501 118.185 126.045 117.849 121.583 118.167C115.227 118.62 109.28 120.508 103.798 123.827C100.418 125.872 97.4323 128.369 94.8166 131.309C93.6009 132.675 92.5306 134.165 91.5146 135.689" stroke="black" stroke-width="1.2" stroke-linecap="round" stroke-linejoin="round"/>
<path d="M184.895 154.563C184.989 153.408 185.667 152.456 186.03 151.394C187.626 146.733 184.381 141.819 179.961 141.045C174.103 140.02 169.539 145.514 170.845 150.614C171.669 153.833 173.41 156.578 175.241 159.279C176.222 160.726 177.31 162.088 178.525 163.459C180.467 161.509 181.83 159.234 183.36 157.088C183.915 156.309 184.081 155.285 184.895 154.672" stroke="black" stroke-width="1.2" stroke-linecap="round" stroke-linejoin="round"/>
<path d="M150.989 170.364C153.403 167.632 155.514 164.679 156.78 161.247C158.439 156.749 155.381 152.407 150.769 152.408C146.685 152.409 143.571 156.432 144.712 160.385C145.516 163.172 147.065 165.524 148.713 167.82C149.354 168.713 149.883 169.753 150.879 170.364" stroke="black" stroke-width="1.2" stroke-linecap="round" stroke-linejoin="round"/>
<path d="M197.514 139.53C197.976 140.351 198.732 140.527 199.599 140.522C201.867 140.508 204.136 140.478 206.402 140.538C207.22 140.559 207.932 140.584 208.728 140.174C209.904 139.568 210.286 139.113 209.91 137.885C209.081 135.175 208.229 132.471 207.391 129.763C206.145 125.741 204.899 121.718 203.661 117.693C203.19 116.162 202.369 115.508 200.806 115.501C198.465 115.491 196.124 115.5 193.783 115.498C192.901 115.497 192.075 115.612 191.589 116.486" stroke="black" stroke-width="1.2" stroke-linecap="round" stroke-linejoin="round"/>
<path d="M247.112 123.399C251.194 124.126 255.117 125.354 258.976 126.877C262.205 128.152 264.526 130.502 266.727 132.969C270.039 136.681 272.934 140.731 275.628 144.915C275.954 145.422 276.618 145.979 275.774 146.688C275.554 146.874 275.895 147.258 276.069 147.547C277.898 150.576 279.681 153.62 281.158 156.853C283.1 161.108 282.697 165.031 279.91 168.709C277.998 171.233 276.132 173.808 273.771 175.954C272.988 176.666 272.293 177.509 271.872 178.407C271.545 179.104 271.473 179.963 271.039 180.681C269.38 183.428 267.546 186.047 265.438 188.47C265.131 188.822 264.71 189.116 264.779 189.676" stroke="black" stroke-width="1.2" stroke-linecap="round" stroke-linejoin="round"/>
<path d="M193.235 126.362C192.796 125.118 192.33 123.883 191.925 122.629C191.456 121.175 191.038 119.705 190.602 118.241C190.274 117.14 190.917 116.423 192.022 116.729C192.369 116.825 192.689 116.805 193.016 116.807C195.247 116.822 197.479 116.857 199.709 116.799C200.99 116.766 201.644 116.831 202.234 118.68C203.109 121.425 204.001 124.163 204.864 126.911C206.046 130.675 207.216 134.443 208.369 138.215C208.542 138.781 208.597 139.383 208.707 139.968" stroke="black" stroke-width="1.2" stroke-linecap="round" stroke-linejoin="round"/>
<path d="M153.731 151.49C155.009 150.531 155.923 149.219 157.026 148.091C157.83 147.269 157.913 147.303 158.783 148.084C162.656 151.559 166.17 155.403 169.968 158.956C171.177 160.087 171.154 160.707 169.972 161.915C168.616 163.302 167.261 164.691 165.913 166.085C164.989 167.041 164.972 167.872 165.916 168.823C168.647 171.578 171.402 174.31 174.136 177.062C174.485 177.414 174.985 177.674 175.019 178.264" stroke="black" stroke-width="1.2" stroke-linecap="round" stroke-linejoin="round"/>
<path d="M234.274 124.058C231.778 124.568 229.364 125.361 227.038 126.377C223.684 127.841 221.402 130.406 219.656 133.591C217.409 137.689 215.752 142.035 213.983 146.336C213.759 146.88 213.497 147.316 214.387 147.806C216.884 149.182 219.5 150.316 221.992 151.696C222.472 151.962 222.896 152.411 223.52 152.368" stroke="black" stroke-width="1.2" stroke-linecap="round" stroke-linejoin="round"/>
<path d="M134.639 100.575C132.102 100.064 129.535 99.7813 126.957 99.5889C122.863 99.2832 118.777 99.1334 114.665 99.435C112.177 99.6173 109.69 99.8 107.206 100.027" stroke="black" stroke-width="1.2" stroke-linecap="round" stroke-linejoin="round"/>
<path d="M92.6666 146.881C93.0371 148.319 92.9379 148.554 91.6233 149.184C89.5433 150.18 87.2793 150.446 85.0375 150.696C82.9662 150.927 80.8683 151.064 78.7863 151.024C75.2824 150.956 71.7852 150.712 68.358 149.858C67.4009 149.619 66.559 149.112 65.6182 148.856" stroke="black" stroke-width="1.2" stroke-linecap="round" stroke-linejoin="round"/>
<path d="M224.727 182.214C224.434 185.872 224.155 189.531 223.845 193.187C223.572 196.407 223.249 199.624 222.976 202.844C222.802 204.908 222.679 206.977 222.532 209.043" stroke="black" stroke-width="1.2" stroke-linecap="round" stroke-linejoin="round"/>
<path d="M89.6494 162.354C92.1164 171.169 97.1817 178.172 104.458 183.648C105.964 184.782 107.599 185.704 109.181 186.714" stroke="black" stroke-width="1.2" stroke-linecap="round" stroke-linejoin="round"/>
<path d="M184.566 123.399C184.269 121.195 183.422 119.303 181.266 118.37C179.35 117.541 177.381 117.628 175.696 118.923C173.941 120.271 173.032 122.097 173.49 124.385C173.911 126.49 174.984 128.323 176.142 130.076C176.968 131.329 177.77 132.636 178.998 133.711C180.981 131.318 182.784 128.899 183.913 126.034C184.235 125.218 184.439 124.386 184.456 123.509" stroke="black" stroke-width="1.2" stroke-linecap="round" stroke-linejoin="round"/>
<path d="M264.34 155.221C265.519 157.115 266.963 158.813 268.291 160.597C268.927 161.451 268.987 162.667 268.279 163.44C266.717 165.145 265.63 167.205 264.106 168.925C262.785 170.415 261.695 172.061 260.754 173.785C260.109 174.966 259.385 176.098 258.755 177.283C258.447 177.861 258.017 177.983 257.426 177.941C255.33 177.792 253.337 178.502 251.282 178.708C250.475 178.789 249.667 178.892 248.869 179.041C247.969 179.209 247.683 179.96 248.21 180.678C248.837 181.531 249.74 181.751 250.733 181.779C251.355 181.797 251.977 181.844 252.598 181.888C252.894 181.909 253.13 182.087 253.245 182.33C253.384 182.624 253.139 182.837 252.924 182.977C252.166 183.468 251.333 183.862 250.641 184.431C250.032 184.932 249.574 184.505 249.212 184.275C246.31 182.433 243.872 180.07 241.734 177.387C240.733 176.131 239.733 174.865 239.004 173.43C238.212 171.87 237.254 170.386 236.7 168.714C236.544 168.243 236.579 167.816 236.865 167.269C237.974 165.155 238.957 162.974 240.2 160.927C241.307 159.104 242.682 157.452 243.778 155.634C244.618 154.241 245.679 154.077 247.113 154.094C251.372 154.148 255.449 154.881 259.417 156.502C262.441 157.737 265.085 159.504 267.625 161.484C267.933 161.724 268.192 161.988 268.619 161.915" stroke="black" stroke-width="1.2" stroke-linecap="round" stroke-linejoin="round"/>
<path d="M283.213 209.318C282.518 209.281 281.823 209.206 281.128 209.215C276.593 209.272 272.055 209.281 267.522 209.27C259.914 209.251 252.306 209.234 244.698 209.211C240.528 209.198 236.358 209.208 232.189 209.208C224.727 209.208 217.265 209.193 209.804 209.215C206.183 209.226 202.56 209.095 198.94 209.318" stroke="black" stroke-width="1.2" stroke-linecap="round" stroke-linejoin="round"/>
<path d="M245.576 181.83C245.198 182.063 244.777 181.994 244.369 181.994C238.224 181.996 232.079 181.997 225.934 181.993C225.128 181.993 224.311 182.22 223.41 181.792C223.41 181.556 223.407 181.227 223.411 180.898C223.447 177.386 223.423 173.873 223.545 170.365C223.607 168.607 223.672 166.85 223.613 165.097C223.486 161.287 223.955 157.491 223.844 153.685C223.728 149.693 224.083 145.713 224.069 141.724" stroke="black" stroke-width="1.2" stroke-linecap="round" stroke-linejoin="round"/>
<path d="M75.6039 122.851C72.4985 123.955 69.6442 125.58 66.8389 127.262C62.8396 129.66 59.1201 132.458 55.7472 135.694C55.519 135.913 55.3106 136.095 54.9746 136.018" stroke="black" stroke-width="1.2" stroke-linecap="round" stroke-linejoin="round"/>
<path d="M150.769 145.016C152.554 143.062 154.05 140.949 154.734 138.326C155.181 136.613 154.617 135.198 153.372 134.19C152.079 133.143 150.488 132.913 148.905 133.718C147.343 134.512 146.664 135.806 146.692 137.555C146.707 138.473 147.009 139.288 147.381 140.072C148.225 141.845 149.299 143.476 150.659 144.906" stroke="black" stroke-width="1.2" stroke-linecap="round" stroke-linejoin="round"/>
<path d="M261.597 189.347C262.495 189.835 263.463 189.879 264.449 189.784C264.956 189.735 265.284 189.807 265.339 190.444C265.703 194.723 266.196 198.991 266.435 203.282C266.54 205.184 266.821 207.077 266.754 208.989" stroke="black" stroke-width="1.2" stroke-linecap="round" stroke-linejoin="round"/>
<path d="M277.397 175.96C278.127 176.735 278.098 177.75 278.278 178.703C278.554 180.155 278.734 181.589 278.639 183.095C278.456 185.994 276.849 187.714 274.315 188.662C272.714 189.262 271.061 189.856 269.277 189.566" stroke="black" stroke-width="1.2" stroke-linecap="round" stroke-linejoin="round"/>
<path d="M244.369 154.563C243.564 154.034 242.72 154.436 241.963 154.601C240.456 154.929 239.002 155.448 237.663 156.298C236.09 157.298 235.439 158.756 235.273 160.489C235.081 162.5 235.535 164.459 235.94 166.409C236.022 166.804 236.359 167.145 236.578 167.511" stroke="black" stroke-width="1.2" stroke-linecap="round" stroke-linejoin="round"/>
<path d="M224.507 95.1987C224.142 96.2229 223.786 97.2507 223.408 98.2704C222.604 100.442 223.046 102.607 223.812 104.608C224.249 105.748 224.463 106.886 224.722 108.038C225.469 111.36 226.086 114.712 228.115 117.593C229.557 119.639 231.368 120.845 233.944 120.651C234.366 120.619 234.725 120.711 235.042 120.985" stroke="black" stroke-width="1.2" stroke-linecap="round" stroke-linejoin="round"/>
<path d="M249.087 154.453C248.484 155.635 247.474 156.5 246.656 157.511C243.352 161.597 240.895 166.148 238.985 171.019C238.861 171.337 238.758 171.689 238.443 171.9" stroke="black" stroke-width="1.2" stroke-linecap="round" stroke-linejoin="round"/>
<path d="M245.137 97.9419C246.769 99.4224 247.756 101.275 248.083 103.431C248.428 105.713 247.864 107.801 246.333 109.564C245.958 109.996 245.824 110.464 245.66 110.992C244.772 113.846 245.656 116.576 246.124 119.339C246.342 120.627 246.36 121.954 246.885 123.183C246.938 123.307 246.939 123.493 246.885 123.616C245.722 126.281 244.107 128.546 241.073 129.196C236.852 130.1 234.03 126.709 234.641 122.967C234.766 122.2 235.277 121.48 236.131 121.079C238.42 120.003 239.979 118.139 241.288 116.042C241.353 115.937 241.296 115.755 241.296 115.608" stroke="black" stroke-width="1.2" stroke-linecap="round" stroke-linejoin="round"/>
<path d="M78.2373 163.231C79.1337 168.372 81.0022 173.159 83.5044 177.715" stroke="black" stroke-width="1.2" stroke-linecap="round" stroke-linejoin="round"/>
<path d="M71.873 148.198C73.1492 148.893 74.5798 148.78 75.9342 148.821C78.9678 148.914 82.0114 148.969 85.0402 148.633C85.5036 148.581 86.0064 148.608 86.3574 148.198" stroke="black" stroke-width="1.2" stroke-linecap="round" stroke-linejoin="round"/>
<path d="M238.443 196.37C239.102 196.662 239.78 196.918 240.415 197.255C241.991 198.09 242.25 199.643 242.506 201.197C242.935 203.796 243.381 206.392 243.82 208.989" stroke="black" stroke-width="1.2" stroke-linecap="round" stroke-linejoin="round"/>
<path d="M188.571 99.917C188.804 100.295 188.734 100.715 188.735 101.124C188.737 105.294 188.736 109.464 188.736 113.633" stroke="black" stroke-width="1.2" stroke-linecap="round" stroke-linejoin="round"/>
<path d="M276.629 173.436C276.885 173.948 277.18 174.446 277.381 174.979C277.477 175.235 277.519 175.647 277.379 175.836C275.827 177.94 275.081 180.466 273.727 182.69C272.307 185.025 270.551 187.111 269.161 189.452C268.902 189.887 268.425 189.891 267.961 189.902C267.083 189.924 266.198 189.789 265.327 190.005" stroke="black" stroke-width="1.2" stroke-linecap="round" stroke-linejoin="round"/>
<path d="M249.087 188.14C249.635 189.536 250.812 190.04 252.162 190.205C252.714 190.272 253.129 190.495 253.596 190.755C255.455 191.794 257.362 191.836 259.295 190.889C260.761 190.17 261.919 188.997 262.638 187.671C264.389 184.437 267.226 182.301 269.835 179.92C270.371 179.431 270.692 178.626 271.582 178.593" stroke="black" stroke-width="1.2" stroke-linecap="round" stroke-linejoin="round"/>
<path d="M68.9104 105.458C67.9834 107.064 67.4878 108.868 66.5293 110.471C65.9969 111.361 65.4454 111.825 64.4103 111.666C64.0887 111.617 63.753 111.664 63.424 111.657C62.9552 111.647 62.6165 111.809 62.5478 112.317C62.4691 112.899 62.9384 113.062 63.3143 113.063C64.4473 113.066 65.6283 113.321 66.7037 112.941C67.629 112.614 67.8612 111.548 68.3618 110.78" stroke="black" stroke-width="1.2" stroke-linecap="round" stroke-linejoin="round"/>
<path d="M80.5416 141.779C80.8832 141.585 81.2638 141.586 81.6938 141.64C81.6938 140.736 81.6938 139.913 81.6938 139.036C79.9198 139.036 78.2007 139.036 76.4268 139.036C76.4268 139.895 76.4268 140.7 76.4268 141.493C77.7819 141.875 79.13 141.383 80.4319 141.724" stroke="black" stroke-width="1.2" stroke-linecap="round" stroke-linejoin="round"/>
<path d="M65.5638 146.881C65.2865 148.777 65.443 150.685 65.4158 152.588C65.4127 152.805 65.4594 153.012 65.4104 153.248C65.1351 154.572 65.5154 155.364 66.7185 155.873C69.099 156.882 71.6403 157.175 74.1791 157.399C76.0002 157.559 77.8422 157.698 79.6626 157.605C83.0843 157.431 86.5413 157.458 89.8695 156.43C90.3581 156.278 90.8395 156.15 91.3043 155.895C92.8289 155.059 92.9666 155.064 92.7509 153.242C92.6276 152.2 92.8015 151.124 92.8285 150.063C92.8388 149.655 92.8995 149.235 92.6671 148.856" stroke="black" stroke-width="1.2" stroke-linecap="round" stroke-linejoin="round"/>
<path d="M103.695 166.962C102.472 167.171 101.644 168.091 101.72 169.157C101.796 170.244 102.666 171.022 103.804 171.022C104.99 171.022 105.771 170.323 105.889 169.157C106.001 168.061 105.211 167.184 103.914 166.962" stroke="black" stroke-width="1.2" stroke-linecap="round" stroke-linejoin="round"/>
<path d="M170.411 94.3209C168.513 94.0728 166.606 94.226 164.705 94.226C162.804 94.226 160.897 94.0728 158.999 94.3209" stroke="black" stroke-width="1.2" stroke-linecap="round" stroke-linejoin="round"/>
<path d="M275.532 146.881C273.753 147.953 272.166 149.294 270.488 150.507C267.938 152.351 265.413 154.228 262.909 156.066C262.058 155.612 261.907 154.6 261.048 154.343" stroke="black" stroke-width="1.2" stroke-linecap="round" stroke-linejoin="round"/>
<path d="M71.4346 103.977C70.3373 103.977 69.2374 104.022 68.1436 103.961C67.412 103.919 66.8562 104.187 66.5159 104.756C66.1876 105.306 65.8856 105.868 65.5182 106.397C65.2299 106.813 65.3856 107.164 65.8326 107.407C66.6144 107.203 66.8118 106.441 67.2463 105.936C67.6841 105.427 68.0946 105.246 68.6913 105.568" stroke="black" stroke-width="1.2" stroke-linecap="round" stroke-linejoin="round"/>
<path d="M118.289 141.066C118.689 140.762 118.694 140.279 118.837 139.859C119.33 138.412 121.049 137.06 122.459 137.004C122.929 136.986 123 137.411 123.236 137.675C123.727 137.36 124.566 137.448 124.487 136.453C124.475 136.3 125.156 136.07 125.533 135.914C126.111 135.675 126.699 135.461 127.288 135.253C127.877 135.044 128.473 134.855 129.129 134.636C129.318 134.869 129.446 135.254 129.638 135.549C130.216 136.433 129.821 136.884 129.152 137.334C128.276 137.923 127.409 138.526 126.514 139.083C125.989 139.41 125.82 139.736 125.938 140.413C126.209 141.963 125.292 143.492 123.885 144.138C122.482 144.784 120.957 144.485 119.821 143.374C119.32 142.884 119.059 142.174 118.399 141.834" stroke="black" stroke-width="1.2" stroke-linecap="round" stroke-linejoin="round"/>
<path d="M165.802 111.438C166.64 110.095 167.731 108.92 168.435 107.488C169.119 106.095 169.782 104.638 169.067 103.111C168.318 101.511 166.671 100.386 164.377 101.128C162.702 101.671 161.595 103.818 162.204 105.615C162.906 107.683 163.954 109.587 165.583 111.109" stroke="black" stroke-width="1.2" stroke-linecap="round" stroke-linejoin="round"/>
<path d="M142.759 122.192C142.713 122.558 142.896 122.733 143.18 122.981C144.429 124.067 145.507 125.377 146.847 126.322C148.363 127.392 148.582 128.812 148.575 130.422C148.573 130.897 148.575 131.373 148.575 131.848" stroke="black" stroke-width="1.2" stroke-linecap="round" stroke-linejoin="round"/>
<path d="M207.5 140.846C207.985 142.234 209.008 143.301 209.85 144.433C211.336 146.431 212.599 148.578 214.122 150.557C214.991 151.687 215.487 153.187 216.278 154.453" stroke="black" stroke-width="1.2" stroke-linecap="round" stroke-linejoin="round"/>
<path d="M92.5023 153.026C89.3984 154.434 86.0973 154.866 82.7363 155.002" stroke="black" stroke-width="1.2" stroke-linecap="round" stroke-linejoin="round"/>
<path d="M150.55 117.584C149.27 116.267 148.031 114.906 146.686 113.659C146.251 113.254 146.139 112.975 146.258 112.423C146.911 109.396 148.791 107.48 151.655 106.524C152.659 106.189 153.775 106.181 154.827 106.303C156.548 106.503 157.531 107.622 157.557 109.464C157.608 113.013 156.623 115.689 152.628 117.459C151.383 118.011 149.998 117.983 148.689 117.776C146.756 117.471 145.749 115.55 146.38 113.633" stroke="black" stroke-width="1.2" stroke-linecap="round" stroke-linejoin="round"/>
<path d="M75.3841 155.001C72.0139 154.845 68.6987 154.43 65.6182 152.917" stroke="black" stroke-width="1.2" stroke-linecap="round" stroke-linejoin="round"/>
<path d="M128.933 88.1758C127.631 88.4791 127.577 88.5348 127.561 89.6572C129.207 89.6572 130.853 89.6572 132.5 89.6572C132.483 88.5421 131.916 88.0242 130.801 88.1958C130.235 88.2829 129.701 88.3218 129.152 88.1758" stroke="black" stroke-width="1.2" stroke-linecap="round" stroke-linejoin="round"/>
<path d="M82.6267 157.196C82.2811 156.294 82.6374 155.37 82.5517 154.45C82.4706 153.579 82.0701 153.262 81.3099 153.252C79.7739 153.232 78.2375 153.247 76.7013 153.245C75.966 153.244 75.6021 153.608 75.6035 154.343C75.6054 155.294 75.604 156.245 75.604 157.196" stroke="black" stroke-width="1.2" stroke-linecap="round" stroke-linejoin="round"/>
<path d="M133.102 83.3477C133.011 82.1224 133.488 80.9573 133.478 79.7263C133.475 79.2965 133.325 78.925 133.321 78.4099C131.275 78.4099 129.226 78.3971 127.177 78.4166C126.429 78.4237 126.531 79.1274 126.551 79.5055C126.605 80.571 126.767 81.638 126.988 82.6828C127.044 82.9461 126.985 83.1283 126.957 83.3477" stroke="black" stroke-width="1.2" stroke-linecap="round" stroke-linejoin="round"/>
<path d="M244.479 97.2285C243.62 97.2827 243.536 98.1099 243.183 98.6149C242.069 100.213 241.476 101.973 241.705 103.98C241.76 104.461 242.2 104.794 242.065 105.294" stroke="black" stroke-width="1.2" stroke-linecap="round" stroke-linejoin="round"/>
<path d="M240.156 92.5711C240.026 91.7205 239.195 91.709 238.661 91.4027C236.971 90.4336 235.165 89.9976 233.186 90.4028C232.712 90.4999 232.419 90.9671 231.909 90.8772" stroke="black" stroke-width="10" stroke-linecap="round" stroke-linejoin="round"/>
<path d="M255.781 146.662C257.317 148.747 258.88 150.814 260.372 152.929C260.759 153.478 261.159 154.07 260.76 154.911C260.515 155.429 260.792 156.144 260.609 156.757" stroke="black" stroke-width="1.2" stroke-linecap="round" stroke-linejoin="round"/>
<path d="M117.302 89.7119C116.909 88.6986 116.138 88.1795 115.441 88.5146C114.917 88.7662 114.534 89.198 114.569 89.8211C114.603 90.4487 114.953 90.9583 115.551 91.1177C116.196 91.2894 116.815 91.1072 117.185 90.4762C117.3 90.2811 117.338 90.0411 117.411 89.8216" stroke="black" stroke-width="1.2" stroke-linecap="round" stroke-linejoin="round"/>
<path d="M71.6533 103.977C72.1189 103.911 72.5797 103.81 72.9672 103.534C73.5381 103.127 73.836 102.573 73.5063 101.898C73.2107 101.293 72.3414 101.05 71.7643 101.346C71.0766 101.699 70.8093 102.2 71.0946 102.993C71.6033 104.406 72.3453 105.659 73.4246 106.737C73.9251 106.587 74.4288 106.406 74.9471 106.29C75.4033 106.187 75.8121 106.352 75.9182 106.833C76.0188 107.29 75.7449 107.486 75.2748 107.5C74.9436 107.511 74.5849 107.573 74.2924 107.719C73.2025 108.264 72.3066 108.167 71.6884 106.894C70.9549 107.68 70.6389 108.546 70.2314 109.345C70.6705 109.862 71.0487 110.445 71.5577 110.873C72.259 111.463 72.1585 112.09 72.0106 112.87C71.8268 113.841 71.3204 114.791 71.6533 115.828" stroke="black" stroke-width="1.2" stroke-linecap="round" stroke-linejoin="round"/>
<path d="M179.628 147.43C179.056 148.983 178.023 150.257 177.102 151.598C176.869 151.937 176.547 152.073 176.116 152.049C175.46 152.012 174.8 152.039 174.142 152.039" stroke="black" stroke-width="1.2" stroke-linecap="round" stroke-linejoin="round"/>
<path d="M229.774 106.83C229.665 108.183 229.568 109.538 229.439 110.889C229.391 111.395 229.529 111.81 229.999 111.971C230.449 112.125 230.949 112.239 231.414 111.976C231.461 111.95 231.42 111.768 231.42 111.658" stroke="black" stroke-width="1.2" stroke-linecap="round" stroke-linejoin="round"/>
<path d="M122.349 183.641C121.946 184.409 121.488 185.154 121.158 185.952C120.843 186.712 120.542 187.454 119.823 187.917C119.247 188.288 119.002 188.884 118.732 189.459C118.332 190.311 117.692 190.626 116.752 190.574C115.99 190.531 115.207 190.435 114.448 190.664" stroke="black" stroke-width="1.2" stroke-linecap="round" stroke-linejoin="round"/>
<path d="M47.4034 135.799C49.5924 135.221 52.4708 137.802 52.2018 140.088C52.0091 141.725 51.51 142.921 50.138 143.684C48.266 144.725 45.122 144.408 44.1497 141.529C43.7841 140.447 43.6216 139.556 44.0057 138.544C44.488 137.273 45.3287 136.272 46.353 135.443C47.8653 136.089 48.3268 138.653 47.3085 139.98C46.5338 140.989 45.4056 141.161 44.3309 141.505" stroke="black" stroke-width="1.2" stroke-linecap="round" stroke-linejoin="round"/>
<path d="M195.868 136.677C197.294 136.018 198.696 135.297 200.157 134.725C201.041 134.379 201.558 133.696 202.105 133.041C202.521 132.542 202.47 131.922 202.01 131.412C201.54 130.891 200.964 130.552 200.261 130.869C198.53 131.649 196.816 132.464 195.103 133.281C194.773 133.438 194.475 133.645 194.112 133.385" stroke="black" stroke-width="1.2" stroke-linecap="round" stroke-linejoin="round"/>
<path d="M45.3188 136.128C44.3789 135.716 43.6639 136.261 42.9004 136.668C42.3497 136.962 41.9904 137.704 41.1389 137.36C40.8497 137.243 39.2072 138.964 39.1739 139.31C39.1207 139.863 39.7847 140.516 40.2597 140.275C41.0576 139.87 41.7484 139.276 42.1248 138.427C42.2543 138.135 42.0744 137.826 41.9172 137.554" stroke="black" stroke-width="1.2" stroke-linecap="round" stroke-linejoin="round"/>
<path d="M201.026 134.482C202.287 135.533 202.257 136.776 200.792 137.639C199.472 138.416 198.027 138.981 196.637 139.639" stroke="black" stroke-width="1.2" stroke-linecap="round" stroke-linejoin="round"/>
<path d="M67.2646 147.32C68.5701 148.014 69.9877 148.199 71.4343 148.184C71.8441 148.18 72.1419 147.794 72.5166 147.617C73.7665 147.028 75.1011 147.196 76.374 147.145C79.0383 147.037 81.7131 147.152 84.382 147.229C84.8979 147.244 85.4947 147.38 85.9032 147.671C87.4778 148.795 89.0371 147.934 90.5076 147.569C91.2143 147.394 92.0231 147.064 92.8111 146.611C92.4689 145.281 93.2845 143.845 92.5026 142.492" stroke="black" stroke-width="1.2" stroke-linecap="round" stroke-linejoin="round"/>
<path d="M131.017 88.0659C130.944 87.5904 130.848 87.117 130.804 86.6388C130.756 86.1178 130.725 85.627 131.335 85.3003C131.727 85.0898 132.043 84.6932 132.325 84.3277C132.675 83.8735 133.04 83.5926 133.639 83.4163C134.639 83.1223 135.627 81.1245 135.524 80.0548C135.482 79.6142 135.303 79.3931 134.858 79.3965C134.456 79.3996 134.053 79.3972 133.651 79.3972" stroke="black" stroke-width="1.2" stroke-linecap="round" stroke-linejoin="round"/>
<path d="M126.41 79.3972C124.204 79.3301 124.319 79.4422 124.9 81.4745C125.168 82.4117 125.679 83.2807 126.844 83.4826C127.13 83.532 127.372 83.8846 127.613 84.1196C127.779 84.2818 127.871 84.5551 128.061 84.6526C129.643 85.4643 129.348 86.7873 129.043 88.1208" stroke="black" stroke-width="1.2" stroke-linecap="round" stroke-linejoin="round"/>
<path d="M96.1239 100.904C95.429 101.599 94.7365 102.297 94.0376 102.988C93.8197 103.203 93.6305 103.446 93.7165 103.755C93.9864 104.729 93.8223 105.779 94.2585 106.72" stroke="black" stroke-width="1.2" stroke-linecap="round" stroke-linejoin="round"/>
<path d="M70.5562 116.486C70.0619 116.118 69.847 115.677 70.1075 115.056C70.2043 114.825 70.1441 114.53 70.2344 114.294C70.8828 112.605 70.0323 111.554 68.6793 110.801C68.0803 110.468 67.8334 109.882 67.374 109.463" stroke="black" stroke-width="1.2" stroke-linecap="round" stroke-linejoin="round"/>
<path d="M86.7966 139.749C86.6579 140.25 87.3848 140.498 87.1366 141.07C86.5726 142.371 87.3366 144.063 85.9273 145.137C85.6096 145.379 85.3615 145.546 84.9292 145.466C82.2413 144.969 79.5321 144.951 76.8104 145.114C75.5583 145.188 74.3037 145.113 73.0747 145.492C72.5994 145.638 71.5653 144.528 71.4413 143.808C71.367 143.375 71.3349 142.932 71.3294 142.492C71.309 140.877 71.3161 140.877 69.6787 140.846" stroke="black" stroke-width="1.2" stroke-linecap="round" stroke-linejoin="round"/>
<path d="M71.5439 143.699C73.5169 143.125 75.5779 143.055 77.5773 143.109C79.5867 143.162 81.6053 142.969 83.6159 143.248C86.6355 143.668 89.714 143.792 92.5024 145.235" stroke="black" stroke-width="1.2" stroke-linecap="round" stroke-linejoin="round"/>
<path d="M246.399 182.653C245.95 184.428 246.486 185.966 247.682 187.242C248.285 187.884 249.111 188.328 250.075 187.811" stroke="black" stroke-width="1.2" stroke-linecap="round" stroke-linejoin="round"/>
<path d="M94.4775 97.6128C94.9165 98.3809 95.4173 99.121 95.7803 99.9235C96.3808 101.251 97.7001 102.012 98.341 103.307C98.4836 103.596 98.9579 103.524 99.3053 103.545C100.073 103.591 100.852 103.406 101.61 103.648" stroke="black" stroke-width="1.2" stroke-linecap="round" stroke-linejoin="round"/>
<path d="M124.983 186.055C124.867 184.75 124.038 184.055 122.896 183.646C122.556 183.524 122.288 183.377 121.996 183.12C120.961 182.214 118.825 181.999 118.187 183.753C117.984 184.31 117.353 184.693 117.521 185.396" stroke="black" stroke-width="1.2" stroke-linecap="round" stroke-linejoin="round"/>
<path d="M71.3248 143.699C69.3564 143.836 67.4694 144.27 65.7285 145.235" stroke="black" stroke-width="1.2" stroke-linecap="round" stroke-linejoin="round"/>
<path d="M152.305 145.894C152.452 146.004 152.605 146.106 152.743 146.224C153.907 147.222 153.913 147.229 152.851 148.306C152.307 148.858 151.903 149.552 151.085 149.97C149.674 149.199 148.712 147.761 147.387 146.747C146.215 145.85 146.201 145.752 145.174 146.773C143.963 147.976 142.756 149.183 141.554 150.395C141.306 150.646 141.09 150.933 140.674 150.832" stroke="black" stroke-width="1.2" stroke-linecap="round" stroke-linejoin="round"/>
<path d="M51.9023 140.298C49.3098 139.826 48.0653 141.961 48.7201 144.029" stroke="black" stroke-width="1.2" stroke-linecap="round" stroke-linejoin="round"/>
<path d="M226.922 93.9917C226.922 95.8205 226.922 97.6494 226.922 99.4782" stroke="black" stroke-width="1.2" stroke-linecap="round" stroke-linejoin="round"/>
<path d="M182.481 123.399C182.762 123.097 182.708 122.778 182.6 122.409C182.231 121.148 180.845 119.789 179.407 119.686C177.235 119.531 175.993 120.649 175.366 122.308C174.856 123.657 175.205 124.882 176.223 125.927C177.346 127.079 178.714 127.358 180.169 126.886C181.55 126.439 182.424 125.413 182.692 123.946C182.717 123.811 182.627 123.655 182.591 123.509" stroke="black" stroke-width="1.2" stroke-linecap="round" stroke-linejoin="round"/>
<path d="M72.3121 145.235C71.6599 145.719 70.839 145.671 70.1073 145.853C68.9616 146.138 67.8961 146.472 67.0555 147.342C66.5273 147.114 66.0158 146.893 65.4139 146.633C65.762 145.281 64.9464 143.845 65.7283 142.492" stroke="black" stroke-width="1.2" stroke-linecap="round" stroke-linejoin="round"/>
<path d="M152.524 137.335C152.109 135.871 151.375 135.321 150.33 135.689C149.381 136.023 149.015 136.588 149.123 137.554C149.229 138.503 149.693 139.003 150.549 139.09C151.552 139.192 152.065 138.83 152.415 137.774C152.451 137.664 152.488 137.554 152.524 137.444" stroke="black" stroke-width="1.2" stroke-linecap="round" stroke-linejoin="round"/>
<path d="M86.0283 145.235C86.9275 145.826 88.0144 145.779 88.9969 146.095C89.7459 146.336 90.4554 146.579 90.9662 147.21" stroke="black" stroke-width="1.2" stroke-linecap="round" stroke-linejoin="round"/>
<path d="M98.8667 98.9293C98.1454 96.8997 97.1149 95.5016 94.6738 97.251C93.9088 97.7992 92.8818 97.9553 92.2633 98.8053C92.0631 99.0804 92.0867 99.3174 92.0635 99.5877" stroke="black" stroke-width="1.2" stroke-linecap="round" stroke-linejoin="round"/>
<path d="M153.073 106.61C153.733 107.706 154.9 108.29 155.722 109.23C156.177 109.75 156.509 110.434 157.243 110.67" stroke="black" stroke-width="1.2" stroke-linecap="round" stroke-linejoin="round"/>
<path d="M152.964 112.097C152.781 111.914 152.598 111.731 152.39 111.523C151.557 112.41 150.732 113.304 149.881 114.172C149.773 114.282 149.526 114.255 149.343 114.291" stroke="black" stroke-width="1.2" stroke-linecap="round" stroke-linejoin="round"/>
<path d="M120.594 187.481C121.362 188.286 122.086 189.14 122.914 189.878C123.443 190.35 123.419 190.91 123.314 191.427C123.072 192.629 122.782 193.817 122.788 195.053" stroke="black" stroke-width="1.2" stroke-linecap="round" stroke-linejoin="round"/>
<path d="M200.916 130.642C200.989 130.532 201.055 130.416 201.136 130.313C201.678 129.627 201.933 128.86 201.338 128.131C200.742 127.4 199.977 127.695 199.152 127.861C197.063 128.281 195.284 129.338 193.454 130.312" stroke="black" stroke-width="1.2" stroke-linecap="round" stroke-linejoin="round"/>
<path d="M151.208 158.623C150.189 160.004 148.959 161.199 147.807 162.463" stroke="black" stroke-width="1.2" stroke-linecap="round" stroke-linejoin="round"/>
<path d="M183.25 148.089C182.703 148.245 182.157 148.401 181.463 148.599C181.057 147.365 179.763 147.298 178.837 146.698C178.352 146.384 177.605 146.28 177.204 147.096C177.009 147.492 176.702 147.833 176.446 148.198" stroke="black" stroke-width="1.2" stroke-linecap="round" stroke-linejoin="round"/>
<path d="M234.384 114.182C233.43 115.317 232.166 115.6 230.763 115.498" stroke="black" stroke-width="1.2" stroke-linecap="round" stroke-linejoin="round"/>
<path d="M144.076 162.573C143.649 162.419 143.512 162.799 143.313 163.016C142.525 163.878 141.817 164.822 140.784 165.426" stroke="black" stroke-width="1.2" stroke-linecap="round" stroke-linejoin="round"/>
<path d="M227.909 104.635C226.616 104.247 225.479 104.897 224.288 105.184" stroke="black" stroke-width="1.2" stroke-linecap="round" stroke-linejoin="round"/>
<path d="M185.005 154.672C186.164 154.926 187.341 154.891 188.516 154.892" stroke="black" stroke-width="1.2" stroke-linecap="round" stroke-linejoin="round"/>
<path d="M178.86 119.888C178.86 122.247 178.86 124.606 178.86 126.965" stroke="black" stroke-width="1.2" stroke-linecap="round" stroke-linejoin="round"/>
<path d="M127.726 184.08C127.726 184.336 127.726 184.592 127.726 184.848C126.805 184.824 126.003 185.37 125.093 185.397" stroke="black" stroke-width="1.2" stroke-linecap="round" stroke-linejoin="round"/>
<path d="M170.301 107.708C171.325 108.695 172.349 109.683 173.373 110.67" stroke="black" stroke-width="1.2" stroke-linecap="round" stroke-linejoin="round"/>
<path d="M91.9539 99.0389C91.2955 98.9292 90.6129 98.8915 89.9885 98.6809C89.6498 98.5667 89.3346 98.4995 88.9912 98.4902" stroke="black" stroke-width="1.2" stroke-linecap="round" stroke-linejoin="round"/>
<path d="M249.636 164.438C249.197 165.17 248.746 165.894 248.326 166.636C248.192 166.873 248.016 166.666 247.88 166.742" stroke="black" stroke-width="1.2" stroke-linecap="round" stroke-linejoin="round"/>
<path d="M245.028 104.196C243.865 104.606 243.958 105.701 243.711 106.61" stroke="black" stroke-width="1.2" stroke-linecap="round" stroke-linejoin="round"/>
<path d="M261.377 171.68C260.563 170.967 259.747 170.259 258.743 169.815" stroke="black" stroke-width="1.2" stroke-linecap="round" stroke-linejoin="round"/>
<path d="M178.641 150.063C178.714 150.137 178.777 150.226 178.862 150.281C180.57 151.378 180.273 152.961 179.903 154.562" stroke="black" stroke-width="1.2" stroke-linecap="round" stroke-linejoin="round"/>
<path d="M260.17 167.182C260.216 167.807 259.801 168.274 259.488 168.7C258.665 169.821 258.057 171.064 257.317 172.229" stroke="black" stroke-width="1.2" stroke-linecap="round" stroke-linejoin="round"/>
<path d="M252.709 166.084C252.233 166.852 251.758 167.62 251.282 168.388" stroke="black" stroke-width="1.2" stroke-linecap="round" stroke-linejoin="round"/>
<path d="M251.172 161.915C250.627 162.622 250.148 163.367 249.855 164.219" stroke="black" stroke-width="1.2" stroke-linecap="round" stroke-linejoin="round"/>
<path d="M181.275 120.985C179.937 122.695 180.009 124.275 181.494 125.813" stroke="black" stroke-width="1.2" stroke-linecap="round" stroke-linejoin="round"/>
<path d="M176.556 120.985C177.941 122.87 177.91 124.225 176.446 125.813" stroke="black" stroke-width="1.2" stroke-linecap="round" stroke-linejoin="round"/>
<path d="M236.249 103.209C235.92 103.498 235.556 103.259 235.267 103.185C234.1 102.889 233.054 103.077 232.079 103.757" stroke="black" stroke-width="1.2" stroke-linecap="round" stroke-linejoin="round"/>
<path d="M257.098 165.755C256.2 167.228 255.4 168.763 254.354 170.144" stroke="black" stroke-width="1.2" stroke-linecap="round" stroke-linejoin="round"/>
<path d="M124.543 132.507C124.573 133.274 123.982 133.916 124.105 134.701" stroke="black" stroke-width="1.2" stroke-linecap="round" stroke-linejoin="round"/>
<path d="M182.371 123.399C180.03 123.399 177.69 123.399 175.349 123.399" stroke="black" stroke-width="1.2" stroke-linecap="round" stroke-linejoin="round"/>
<path d="M254.025 163.89C253.623 164.548 253.221 165.206 252.818 165.865" stroke="black" stroke-width="1.2" stroke-linecap="round" stroke-linejoin="round"/>
<path d="M79.0059 143.37C79.0424 144.541 79.079 145.711 79.1156 146.881" stroke="black" stroke-width="1.2" stroke-linecap="round" stroke-linejoin="round"/>
<path d="M215.181 148.637C214.816 149.186 214.828 149.924 214.303 150.393" stroke="black" stroke-width="1.2" stroke-linecap="round" stroke-linejoin="round"/>
<path d="M122.02 132.726C121.814 133.369 122.344 133.815 122.459 134.372" stroke="black" stroke-width="1.2" stroke-linecap="round" stroke-linejoin="round"/>
<path d="M92.8319 141.285C92.9105 142.252 92.3363 142.497 91.5152 142.498C91.2591 142.498 91.0031 142.22 90.7471 142.492" stroke="black" stroke-width="1.2" stroke-linecap="round" stroke-linejoin="round"/>
<path d="M117.96 140.188C117.96 140.627 117.96 141.066 117.96 141.505" stroke="black" stroke-width="1.2" stroke-linecap="round" stroke-linejoin="round"/>
<path d="M65.3994 141.285C65.6142 142.44 65.6142 142.44 67.0454 142.382" stroke="black" stroke-width="1.2" stroke-linecap="round" stroke-linejoin="round"/>
<path d="M56.072 156.757C54.6803 157.444 54.3648 158.312 55.1942 159.171C55.761 159.759 56.6024 159.759 57.1693 159.171C57.7937 158.524 57.7396 157.812 57.0664 157.189C56.8032 156.945 56.539 156.774 56.1817 156.757" stroke="black" stroke-width="1.2" stroke-linecap="round" stroke-linejoin="round"/>
<path d="M122.24 139.09C121.318 139.266 120.721 139.809 120.61 140.738C120.527 141.434 120.918 142.016 121.483 142.364C122.015 142.691 122.677 142.682 123.218 142.367C123.852 141.997 124.068 141.369 124.003 140.626C123.939 139.895 123.565 139.44 122.897 139.204C122.723 139.142 122.532 139.127 122.349 139.09" stroke="black" stroke-width="1.2" stroke-linecap="round" stroke-linejoin="round"/>
<path d="M165.363 103.209C164.526 103.395 164.304 104.009 164.389 104.744C164.459 105.346 164.874 105.73 165.474 105.836C166.129 105.952 166.589 105.638 166.899 105.074C167.379 104.201 166.699 103.312 165.473 103.209" stroke="black" stroke-width="1.2" stroke-linecap="round" stroke-linejoin="round"/>
<defs>
<linearGradient id="paint0_linear_479_1199" x1="154.5" y1="2.65299e-08" x2="154.827" y2="145.103" gradientUnits="userSpaceOnUse">
<stop stop-color="#3EA7FD"/>
<stop offset="1" stop-color="white"/>
</linearGradient>
</defs>
</svg>
