<svg width="309" height="227" viewBox="0 0 309 227" fill="none" xmlns="http://www.w3.org/2000/svg">
<path d="M154.5 0C239.828 0 309 65.1426 309 145.5C309 175.699 299.23 203.749 282.506 227H26.4941C9.76957 203.749 0 175.699 0 145.5C0 65.1426 69.172 0 154.5 0Z" fill="url(#paint0_linear_332_3228)"/>
<path d="M170.014 139.382C170.421 141.476 171.357 143.484 170.831 145.433C170.063 148.278 170.896 150.836 171.457 153.507C171.954 155.867 172.017 158.287 172.093 160.698C172.233 165.164 172.716 169.604 173.152 174.049C173.256 175.109 173.66 175.971 174.305 176.768C177.471 180.683 180.144 184.951 183.075 189.033C183.749 189.972 184.399 190.915 184.495 192.143C184.549 192.833 185.066 193.311 185.648 193.646C187.165 194.517 188.216 195.885 189.394 197.115C190.395 198.16 190.396 199.188 189.392 200.295C187.09 202.834 184.541 205.108 181.999 207.393C181.707 207.655 181.408 207.911 181.101 208.18C181.5 208.786 182.052 208.556 182.501 208.556C195.224 208.573 207.947 208.563 220.67 208.589C221.846 208.592 222.558 208.36 222.677 206.995C222.765 205.982 223.587 205.364 224.484 204.921C226.287 204.032 228.076 203.112 229.894 202.255C230.742 201.855 230.978 201.351 230.895 200.37C230.334 193.769 229.384 187.197 229.266 180.563C229.231 178.56 229.474 176.553 229.579 174.547C229.605 174.05 229.71 173.432 229.137 173.217C228.027 172.8 228.184 172.023 228.327 171.128C229.205 165.628 230.215 160.155 231.412 154.715C231.746 153.199 231.107 151.698 231.187 150.131C231.355 146.864 230.86 143.637 229.433 140.623C228.666 140.559 228.179 141.068 227.599 141.327C226.635 141.758 225.827 142.686 224.556 142.035C224.295 141.901 223.73 142.297 223.332 142.5C221.718 143.326 220.061 144.059 218.319 144.56C215.53 145.362 213.388 144.513 211.89 142.022C209.952 138.8 208.903 135.224 207.862 131.652C207.497 130.399 207.232 129.117 206.893 127.856C206.791 127.475 206.689 127.016 206.423 126.768C204.164 124.66 203.693 121.545 202.06 119.084C201.49 118.225 201.146 117.201 202.481 116.553C202.734 116.43 202.788 116.18 202.751 115.908C202.73 115.759 202.708 115.606 202.721 115.458C202.776 114.855 205.073 112.511 205.631 112.453C206.361 112.378 206.658 112.987 207.099 113.362C208.701 112.352 209.36 112.602 209.829 114.445C210.171 115.792 210.451 117.155 210.783 118.615C211.003 118.433 211.132 118.364 211.211 118.257C211.767 117.496 212.404 116.717 213.438 117.214C214.612 117.779 213.968 118.749 213.734 119.588C213.288 121.182 212.866 122.784 212.382 124.366C212.23 124.864 212.369 125.242 212.581 125.65C214.085 128.55 215.565 131.462 217.095 134.348C217.634 135.365 219.275 135.076 220.019 133.673C220.478 132.807 221.135 132.275 221.849 131.746C223.829 130.28 225.841 128.858 227.821 127.393C230.086 125.717 232.64 124.716 235.356 124.072C235.782 123.971 236.31 123.981 236.31 123.334C236.311 122.791 236.14 122.352 235.566 122.159C232.241 121.043 231.556 118.166 231.105 115.24C230.794 113.221 230.729 111.209 229.976 109.226C228.848 106.259 230.236 103.479 233.12 102.165C233.44 102.02 233.771 101.881 234.055 101.68C237.402 99.2944 240.891 99.3013 244.43 101.146C245.216 101.555 245.831 101.389 246.365 100.941C248.448 99.1904 250.638 99.0045 252.876 100.499C255.217 102.063 256.073 104.447 255.551 107.082C255.1 109.351 255.326 111.254 256.572 113.223C257.563 114.787 257.573 116.554 256.354 118.169C256.062 118.555 255.916 119.062 255.743 119.528C255.291 120.75 254.352 121.328 253.131 121.526C252.326 121.657 251.682 121.464 251.682 120.498C251.682 119.695 251.287 119.183 250.665 118.771C249.194 117.798 248.34 116.444 248.196 114.311C247.271 116.009 246.298 117.257 244.901 118.1C244.402 118.401 244.345 118.797 244.405 119.376C244.8 123.154 244.761 123.247 248.569 124.083C252.477 124.941 255.016 127.616 257.525 130.388C258.267 131.208 258.999 132.04 259.685 132.907C260.225 133.589 261.01 134.184 260.655 135.279C260.591 135.479 260.849 135.839 261.038 136.057C264.463 139.997 265.614 144.79 266.217 149.793C266.644 153.326 267.016 156.848 268.59 160.145C269.69 162.448 269.406 164.691 267.654 166.724C266.59 167.959 264.766 168.581 263.313 167.917C262.675 167.626 262.513 167.035 262.496 166.414C262.469 165.37 262.489 164.324 262.489 163.087C261.991 163.464 261.706 163.733 261.375 163.917C260.911 164.175 260.408 164.232 259.965 163.856C259.57 163.52 259.533 163.066 259.695 162.611C260.217 161.149 260.341 159.55 261.16 158.192C261.529 157.581 261.566 157.009 261.334 156.333C260.077 152.674 258.876 148.996 257.612 145.339C257.03 143.658 255.558 142.632 254.403 141.401C253.926 140.892 252.807 141.669 252.218 140.621C252 143.465 252.319 146.076 252.796 148.675C254.116 155.867 256.384 162.855 257.435 170.107C257.587 171.155 258.001 172.212 256.634 172.794C256.333 172.923 256.245 173.25 256.257 173.564C256.334 175.469 256.34 177.343 257.8 178.908C260.355 181.644 262.131 184.944 264.131 188.078C265.345 189.98 266.61 191.742 268.522 193.131C272.178 195.786 272.181 196.696 269.134 200.013C267.298 202.012 265.352 203.91 263.425 205.823C262.822 206.423 262.141 207.044 261.171 206.634C260.166 206.208 259.614 205.392 259.451 204.325C259.275 203.178 259.746 202.153 260.108 201.111C261.737 196.419 261.747 196.411 258.354 192.854C255.924 190.307 253.537 187.715 251.001 185.277C248.628 182.996 247.19 180.271 246.402 177.127C246.18 176.239 246.091 175.19 244.711 175.213C244.088 175.224 244.024 174.551 243.901 174.08C243.546 172.723 243.225 171.356 242.789 169.583C242.464 171.093 242.221 172.216 241.981 173.339C241.785 174.258 241.78 175.278 240.473 175.445C240.011 175.504 240.016 176.043 239.903 176.423C239.084 179.184 238.494 181.968 238.792 184.881C239.189 188.768 238.277 192.579 238.065 196.43C237.932 198.851 237.233 201.258 238.132 203.709C238.483 204.666 238.519 205.802 238.441 206.838C238.329 208.315 238.974 208.615 240.286 208.595C244.258 208.533 248.232 208.573 252.204 208.574C259.697 208.575 267.19 208.571 274.683 208.585C275.39 208.586 276.194 208.407 276.741 209.221C276.232 210.133 275.398 209.847 274.717 209.848C258.524 209.862 242.331 209.854 226.139 209.854C162.474 209.856 98.8091 209.861 35.1443 209.851C34.4069 209.851 33.5263 210.16 32.959 209.235C33.3636 208.453 34.0716 208.594 34.6836 208.591C38.3043 208.574 41.9251 208.588 45.5458 208.57C46.0763 208.568 46.6366 208.719 47.2463 208.356C45.3856 206.41 43.5451 204.508 41.7336 202.58C40.7359 201.517 39.7698 200.424 38.8211 199.317C38.0505 198.419 38.0562 197.473 38.8756 196.61C40.3595 195.046 41.7524 193.366 43.7928 192.459C44.425 192.178 44.7756 191.607 45.1654 191.091C47.4687 188.043 49.7495 184.977 52.0537 181.929C53.2418 180.358 54.6208 178.97 56.1821 177.762C56.7732 177.305 57.3908 176.836 57.3863 175.973C55.062 174.43 55.0296 174.422 55.7182 171.519C56.983 166.186 57.7834 160.759 58.3317 155.333C59.093 147.796 61.0071 140.459 61.7892 132.937C62.1109 129.843 62.8396 126.812 63.5071 123.768C64.5506 119.01 67.3186 116.197 72.134 115.611C73.9937 115.384 74.7702 114.466 75.2549 112.789C75.7056 111.229 75.9188 109.998 74.7692 108.506C71.1943 103.867 73.6376 95.8667 78.9905 94.3661C81.8815 93.5556 84.6773 93.9858 87.2622 95.5139C89.6356 96.9169 90.4175 99.2239 90.5003 101.794C90.6145 105.341 90.1278 108.827 88.8291 112.142C87.9653 114.346 86.6364 116.136 83.9158 116.129C83.4795 116.128 83.1414 116.253 82.9852 116.723C82.7712 117.369 83.2834 117.521 83.659 117.71C88.3444 120.069 89.9788 124.03 89.6963 129.042C89.621 130.378 89.6849 131.721 89.6849 133.195C92.6874 133.021 95.3585 132.664 98.0037 132.094C98.1474 132.063 98.3375 132.015 98.4076 131.909C99.8682 129.707 102.389 128.378 103.319 125.716C104.947 121.059 108.985 118.071 113.991 118.036C118.771 118.003 122.39 120.207 124.548 124.53C125.679 126.794 125.888 129.245 125.468 131.739C125.183 133.438 125.328 133.838 126.944 133.612C129.51 133.253 132.014 133.802 134.538 133.824C134.765 131.29 135.252 131.032 137.468 132.271C138.183 131.535 138.29 130.5 138.662 129.606C139.22 128.262 139.697 126.882 140.162 125.501C141.123 122.654 142.826 120.424 145.578 119.141C146.928 118.511 147.416 117.572 147.114 116.068C144.334 115.099 143.435 112.632 142.727 110.071C142.248 108.339 141.834 106.609 141.21 104.902C140.623 103.301 140.256 101.657 139.414 100.103C138.521 98.4527 139.241 97.0029 140.866 96.1666C141.077 96.0577 141.308 95.8969 141.421 95.6982C142.46 93.8666 144.063 93.8289 145.738 94.4602C147.216 95.0169 148.623 95.083 150.146 94.6868C152.127 94.1714 153.827 94.6994 155.039 96.4457C155.241 96.7369 155.421 97.0422 155.785 97.1579C158.329 97.9664 158.67 100.101 158.604 102.257C158.508 105.37 158.302 108.514 156.098 111.062C155.596 111.641 155.805 112.35 156.315 112.65C157.142 113.136 157.488 113.875 157.779 114.665C158.044 115.385 158.589 115.623 159.237 115.817C160.199 116.106 161.149 116.434 162.104 116.745C166.27 118.104 168.071 121.186 168.504 125.354C168.985 129.989 169.103 134.664 170.014 139.382ZM182.766 204.904C185.043 203.071 187.009 200.937 189.056 198.881C188.921 198.748 188.787 198.616 188.652 198.483C186.618 200.637 184.585 202.791 182.36 205.013C181.388 205.823 180.416 206.632 179.444 207.442C180.693 206.855 181.771 206.072 182.766 204.904ZM153.68 106.418C152.99 106.673 152.678 106.198 152.349 105.738C151.806 104.979 151.565 104.097 151.451 103.207C151.284 101.902 150.542 101.616 149.436 101.935C147.65 102.451 145.862 102.94 143.993 103.025C143.475 103.048 143.133 103.225 143.091 103.804C143.046 104.41 143.361 104.584 143.903 104.611C144.28 104.629 144.744 104.595 144.811 105.164C144.529 105.858 143.7 105.529 143.187 106.107C143.366 108.05 143.742 110.048 144.588 111.939C146.147 115.425 148.819 115.936 151.588 113.307C151.961 112.953 152.221 112.347 152.999 112.553C153.365 113.826 152.069 114.495 151.777 115.641C152.351 115.443 152.835 115.317 153.284 115.113C155.072 114.304 155.215 114.005 154.748 112.113C154.52 111.188 154.281 110.266 154.014 109.351C153.82 108.684 153.87 108.155 154.624 107.909C155.9 107.493 156.183 106.618 155.598 105.347C154.643 105.021 154.302 105.771 153.68 106.418ZM243.272 112.667C242.184 112.606 241.965 111.704 241.627 110.938C241.405 110.435 241.304 109.844 240.675 109.673C238.251 109.016 236.097 107.905 234.481 105.8C233.12 106.756 232.627 107.989 232.232 109.433C232.638 109.503 232.877 109.545 233.117 109.585C233.605 109.667 234.285 109.653 234.274 110.291C234.259 111.139 233.566 110.694 233.123 110.705C232.341 110.725 232.118 111.212 232.105 111.907C232.067 113.877 232.202 115.815 232.829 117.708C233.976 121.166 236.638 122.07 239.659 120.019C240.108 119.714 240.464 119.059 241.358 119.47C240.924 121.133 239.862 122.275 238.422 123.034C237.182 123.688 237.506 124.72 237.656 125.659C237.798 126.55 238.5 126.955 239.407 127.022C241.836 127.203 243.944 125.167 243.722 122.79C243.549 120.942 243.362 119.094 243.098 117.258C242.914 115.983 242.911 115.028 244.58 114.803C245.321 114.703 245.721 113.863 245.801 113.058C245.85 112.571 245.65 112.145 245.191 111.942C244.441 111.608 243.956 112.045 243.517 112.617C243.517 112.617 243.499 112.636 243.272 112.667ZM125.354 140.395C123.556 139.326 121.664 138.799 119.678 139.769C115.585 141.768 111.632 141.582 107.777 139.176C107.349 138.909 106.942 138.653 106.413 138.594C100.372 137.915 100.372 137.911 94.4469 140.016C93.5002 140.352 92.5497 140.678 91.6001 141.006C91.2802 141.116 90.8804 141.107 90.7885 141.599C90.8385 141.703 90.8666 141.88 90.9698 141.959C94.0027 144.28 97.0411 146.593 100.085 148.898C100.45 149.175 100.853 149.36 101.348 149.236C102.586 148.927 103.855 149.044 105.103 149.081C106.023 149.108 107.26 148.398 107.8 149.673C108.375 151.029 106.886 151.33 106.156 152.153C107.274 152.845 108.343 153.477 109.378 154.159C109.979 154.554 110.64 155.125 110.295 155.872C109.744 157.062 109.831 158.462 108.199 159.288C106.149 160.327 104.594 160.668 102.778 159.284C102.298 158.919 101.859 158.495 101.356 158.167C99.6083 157.031 98.6289 154.951 96.7872 154.057C92.6716 152.058 88.5929 150.008 84.6762 147.641C84.613 147.602 84.49 147.663 84.2043 147.708C84.0308 150.445 83.6573 153.262 84.4272 155.96C85.9698 161.367 87.7431 166.707 89.4202 172.075C89.5988 172.646 89.9072 173.261 89.3462 173.761C88.6639 174.368 88.7378 175.114 88.8971 175.849C89.1767 177.14 89.2256 178.437 89.1387 179.742C88.7519 185.553 88.3658 191.363 87.9511 197.171C87.7766 199.615 88.9954 201.797 91.2102 202.793C92.4931 203.369 93.7916 203.912 95.0896 204.453C96.2756 204.949 97.2748 205.756 97.4019 207.025C97.5519 208.523 98.3468 208.597 99.5254 208.592C106.815 208.557 114.104 208.575 121.393 208.575C125.767 208.575 130.141 208.576 134.514 208.574C135.227 208.574 135.991 208.634 136.095 207.628C136.276 205.893 137.463 205.038 138.891 204.374C140.667 203.549 142.475 202.793 144.171 201.798C145.008 201.307 145.369 200.746 144.811 199.844C144.069 198.646 143.95 197.292 143.844 195.94C143.481 191.339 143.109 186.738 142.78 182.135C142.537 178.721 142.496 175.33 143.346 171.954C144.926 165.679 146.371 159.37 147.907 153.084C148.162 152.041 148.143 150.897 147.586 150.175C146.418 148.665 146.21 146.98 146.074 145.227C146.019 144.525 145.739 144.195 145.035 143.991C143.393 143.515 141.843 142.788 140.18 144.091C139.49 144.633 138.452 144.565 137.542 144.448C133.293 143.901 129.103 143.171 125.354 140.395ZM152.897 180.679C152.823 178.998 153.116 177.396 153.735 175.819C154.949 172.733 156.082 169.616 157.246 166.511C158.087 164.268 157.317 161.766 155.349 160.299C154.968 160.015 154.415 159.809 154.657 159.145C156.199 158.907 157.682 160.027 158.183 161.848C159.501 166.641 160.848 171.426 162.085 176.24C162.64 178.397 163.616 180.254 165.145 181.856C169.034 185.928 172.906 190.018 176.795 194.09C177.174 194.487 177.585 194.88 178.051 195.161C179.046 195.761 180.349 195.324 181.363 194.163C182.155 193.255 181.232 192.79 180.845 192.258C177.649 187.869 174.433 183.493 171.185 179.142C170.166 177.778 169.425 176.315 169.261 174.624C168.711 168.981 168.231 163.331 167.663 157.69C167.46 155.677 167.313 153.633 166.583 151.652C166.182 151.735 165.942 151.779 165.705 151.835C160.677 153.011 155.602 153.552 150.45 152.893C149.569 152.781 149.147 153.098 148.947 153.925C148.368 156.318 147.688 158.688 147.173 161.094C145.639 168.27 142.946 175.245 143.983 182.846C144.646 187.712 144.827 192.644 145.232 197.546C145.339 198.833 146.04 199.568 147.342 199.67C147.943 199.717 148.547 199.732 149.15 199.735C151.533 199.75 152.179 199.177 152.282 196.789C152.509 191.518 152.694 186.246 152.897 180.679ZM79.2965 188.779C78.7746 185.829 79.0927 182.882 79.2574 179.924C79.3595 178.09 78.7574 177.62 76.9797 178.013C75.7338 178.288 75.258 177.815 74.9264 176.709C74.2383 174.413 73.4498 172.148 72.5847 169.51C71.8833 172.205 71.255 174.522 70.6855 176.854C70.4494 177.82 69.9615 178.449 68.9307 178.28C67.955 178.119 67.5777 178.567 67.3161 179.392C66.7859 181.063 65.7756 182.421 64.4691 183.579C62.7391 185.111 60.9205 186.562 59.3286 188.228C56.303 191.395 52.0053 193.337 50.2605 197.769C49.927 198.616 49.7531 199.268 49.9445 200.154C50.5343 202.884 52.5026 205.366 51.3516 208.353C52.0368 208.697 52.6503 208.573 53.2412 208.574C60.9823 208.583 68.7235 208.581 76.4647 208.574C77.4172 208.573 78.5134 208.818 79.2872 208.434C80.3587 207.902 79.6088 206.616 79.7156 205.687C79.921 203.899 80.5706 202.11 80.5539 200.406C80.5169 196.61 79.9791 192.81 79.2965 188.779ZM247.378 152.517C248.562 152.3 249.746 152.078 250.931 151.866C251.856 151.7 252.132 151.252 251.921 150.275C251.25 147.178 250.863 144.034 250.972 140.86C251.017 139.537 250.578 138.552 249.622 137.674C249.122 137.216 248.352 136.801 248.573 135.893C249.333 135.545 249.664 136.082 250.029 136.459C250.937 137.397 251.839 138.344 252.705 139.322C253.238 139.924 253.706 140.013 254.354 139.463C255.885 138.161 257.441 136.895 258.822 135.422C259.401 134.804 259.402 134.34 258.87 133.753C257.453 132.19 256.042 130.622 254.643 129.043C252.664 126.808 250.164 125.57 247.267 124.957C245.86 124.66 244.926 124.75 243.959 126.092C241.717 129.202 237.629 128.735 236.289 125.374C236.258 125.297 236.132 125.259 235.969 125.147C233.778 125.66 231.558 126.253 229.637 127.627C227.266 129.322 224.917 131.047 222.529 132.716C221.774 133.244 221.596 133.791 221.999 134.622C222.919 136.523 223.903 138.387 225.045 140.164C225.231 140.456 225.409 140.774 225.821 140.811C227.021 140.918 229.239 138.914 229.233 137.687C229.226 136.369 229.525 135.1 229.78 133.824C229.85 133.473 230.025 133.107 230.462 133.154C231.044 133.215 230.949 133.697 230.924 134.087C230.908 134.335 230.841 134.582 230.773 134.823C230.126 137.127 230.278 139.361 231.129 141.611C232.189 144.417 232.414 147.377 232.419 150.353C232.424 152.799 232.447 152.857 234.936 152.947C239.005 153.095 243.073 153.155 247.378 152.517ZM165.438 183.908C163.008 181.732 161.445 179.085 160.717 175.871C160.091 173.111 159.207 170.41 158.344 167.353C156.794 171.11 155.457 174.565 154.338 178.1C154.1 178.853 154.027 179.685 154.026 180.482C154.017 184.701 153.924 188.917 153.665 193.128C153.509 195.662 153.682 198.263 152.291 200.588C151.98 201.108 152.083 201.761 152.249 202.358C152.654 203.818 152.905 205.312 152.762 206.819C152.626 208.264 153.243 208.6 154.58 208.591C161.763 208.542 168.946 208.577 176.129 208.563C176.635 208.562 177.232 208.792 177.715 208.169C176.457 206.711 176.931 205.163 177.624 203.663C178.342 202.107 178.965 200.53 179.363 198.86C179.619 197.786 179.479 196.995 178.279 196.622C177.556 196.397 176.933 195.952 176.403 195.398C172.796 191.62 169.188 187.843 165.438 183.908ZM67.1224 154.648C64.632 154.186 64.5817 154.177 64.1592 156.529C63.0591 162.65 62.2695 168.827 60.8527 174.891C60.6728 175.661 61.0895 175.87 61.6808 176.025C63.5286 176.509 65.3938 176.882 67.2937 177.117C68.7942 177.303 69.548 176.849 69.91 175.265C70.7822 171.451 71.8318 167.676 72.8606 163.899C73.376 162.007 74.8073 160.897 76.2976 161.101C76.5049 161.849 75.8432 162.02 75.4462 162.341C73.8712 163.618 72.9195 166.665 73.5277 168.563C74.2779 170.905 75.0864 173.23 75.7582 175.594C76.0374 176.576 76.5238 176.943 77.4776 176.771C80.8529 176.165 84.1267 175.246 87.2114 173.703C88.2104 173.203 88.4072 172.59 88.0612 171.52C86.362 166.265 84.7264 160.989 83.0984 155.711C82.7818 154.685 82.3501 154.315 81.1509 154.504C76.5799 155.223 71.983 155.705 67.1224 154.648ZM251.226 163.29C250.638 161.003 250.114 158.698 249.446 156.435C248.544 153.385 248.507 153.477 245.358 153.888C242.42 154.272 239.457 154.474 236.486 154.215C235.303 154.112 234.119 154.026 232.885 153.929C231.426 159.717 230.453 165.448 229.487 171.18C229.35 171.99 229.858 172.191 230.494 172.386C233.39 173.277 236.373 173.683 239.365 174.053C240.221 174.158 240.687 173.853 240.84 172.982C241.092 171.549 241.342 170.111 241.693 168.7C242.257 166.433 242.058 164.499 239.728 163.299C239.367 163.113 238.987 162.808 239.306 162.349C239.613 161.908 240.042 162.193 240.393 162.354C241.809 163.003 242.678 164.075 243.032 165.619C243.594 168.064 244.25 170.487 244.822 172.93C245.015 173.752 245.394 174.175 246.278 174.046C248.066 173.783 249.857 173.558 251.618 173.123C252.602 172.88 252.906 172.389 252.707 171.391C252.188 168.782 251.742 166.159 251.226 163.29ZM74.4998 136.344C75.771 137.558 77.071 138.743 78.3066 139.992C80.073 141.777 82.1475 142.144 84.5386 141.649C89.1333 140.696 93.5307 139.145 97.8795 137.432C99.0212 136.982 100.154 136.688 101.398 137.009C103.665 137.593 105.967 137.305 108.557 137.31C107.354 136.855 106.16 137.585 105.315 136.425C106.075 135.676 106.968 135.914 107.769 135.817C108.533 135.725 109.348 135.882 110.345 135.405C108.524 135.166 106.947 135.681 105.486 134.909C107.17 133.812 109.225 134.383 111.092 133.482C109.052 133.214 107.16 134.073 105.001 133.231C106.521 132.139 108.126 132.334 109.585 131.513C108.52 131.35 107.729 131.459 106.932 131.541C106.085 131.629 105.228 131.731 104.382 131.688C103.061 131.622 102.7 130.96 103.28 129.8C103.56 129.24 103.947 128.722 103.875 127.764C102.573 129.139 101.293 130.225 100.36 131.556C99.5234 132.748 98.5226 133.32 97.162 133.501C92.738 134.09 88.3165 134.698 83.8927 135.289C83.2394 135.377 82.5496 135.45 82.1414 134.756C79.8252 130.814 76.097 127.875 74.2479 123.593C73.7056 122.338 72.7751 121.327 71.724 120.439C71.3686 120.139 70.8041 119.929 70.9965 119.303C71.5491 118.689 71.9725 119.503 72.4951 119.42C71.1502 117.514 68.8449 117.104 66.9795 119.177C65.0794 121.288 64.5378 123.884 64.4128 126.564C64.3305 128.329 64.8445 130.047 65.7995 131.579C66.4094 132.557 67.2842 132.595 68.1321 131.998C69.1031 131.314 68.1584 130.813 67.8413 130.274C67.5636 129.802 66.9372 129.413 67.6948 128.46C69.9617 131.087 72.1611 133.635 74.4998 136.344ZM68.5712 153.719C73.0401 154.511 77.4589 153.893 81.8778 153.253C82.5831 153.15 82.984 152.794 82.9377 152.057C82.7521 149.105 83.2086 146.178 83.3587 143.049C80.5429 143.501 78.6779 141.888 76.8002 140.258C74.9373 138.641 73.293 136.818 71.6372 135C71.21 134.531 70.9007 133.516 70.0417 133.993C69.1094 134.511 67.8272 134.639 67.6262 136.163C67.2137 139.29 66.6508 142.398 66.1212 145.509C65.7042 147.959 65.2443 150.401 64.8043 152.842C66.03 153.392 67.1829 153.478 68.5712 153.719ZM162.96 139.912C161.139 143.246 158.451 145.226 154.411 145.014C154.507 146.056 154.526 146.807 154.653 147.54C154.978 149.406 155.32 149.714 157.25 149.625C160.724 149.465 164.116 148.79 167.427 147.741C169.461 147.096 170.22 145.949 169.711 143.867C168.249 137.891 167.836 131.793 167.361 125.694C167.029 121.42 165.161 118.954 161.387 117.93C164.6 119.739 165.354 122.306 164.559 125.502C163.4 130.16 161.636 134.573 159.283 138.751C158.604 139.956 157.53 140.712 156.198 140.98C154.271 141.369 152.318 141.463 150.353 141.237C148.41 141.014 146.449 140.944 144.53 140.516C143.923 140.38 143.467 140.55 143.274 141.243C143.072 141.973 143.484 142.258 144.037 142.48C144.269 142.573 144.51 142.648 144.753 142.707C147.744 143.428 150.799 143.692 153.855 143.844C157.427 144.022 160.106 142.587 161.87 139.335C163.237 136.816 164.549 134.28 165.719 131.665C165.945 131.161 166.037 130.244 166.829 130.589C167.597 130.923 167.034 131.693 166.832 132.177C165.746 134.773 164.516 137.303 162.96 139.912ZM152.504 136.557C150.195 136.532 147.886 136.617 145.584 136.304C144.7 136.183 143.854 136.343 143.739 137.54C143.632 138.644 143.862 139.253 145.171 139.468C148.212 139.966 151.255 140.07 154.322 140.059C156.286 140.051 157.689 139.237 158.597 137.523C160.721 133.514 162.371 129.326 163.484 124.921C164.018 122.806 163.734 120.907 161.843 119.731C159.878 118.51 157.812 116.786 155.375 119.018C155.02 119.343 154.501 119.515 154.031 119.681C153.42 119.897 152.787 120.395 152.124 119.782C152.232 119.004 152.895 118.998 153.349 118.762C154.329 118.253 155.345 117.818 156.171 117.049C157.009 116.267 157.143 115.495 156.22 114.541C155.198 115.587 153.993 116.225 152.694 116.6C151.493 116.947 150.99 117.445 151.563 118.716C151.872 119.4 151.872 120.188 151.79 120.946C151.315 125.387 152.163 129.739 152.69 134.111C152.743 134.557 152.632 135.255 153.318 135.324C154.069 135.4 154.104 134.674 154.288 134.185C155.348 131.367 156.377 128.537 157.454 125.725C157.666 125.169 157.794 124.429 158.661 124.415C159.268 125.181 158.719 125.79 158.495 126.404C157.513 129.091 156.376 131.73 155.561 134.466C155.098 136.017 154.494 136.879 152.504 136.557ZM217.453 136.638C217.074 136.571 216.819 136.326 216.652 136.007C214.88 132.625 213.111 129.241 211.356 125.85C211.011 125.184 211.136 124.505 211.344 123.801C211.867 122.037 212.328 120.255 212.814 118.48C211.593 120.389 209.332 121.382 208.657 124.023C207.724 122.397 208.409 121.528 209.085 120.672C209.321 120.373 209.827 120.246 209.72 119.737C209.341 117.932 209.292 116.047 208.405 113.944C208.283 115.821 209.063 117.332 208.231 119.159C206.954 117.348 206.774 115.441 205.783 113.619C205.851 115.808 207.151 117.54 206.803 119.884C205.135 118.647 205.171 116.804 203.807 115.378C204.364 116.781 204.784 117.793 205.167 118.818C205.352 119.311 205.81 119.926 205.214 120.322C204.524 120.78 204.333 119.959 203.978 119.601C203.894 119.515 203.788 119.452 203.692 119.378C204.734 121.069 204.878 123.265 206.23 124.637C207.775 126.205 208.104 128.102 208.628 130.017C209.69 133.896 210.811 137.758 212.817 141.285C213.515 142.511 214.441 143.521 215.947 143.609C218.988 143.788 221.283 141.991 223.92 140.808C222.774 138.695 221.783 136.869 220.785 135.029C219.621 135.627 218.644 136.129 217.453 136.638ZM75.7086 116.82C76.7004 118.571 77.7877 120.262 79.0626 121.821C79.4925 122.347 79.9232 123.148 80.7094 122.916C81.5537 122.667 81.4041 121.683 81.6595 120.999C81.9957 120.099 80.9506 119.409 81.3092 118.559C81.7397 117.539 81.3033 116.901 80.5879 116.219C79.4656 115.151 78.8095 113.805 78.3141 112.215C79.5284 112.116 79.7844 112.915 80.2554 113.358C83.0324 115.969 86.063 115.431 87.6463 111.999C88.3472 110.481 88.5945 108.835 88.9346 107.211C89.2344 105.779 89.4118 104.527 87.3685 104.482C87.3344 104.481 87.304 104.31 87.269 104.21C87.5853 103.206 88.6214 103.858 89.1639 103.429C89.4401 101.723 89.3286 101.006 88.6768 101.034C86.3202 101.133 84.1416 100.2 81.8446 100.017C81.2338 99.969 80.5621 100.201 80.5474 100.787C80.5073 102.381 79.379 103.533 79.0408 104.988C78.9292 105.468 78.8581 106.037 78.2565 106.166C77.6965 106.286 77.5031 105.782 77.231 105.434C76.7745 104.849 76.2335 104.312 75.4616 104.797C74.759 105.239 74.8186 106.017 75.0072 106.712C75.2067 107.447 75.7269 107.952 76.5047 108.013C77.6373 108.103 77.6555 108.723 77.3828 109.579C76.8492 111.254 76.3244 112.931 75.8268 114.617C75.6345 115.269 75.1745 115.91 75.7086 116.82ZM230.57 177.912C230.119 180.421 230.421 182.924 230.642 185.424C230.898 188.323 231.206 191.217 231.45 194.117C231.53 195.064 232.024 195.545 232.899 195.443C234.261 195.285 235.839 196.189 236.943 194.688C237.026 194.576 237.034 194.403 237.055 194.255C237.575 190.669 237.985 187.065 237.629 183.449C237.471 181.848 237.691 180.358 238.06 178.844C238.341 177.693 238.779 176.567 238.713 175.346C238.509 175.27 238.376 175.195 238.233 175.171C236.947 174.953 235.66 174.735 234.37 174.533C230.761 173.969 230.76 173.972 230.57 177.912ZM145.18 130.624C145.541 134.984 145.541 134.984 149.83 135.3C150.03 135.315 150.232 135.328 150.429 135.365C151.41 135.546 151.649 135.172 151.505 134.2C150.906 130.132 150.406 126.053 150.512 121.925C150.547 120.562 148.331 119.042 147.096 119.647C144.757 120.793 142.682 122.247 141.749 124.867C140.976 127.041 140.147 129.194 139.368 131.365C138.552 133.64 138.592 133.934 140.449 135.366C141.467 136.15 142.622 135.803 143.723 135.367C144.804 134.94 144.46 134.061 144.365 133.311C144.182 131.872 143.914 130.443 143.691 129.008C143.607 128.464 143.481 127.882 144.314 127.734C145.22 128.418 144.799 129.514 145.18 130.624ZM82.9331 194.602C83.6359 194.597 84.3388 194.602 85.0412 194.585C86.9981 194.539 87.0102 194.454 87.1354 192.54C87.3642 189.041 87.7415 185.552 87.9362 182.052C88.0651 179.736 88.3662 177.377 87.4623 175.055C85.6172 175.698 83.8991 176.395 82.1234 176.884C80.7631 177.258 79.5871 177.521 80.3924 179.357C80.5378 179.689 80.4302 180.155 80.3705 180.549C79.7284 184.783 80.6007 188.939 81.0089 193.118C81.1045 194.097 81.5637 194.72 82.9331 194.602ZM262.26 158.649C261.526 159.772 261.391 161.077 261.038 162.436C261.752 162.026 261.804 160.796 262.754 161.117C263.693 161.435 263.497 162.427 263.573 163.202C263.671 164.188 263.857 165.165 263.738 166.17C264.433 165 263.532 163.523 264.642 162.224C265.769 163.749 265.052 165.296 265.215 166.971C265.877 165.298 265.162 163.695 265.86 162.115C266.991 163.008 266.613 164.128 266.96 165.007C266.992 164.296 266.964 163.597 266.897 162.903C266.863 162.556 266.672 162.084 267.026 161.933C268.154 161.454 267.557 160.722 267.359 160.072C266.822 158.309 265.895 156.71 265.7 154.79C265.331 151.156 264.78 147.536 263.965 143.964C263.296 141.034 261.492 138.764 259.758 136.289C258.534 137.389 257.48 138.455 256.302 139.359C255.314 140.117 255.389 140.706 256.189 141.522C257.418 142.777 258.511 144.102 259.059 145.864C260.088 149.167 261.271 152.422 262.398 155.695C262.717 156.621 262.925 157.536 262.26 158.649ZM66.1194 179.289C66.61 178.459 66.2255 178.136 65.4123 177.977C64.035 177.708 62.6319 177.499 61.3045 177.065C59.7679 176.564 58.353 176.01 57.5627 178.089C57.4823 178.301 57.2296 178.465 57.0274 178.61C54.7013 180.28 53.0237 182.538 51.36 184.813C48.8004 188.313 48.8623 188.611 52.313 191.257C53.138 191.89 53.6486 191.774 54.3597 191.107C56.228 189.355 58.2242 187.738 60.0664 185.96C62.1794 183.921 64.8433 182.372 66.1194 179.289ZM259.649 183.233C257.637 180.306 254.756 177.819 254.883 173.807C254.885 173.736 254.76 173.662 254.63 173.52C252.489 174.038 250.338 174.719 248.093 174.984C247.222 175.086 247.189 175.698 247.4 176.456C248.234 179.449 249.414 182.215 251.769 184.39C253.205 185.717 254.484 187.212 255.851 188.615C258.508 191.339 258.805 191.304 261.446 188.42C262.095 187.711 262.242 187.11 261.674 186.307C261.008 185.365 260.402 184.379 259.649 183.233ZM94.3412 146.08C93.1368 145.175 91.6522 144.478 90.7926 143.318C89.4459 141.5 88.0161 141.94 86.3701 142.46C85.499 142.735 84.6923 142.815 84.5146 144.046C84.3359 145.284 84.4715 146.106 85.6426 146.782C88.4683 148.414 91.2547 150.109 94.2374 151.454C96.4278 152.442 98.5894 153.414 100.123 155.466C101.093 156.763 102.543 157.65 104.055 158.4C103.915 158.068 103.576 157.941 103.342 157.709C103.026 157.394 102.339 157.102 102.865 156.523C103.269 156.078 103.689 156.526 104.053 156.765C104.522 157.072 104.978 157.397 105.44 157.714C105.201 157.176 104.817 156.866 104.431 156.558C104.057 156.257 103.407 155.991 103.852 155.408C104.254 154.882 104.771 155.327 105.182 155.583C106.156 156.189 107.114 156.822 108.078 157.445C107.244 156.514 106.238 155.863 105.24 155.2C104.903 154.976 104.518 154.723 104.783 154.241C105.038 153.779 105.469 153.905 105.845 154.074C106.712 154.462 107.569 154.876 108.43 155.28C107.454 154.43 106.366 153.817 105.326 153.13C104.664 152.693 104.117 152.601 103.424 153.104C102.755 153.59 101.945 153.718 101.124 153.44C100.78 153.324 100.439 153.142 100.484 152.718C100.533 152.265 100.898 152.178 101.275 152.256C103.337 152.684 104.347 150.617 106.119 150.306C104.781 150.476 103.467 150.19 102.187 150.379C100.726 150.595 99.5634 150.159 98.4575 149.232C97.1889 148.169 95.8316 147.212 94.3412 146.08ZM181.494 191.091C181.953 191.575 182.115 192.347 182.899 192.624C183.483 191.49 182.806 190.734 182.271 189.986C179.175 185.651 176.274 181.176 172.976 176.984C172.44 176.304 172.001 175.58 171.943 174.684C171.55 168.572 170.847 162.482 170.667 156.353C170.612 154.472 170.254 152.591 169.398 150.797C168.561 150.999 167.782 151.012 168.004 152.178C169.179 158.355 169.306 164.646 170.004 170.875C170.298 173.502 170.371 176.152 172.13 178.434C175.29 182.533 178.302 186.747 181.494 191.091ZM74.2076 119.825C75.1379 123.394 76.9208 126.466 79.4396 129.162C80.4941 130.291 81.3283 131.625 82.2586 132.869C82.7144 133.479 82.9152 134.323 84.0552 134.076C85.1523 133.838 85.125 133.021 85.2833 132.269C85.9472 129.118 85.3547 125.979 85.1061 122.845C85.0196 121.754 85.1745 120.536 84.2832 119.572C83.8162 120.03 84.0064 120.562 83.9775 121.029C83.9243 121.889 83.7811 122.721 83.4655 123.522C82.4827 126.017 80.5984 126.526 78.4777 124.864C77.7189 124.269 77.1119 123.528 76.5983 122.724C75.4921 120.993 74.4071 119.247 73.3457 117.488C72.9489 116.83 72.5574 116.424 71.6405 117.026C72.6879 117.84 73.6083 118.541 74.2076 119.825ZM116.072 137.692C117.232 134.728 117.418 131.666 117.016 128.537C116.938 127.923 116.818 127.484 116.062 127.479C115.26 127.474 115.029 127.889 115.011 128.601C114.933 131.655 112.447 133.568 111.301 136.129C110.953 136.906 110.007 137.754 109.193 138.568C110.156 139.253 111.159 139.518 112.184 139.742C114.749 140.3 114.879 140.242 116.072 137.692ZM48.4992 205.492C49.104 205.961 49.4993 206.738 50.4551 206.888C50.8937 204.499 49.6725 203.36 47.6703 202.963C47.8056 201.952 48.707 202.365 49.0917 201.915C48.3802 201.467 47.3382 201.834 47.0806 200.928C47.2605 200.157 48.0244 200.539 48.4166 200.14C47.7183 199.768 46.7949 200.09 46.5726 198.983C47.4491 198.566 48.7683 198.821 49.1539 197.496C49.2868 197.04 49.8112 196.661 49.2168 196.202C48.7631 195.852 48.34 195.65 47.7336 196.059C46.4901 196.898 45.4501 196.562 44.5448 195.201C44.2479 194.754 44.2678 194.117 43.6154 193.757C42.4919 194.53 41.5326 195.504 40.6134 196.615C43.0005 199.779 45.7153 202.524 48.4992 205.492ZM82.8947 206.673C87.1442 206.673 91.3936 206.673 95.8817 206.673C94.2098 204.479 92.515 204.952 90.9339 206.027C90.386 205.189 91.3666 204.91 91.1454 204.307C90.3084 204.285 89.983 205.496 89.0563 205.176C88.3818 204.402 89.512 204.036 89.5742 203.168C89.0136 203.569 88.6551 203.825 88.2976 204.082C88.007 204.291 87.6937 204.533 87.3595 204.221C87.0163 203.902 87.2323 203.583 87.4697 203.303C87.5665 203.188 87.6961 203.101 87.7904 202.985C88.5044 202.107 87.6103 201.409 87.493 200.627C87.4363 200.248 87.0005 200.152 86.6234 200.238C85.8436 200.414 85.8536 201.074 85.8025 201.668C85.743 202.36 85.2635 202.502 84.7082 202.707C83.5762 203.125 82.5582 202.465 81.468 202.428C81.0174 203.251 81.0389 204.102 80.9465 204.948C80.8026 206.267 81.2733 206.855 82.8947 206.673ZM120.039 138.073C123.219 135.608 123.343 134.984 121.31 131.484C120.704 130.442 120.086 129.409 119.777 128.231C119.628 127.66 119.428 127.106 118.698 127.273C117.903 127.454 118.168 128.082 118.229 128.62C118.533 131.284 118.417 133.928 117.716 136.523C117.451 137.504 117.049 138.449 116.675 139.508C117.99 139.37 118.905 138.74 120.039 138.073ZM61.4018 142.765C61.0728 145.207 60.5928 147.621 59.9664 150.003C59.612 151.35 60.1889 151.843 61.5164 151.858C61.6834 151.379 61.8907 150.969 61.968 150.535C62.8134 145.79 63.5913 141.033 64.4954 136.299C64.8024 134.692 64.2571 133.525 63.1234 132.291C62.5521 135.794 62.0042 139.152 61.4018 142.765ZM131.997 139.264C132.834 139.564 133.922 139.123 134.604 140.109C133.898 140.924 132.966 140.247 132.093 140.643C134.633 141.143 137.018 140.902 139.4 140.559C140.02 140.469 140.124 139.974 140.212 139.45C140.598 137.144 138.828 134.491 136.314 133.635C136.401 134.353 137.473 134.884 136.898 135.664C136.306 136.466 135.342 136.173 134.512 136.019C133.367 135.807 132.232 135.539 130.889 135.252C132.15 136.404 134.031 135.781 135.081 137.392C133.264 138 131.752 136.96 130.146 137.065C131.512 138.021 133.375 137.471 134.998 138.748C133.291 139.52 131.939 138.693 130.618 138.954C131.003 139.039 131.388 139.124 131.997 139.264ZM179.153 203.176C178.835 204.182 177.988 205.053 178.307 206.277C178.52 206.264 178.702 206.31 178.8 206.239C182.123 203.835 184.795 200.751 187.599 197.804C187.825 197.566 187.902 197.231 187.643 196.989C186.972 196.363 186.508 195.469 185.351 195.149C184.857 197.747 181.958 197.212 180.502 198.594C181.116 199.433 182.065 198.752 182.388 199.621C182.131 200.614 181.031 199.911 180.54 200.471C180.91 200.932 181.854 200.55 181.883 201.44C181.584 202.073 180.979 201.995 180.449 202.008C179.778 202.025 179.46 202.411 179.153 203.176ZM108.577 123.078C108.077 123.036 107.576 122.946 107.079 122.962C105.859 123.003 104.031 125.546 104.659 126.511C105.25 127.421 105.224 128.259 104.95 129.497C107.751 128.043 110.526 127.283 113.457 126.491C112.533 124.255 110.791 123.541 108.577 123.078ZM61.3927 153.468C60.2077 152.368 60.0181 153.353 59.8385 154.234C58.5682 160.472 58.1515 166.858 56.5517 173.04C56.3303 173.896 56.6209 174.499 57.7415 174.43C59.3781 167.547 60.1784 160.572 61.3927 153.468ZM138.02 206.456C137.986 206.8 138.239 206.905 138.484 206.916C142.608 207.11 146.722 206.771 150.838 206.644C152.076 206.606 151.543 205.56 151.48 204.884C151.417 204.211 151.48 203.312 150.345 203.623C149.016 203.987 147.879 203.578 146.771 202.901C146.338 202.637 145.875 202.139 145.386 202.813C145.387 203.423 146.48 203.723 145.868 204.393C145.293 205.024 144.872 204 144.294 204.071C144.311 204.469 144.641 204.914 144.196 205.193C143.499 205.63 143.131 204.659 142.48 204.657C142.569 205.142 143.041 205.539 142.58 205.968C142.304 206.225 141.968 206.1 141.766 205.886C140.352 204.396 139.253 205.538 138.02 206.456ZM226.417 205.301C225.678 205.733 224.736 205.89 224.106 207.025C228.458 207.027 232.549 207.123 236.636 206.737C237.11 206.692 237.431 206.407 237.289 205.934C237.067 205.191 237.354 204.307 236.606 203.571C235.082 204.462 233.646 203.967 232.257 203.129C231.683 202.782 231.156 202.617 230.762 203.367C230.829 203.91 231.799 204.252 231.295 204.793C230.527 205.617 230.077 204.258 229.341 204.318C229.199 204.838 230.147 205.203 229.491 205.835C228.461 206.186 227.82 204.191 226.417 205.301ZM264.085 196.179C263.402 196.406 262.381 196.209 262.444 197.375C262.888 197.904 263.925 197.371 263.962 198.357C263.61 199.097 262.747 198.735 262.207 199.234C262.629 199.558 263.309 199.156 263.645 200.02C261.374 200.534 260.507 202.1 260.648 204.384C261.358 204.278 261.682 203.8 262.068 203.437C264.186 201.443 266.1 199.259 267.955 197.024C269.451 195.223 269.205 194.438 266.861 193.575C266.348 194.746 265.652 195.764 264.085 196.179ZM148.272 144.552C147.969 144.482 147.645 144.433 147.466 144.75C146.703 146.102 147.738 148.911 149.2 149.362C150.656 149.811 152.143 149.67 153.729 149.565C153.54 148.235 153.372 147.06 153.205 145.886C153.19 145.786 153.186 145.685 153.163 145.588C153.029 145.007 152.553 145.011 152.1 144.966C150.903 144.848 149.707 144.724 148.272 144.552ZM233.962 202.68C236.228 202.921 236.404 202.769 236.514 200.615C236.548 199.968 236.665 199.326 236.738 198.681C236.958 196.745 236.832 196.6 234.944 196.599C234.244 196.599 233.544 196.59 232.844 196.599C232.498 196.603 232.05 196.57 231.953 196.979C231.621 198.379 232.109 199.753 232.182 201.143C232.228 202.03 233.078 202.256 233.962 202.68ZM50.9271 191.584C50.1527 190.688 49.3783 189.793 48.4659 188.738C47.2212 190.354 46.2127 191.579 45.3044 192.874C44.7636 193.646 45.364 194.293 45.805 194.884C46.0876 195.263 46.5056 195.541 46.9605 195.167C47.7577 194.513 48.5766 194.477 49.4663 194.924C49.8371 195.11 50.124 194.94 50.4067 194.689C51.0682 194.102 51.7466 193.534 52.4906 192.896C51.8378 192.351 51.46 192.036 50.9271 191.584ZM108.479 120.92C107.465 121.906 108.6 121.808 109.035 121.929C111.316 122.564 113.446 123.385 114.453 125.794C114.707 126.402 115.177 126.391 115.708 126.259C116.342 126.102 116.49 125.66 116.337 125.11C116.162 124.483 115.979 123.847 115.697 123.264C113.522 118.761 113.315 118.42 108.479 120.92ZM81.5845 198.656C81.6531 199.152 81.7485 199.647 81.7847 200.145C81.8583 201.159 82.5061 201.488 83.3949 201.583C84.2681 201.676 84.6831 201.264 84.8238 200.429C84.9216 199.848 85.3102 199.428 85.854 199.217C87.3374 198.641 86.8457 197.351 86.753 196.366C86.6463 195.232 85.5625 195.849 84.9067 195.708C84.6672 195.656 84.4068 195.704 84.156 195.703C81.051 195.691 81.5557 195.546 81.5845 198.656ZM262.974 188.71C261.755 189.771 260.537 190.831 259.245 191.955C260.191 193.005 260.951 194.006 261.871 194.827C262.908 195.753 263.99 195.126 264.846 194.46C265.615 193.861 266.092 193.037 265.312 191.998C264.535 190.963 263.858 189.852 262.974 188.71ZM60.5573 170.946C61.5159 165.253 62.4746 159.561 63.4332 153.869C62.2345 154.783 58.8471 174.382 59.4401 175.225C60.2467 173.967 60.0902 172.498 60.5573 170.946ZM116.221 121.53C116.707 122.792 117.224 124.043 117.663 125.321C117.891 125.985 118.267 126.216 118.907 126.01C119.21 125.913 120.198 121.148 119.934 120.986C118.514 120.114 117.085 119.227 115.053 119.44C115.495 120.216 115.811 120.771 116.221 121.53ZM255.595 167.01C254.747 162.241 254.144 157.405 251.758 153.05C253.527 159.116 254.398 165.388 255.948 171.507C256.469 170.006 255.831 168.659 255.595 167.01ZM64.7702 146.509C65.3963 142.754 66.1283 139.014 66.5107 135.157C65.6315 135.229 65.6505 135.74 65.5908 136.163C64.8769 141.225 63.9724 146.253 62.9593 151.262C62.8684 151.711 62.6322 152.264 63.5351 152.57C64.167 150.662 64.2908 148.676 64.7702 146.509ZM87.3193 125.307C87.4626 128.102 86.3468 130.775 86.352 133.567C88.5123 133.632 88.6514 133.501 88.6253 131.667C88.6097 130.566 88.6724 129.46 88.5999 128.364C88.4794 126.543 88.4294 124.696 87.4814 123.025C87.4683 123.713 87.5166 124.392 87.3193 125.307ZM136.984 142.081C135.168 142.339 133.392 142.018 131.622 141.69C130.844 141.546 130.395 141.019 129.918 140.366C129.307 139.529 128.736 138.718 128.658 137.391C126.923 140.113 127.044 140.466 129.608 141.413C131.923 142.267 134.312 142.841 136.737 143.228C138.042 143.436 139.423 143.56 140.547 142.491C139.531 141.344 138.332 142.127 136.984 142.081ZM110.954 130.583C111.232 130.894 111.345 131.242 111.359 131.675C111.382 132.431 111.809 132.51 112.352 132.101C113.314 131.375 113.868 129.307 113.438 127.9C110.807 128.214 108.404 129.219 105.77 130.409C107.637 130.504 109.209 129.779 110.954 130.583ZM166.533 149.321C163.645 149.973 160.778 150.719 157.786 150.819C157.138 150.841 156.164 150.63 155.822 151.625C155.969 151.754 156.043 151.876 156.114 151.874C160.246 151.741 164.319 151.241 168.229 149.81C168.654 149.654 169.277 149.568 169.042 148.737C168.222 148.604 167.524 149.081 166.533 149.321ZM123.468 132.954C123.519 133.037 123.563 133.126 123.625 133.2C123.639 133.216 123.739 133.196 123.758 133.167C124.205 132.472 124.248 131.659 124.392 130.881C124.935 127.966 124.079 127.1 120.876 127.48C121.107 129.558 122.628 131.011 123.468 132.954ZM251.671 160.184C252.678 164.108 253.222 168.133 254.268 172.047C253.337 165.777 252.453 159.494 250.275 153.508C250.146 153.538 250.017 153.569 249.889 153.599C250.46 155.715 251.031 157.831 251.671 160.184ZM42.8743 201.152C41.8747 199.996 40.875 198.839 39.7237 197.507C39.8228 199.319 47.617 207.609 49.3768 208.049C47.2548 205.805 45.1329 203.561 42.8743 201.152ZM82.6029 207.777C82.1423 207.853 81.6053 207.575 80.8921 208.441C86.1573 208.706 91.0878 208.548 96.0207 208.297C91.6382 207.933 87.2376 208.198 82.6029 207.777ZM122.59 123.575C122.201 123.153 121.987 122.508 121.195 122.501C120.59 123.525 120.052 124.781 120.706 125.727C121.258 126.527 122.593 126.286 123.703 126.304C123.721 125.233 123.116 124.53 122.59 123.575ZM141.98 208.539C144.98 208.441 147.997 208.749 150.974 208.18C146.581 208.18 142.189 208.18 137.796 208.18C137.796 208.3 137.795 208.419 137.794 208.538C139.089 208.538 140.384 208.538 141.98 208.539ZM148.082 202.289C148.801 202.592 149.535 202.59 150.264 202.35C150.636 202.228 150.8 201.924 150.791 201.538C150.785 201.273 150.685 200.959 150.408 200.995C149.166 201.156 147.896 200.561 146.624 201.046C146.881 201.715 147.453 201.864 148.082 202.289ZM182.154 195.048C181.59 195.517 181.027 195.987 180.325 196.572C181.78 196.819 182.947 196.591 183.786 195.53C184.17 195.046 184.657 194.384 183.815 193.683C183.294 194.107 182.803 194.507 182.154 195.048ZM123.999 138.134C125.034 137.112 125.328 135.771 124.723 134.624C123.915 135.757 123.126 136.864 122.322 137.991C122.8 138.325 123.301 138.146 123.999 138.134ZM262.036 205.072C262.064 205.142 262.087 205.215 262.126 205.279C262.131 205.288 262.223 205.261 262.259 205.231C264.444 203.367 266.392 201.267 268.282 199.114C268.953 198.35 269.847 197.725 270.018 196.583C267.571 199.556 264.911 202.315 262.036 205.072ZM149.778 150.747C149.328 150.828 149.09 151.032 149.5 151.424C150.022 151.924 153.588 152.021 154.59 151.443C152.995 150.781 151.479 150.876 149.778 150.747ZM233.515 208.099C230.495 208.448 227.452 208.202 224.429 208.399C228.522 208.399 232.616 208.399 236.92 208.399C236.636 208.194 236.565 208.096 236.492 208.095C235.593 208.084 234.693 208.087 233.515 208.099ZM125.751 138.15C125.665 138.527 125.456 138.933 125.988 139.166C127.228 137.979 127.575 135.977 126.655 134.831C125.986 135.794 126.255 136.971 125.751 138.15ZM142.411 137.763C142.277 137.396 141.851 137.011 141.755 137.509C141.528 138.678 141.07 139.87 141.427 141.398C142.66 140.339 142.339 139.103 142.411 137.763ZM149.9 119.171C150.961 118.862 150.167 118.21 150.043 117.85C149.758 117.024 149.113 117.172 148.499 117.486C148.357 118.515 148.956 118.89 149.9 119.171ZM79.2874 124.059C80.4817 124.894 81.4913 124.84 82.2148 123.414C81.514 124.017 80.7736 124.43 79.832 123.989C79.0563 123.626 78.5753 122.883 77.7877 122.516C78.2291 122.989 78.6706 123.462 79.2874 124.059ZM68.0291 133.328C67.0263 133.754 66.0847 133.549 65.1798 132.964C66.3389 134.227 67.214 134.3 68.0291 133.328ZM129.468 134.743C128.292 134.807 128.292 134.807 128.636 136.144C129.266 135.966 129.363 135.431 129.468 134.743Z" fill="black"/>
<path d="M201.397 190.158C196.05 188.792 192.935 184.717 193.029 179.342C193.114 174.509 196.532 170.525 201.573 169.383C206.889 168.179 212.622 172.138 213.732 177.636C215.138 184.601 209.199 191.555 201.397 190.158ZM200.512 186.547C201.036 188.055 201.399 189.443 203.669 189.275C205.367 189.149 205.502 188.092 206.163 187.085C207.137 185.601 206.554 184.589 205.578 183.553C204.765 182.689 203.69 183.073 202.732 183.064C201.057 183.047 199.931 184.713 200.512 186.547ZM207.783 184.357C208.647 184.651 209.459 184.106 210.276 184.166C211.644 184.267 211.951 183.434 212.392 182.405C213.09 180.776 212.093 180.041 211.079 179.185C209.43 177.791 207.63 178.373 206.745 180.364C206.019 181.998 206.501 183.128 207.783 184.357ZM200.118 183.087C200.778 181.828 200.199 179.523 199.059 178.874C197.504 177.988 195.434 178.676 194.381 180.427C194.033 181.005 194.71 183.478 195.327 183.883C196.621 184.734 199.11 184.403 200.118 183.087ZM208.748 177.291C210.131 176.624 209.356 175.207 209.818 174.227C210.198 173.421 209.845 172.943 209.255 172.452C207.678 171.137 207.313 171.146 204.936 172.552C204.365 172.89 204.091 173.296 204.05 173.977C203.897 176.533 206.055 178.193 208.748 177.291ZM197.17 175.437C197.176 176.974 198.218 177.455 199.485 177.696C200.54 177.897 201.128 177.082 201.834 176.565C202.93 175.765 203.251 174.176 202.585 173.125C201.958 172.137 199.435 171.412 198.542 171.88C197.13 172.619 196.433 173.597 197.17 175.437Z" fill="black"/>
<path d="M41.3919 158.595C35.547 159.483 30.4397 155.495 29.5637 149.469C28.8169 144.332 32.8623 138.987 38.0749 138.223C43.9568 137.36 49.3219 141.165 50.1343 146.775C50.9739 152.573 47.166 157.795 41.3919 158.595ZM42.3465 150.728C42.5128 150.15 42.5706 149.508 42.867 149.008C43.5638 147.832 43.1479 147.186 41.93 146.652C39.6242 149.788 37.3482 152.884 35.0025 156.075C36.378 157.126 37.7506 157.424 39.2151 157.568C40.7401 157.718 41.5257 157.109 41.9006 155.625C42.2898 154.083 41.9797 152.514 42.3465 150.728ZM40.269 147.019C40.5314 146.492 41.3183 146.046 40.532 145.357C39.8242 144.736 39.3718 145.337 38.8402 145.69C38.2166 146.104 37.5847 146.531 36.9011 146.823C35.613 147.374 34.2644 147.784 32.9809 148.344C31.9984 148.772 30.9087 149.457 31.0733 150.601C31.3462 152.498 32.3479 154.104 34.0221 155.38C36.1315 152.551 38.1326 149.867 40.269 147.019ZM31.9178 143.772C31.1446 145.138 30.6857 146.579 30.8021 148.412C33.0793 146.339 36.4437 146.671 38.5103 144.269C36.9799 143.263 35.427 142.901 33.8515 142.593C32.9627 142.419 32.4173 142.837 31.9178 143.772ZM44.1376 156.559C44.9543 156.07 45.754 155.555 46.4039 154.849C46.7682 154.454 47.2557 154.086 47.0267 153.433C46.449 151.786 45.6384 150.285 44.2756 148.873C42.7671 151.538 43.6284 154.376 42.7231 156.88C43.2805 157.083 43.6001 156.795 44.1376 156.559ZM43.2457 145.068C43.1383 146.152 43.8432 147.091 44.5677 146.713C45.776 146.083 47.0582 145.802 48.5395 145.621C48.1419 143.96 47.3026 142.808 46.1259 141.649C45.1532 142.801 44.2627 143.856 43.2457 145.068ZM40.8537 139.363C40.6246 140.802 41.2213 142.25 40.6603 143.729C40.43 144.336 41.7945 144.878 42.3088 144.324C43.282 143.276 44.1684 142.147 45.1344 141C43.8478 139.961 42.5199 139.471 40.8537 139.363ZM37.3707 139.601C36.2142 139.985 35.0748 140.397 34.046 141.466C36.0791 141.779 37.7392 142.568 39.4574 143.18C40.2125 140.43 39.4778 139.117 37.3707 139.601ZM49.0741 149.447C49.1144 147.185 48.211 146.469 46.2514 147.212C45.508 147.494 45.165 147.906 45.7237 148.675C46.5669 149.835 47.333 151.047 47.9696 152.452C48.6784 151.547 48.7651 150.584 49.0741 149.447Z" fill="black"/>
<path d="M100.29 104.793C98.8385 104.041 98.2693 102.908 98.2725 101.417C98.284 96.0899 98.263 90.7629 98.2846 85.4361C98.294 83.1266 99.6248 81.7736 101.945 81.7675C110.538 81.7449 119.132 81.7435 127.725 81.7711C130.003 81.7784 131.332 83.1779 131.341 85.4929C131.361 90.669 131.356 95.8452 131.345 101.021C131.339 103.813 130.08 105.11 127.305 105.123C122.129 105.148 116.952 105.153 111.776 105.113C110.658 105.105 109.787 105.368 108.936 106.158C107.503 107.488 105.928 108.666 104.401 109.893C104.063 110.165 103.721 110.58 103.214 110.301C102.736 110.038 102.832 109.525 102.812 109.083C102.797 108.732 102.805 108.379 102.804 108.028C102.797 105.483 102.797 105.483 100.29 104.793ZM113.324 103.883C117.847 103.88 122.371 103.885 126.894 103.872C129.541 103.864 130.247 103.137 130.251 100.436C130.257 95.7113 130.255 90.987 130.247 86.2628C130.243 83.6882 129.41 82.8716 126.783 82.8713C118.594 82.8705 110.405 82.8748 102.216 82.8836C100.365 82.8856 99.3897 83.8784 99.3837 85.8108C99.3686 90.736 99.3775 95.6613 99.3791 100.587C99.3799 103.062 99.9549 103.729 102.407 103.873C103.475 103.935 103.97 104.33 103.91 105.434C103.857 106.41 103.899 107.392 103.899 108.592C105.388 107.778 106.372 106.838 107.32 105.911C108.939 104.328 110.772 103.565 113.324 103.883Z" fill="black"/>
<path d="M223.072 85.592C223.077 91.0094 223.087 96.2898 223.074 101.57C223.067 104.192 222.221 105.183 219.594 105.521C218.728 105.632 218.497 106.018 218.522 106.794C218.554 107.799 218.537 108.805 218.528 109.811C218.525 110.211 218.543 110.654 218.097 110.855C217.657 111.053 217.338 110.767 217.022 110.507C215.472 109.225 213.865 108.006 212.386 106.647C211.418 105.756 210.39 105.461 209.109 105.486C204.234 105.581 199.357 105.622 194.48 105.641C191.175 105.653 190.02 104.477 190.015 101.196C190.009 96.2677 190.007 91.3394 190.016 86.411C190.021 83.5435 191.198 82.336 194.004 82.3333C202.402 82.3254 210.801 82.3261 219.199 82.3333C221.614 82.3354 222.515 83.0787 223.072 85.592ZM201.725 83.4441C199.412 83.4442 197.098 83.4431 194.785 83.4448C191.799 83.447 191.109 84.1614 191.115 87.21C191.123 91.8365 191.126 96.463 191.124 101.089C191.123 103.548 191.912 104.381 194.327 104.387C199.154 104.399 203.983 104.467 208.809 104.363C210.627 104.324 212.105 104.664 213.428 105.991C214.519 107.085 215.834 107.956 217.292 109.12C217.292 107.806 217.29 106.907 217.292 106.007C217.294 104.924 217.722 104.384 218.92 104.366C221.232 104.331 221.969 103.555 221.981 101.241C222.006 96.3636 222.001 91.4855 221.973 86.6078C221.959 84.2455 221.128 83.4487 218.772 83.4456C213.191 83.438 207.609 83.4438 201.725 83.4441Z" fill="black"/>
<path d="M183.511 163.632C183.505 165.755 182.528 166.832 180.815 166.726C179.39 166.638 178.404 165.405 178.557 163.905C178.705 162.451 180.043 161.441 181.615 161.804C182.435 161.993 182.932 161.778 183.492 161.278C186.413 158.665 189.347 156.065 192.294 153.48C192.884 152.962 193.321 152.522 193.095 151.588C192.87 150.655 193.283 149.744 194.158 149.283C194.954 148.864 195.145 148.296 195.174 147.467C195.25 145.311 195.385 143.154 195.559 141.003C195.612 140.348 195.533 139.911 194.978 139.449C193.682 138.37 193.575 136.676 194.62 135.631C195.669 134.582 197.263 134.636 198.228 135.752C199.288 136.979 199.133 138.523 197.703 139.528C197.036 139.996 196.811 140.498 196.771 141.258C196.655 143.464 196.476 145.666 196.321 147.87C196.311 148.02 196.233 148.257 196.299 148.307C197.592 149.289 197.6 151.349 199.307 151.954C204.135 153.667 208.978 155.336 213.802 157.061C214.562 157.332 215.14 157.403 215.881 156.896C217.185 156.003 218.782 156.463 219.475 157.767C220.149 159.036 219.642 160.62 218.364 161.239C217.022 161.889 215.521 161.294 214.987 159.728C214.691 158.858 214.223 158.437 213.395 158.151C208.602 156.492 203.822 154.795 199.043 153.095C198.385 152.861 197.801 152.755 197.238 153.309C196.779 153.761 196.104 153.975 195.561 153.811C194.216 153.403 193.431 154.122 192.547 154.915C189.78 157.397 186.96 159.821 184.167 162.275C183.796 162.601 183.356 162.911 183.511 163.632ZM194.562 152.131C195.204 152.788 195.878 152.845 196.505 152.149C196.895 151.715 197.065 151.191 196.64 150.652C196.259 150.168 195.739 149.943 195.181 150.185C194.412 150.519 193.971 151.081 194.562 152.131ZM180.368 165.356C181.169 165.845 181.746 165.473 182.099 164.784C182.359 164.276 182.302 163.689 181.778 163.29C181.287 162.916 180.744 162.831 180.26 163.257C179.562 163.872 179.591 164.553 180.368 165.356ZM217.763 157.797C217.017 157.508 216.513 157.82 216.127 158.446C215.85 158.896 215.917 159.316 216.252 159.687C216.751 160.243 217.381 160.435 217.98 159.937C218.749 159.295 218.707 158.569 217.763 157.797ZM196.55 136.199C195.701 136.143 195.195 136.566 195.107 137.379C195.038 138.015 195.477 138.401 196.045 138.571C196.65 138.753 197.18 138.523 197.424 137.963C197.743 137.231 197.587 136.588 196.55 136.199Z" fill="black"/>
<path d="M170.56 84.6654C171.719 83.6916 171.494 82.3101 171.907 81.1569C172.244 80.214 171.999 79.0453 173.002 78.2402C173.923 79.1125 173.914 80.2687 174.125 81.2921C174.816 84.66 174.782 84.6692 178.095 85.3543C178.734 85.4864 179.384 85.5688 180.018 85.7217C180.487 85.8349 181.145 85.8524 181.18 86.4792C181.219 87.1786 180.515 87.124 180.067 87.2308C178.896 87.5102 177.719 87.7761 176.531 87.9666C175.392 88.1494 174.738 88.7414 174.514 89.8756C174.251 91.2036 173.933 92.5208 173.646 93.8439C173.56 94.2389 173.498 94.6412 172.92 94.759C172.016 94.0298 172.035 92.87 171.953 91.9097C171.721 89.1992 170.513 87.7446 167.679 87.5779C166.725 87.5218 165.559 87.4851 164.534 86.3458C166.489 85.329 168.573 85.3277 170.56 84.6654ZM173.48 84.0711C173.346 83.5302 173.212 82.9893 173.078 82.4484C172.773 84.9504 171.317 86.1746 168.862 86.5003C171.378 86.851 172.812 88.1091 172.86 90.7465C173.478 89.6774 173.37 88.4624 174.208 87.6728C175.009 86.9183 176.178 86.9609 177.208 86.4517C175.774 85.9347 174.126 86.0015 173.48 84.0711Z" fill="black"/>
<path d="M179.768 117.193C178.351 116.657 176.836 116.748 175.521 115.831C176.421 114.823 177.526 114.78 178.514 114.601C179.897 114.35 180.65 113.694 180.765 112.249C180.828 111.458 181.097 110.682 181.287 109.902C181.373 109.547 181.518 109.212 181.973 109.25C182.33 109.279 182.449 109.575 182.551 109.863C182.584 109.957 182.615 110.058 182.617 110.156C182.669 113.162 184.053 114.896 187.188 115.024C187.555 115.038 188.053 115.167 188.09 115.671C188.136 116.312 187.559 116.388 187.147 116.403C184.106 116.511 182.718 118.163 182.623 121.1C182.609 121.503 182.458 121.936 181.954 121.966C181.43 121.997 181.357 121.541 181.217 121.164C180.737 119.869 180.916 118.348 179.768 117.193ZM182.245 114.03C182.078 113.762 182.302 113.312 181.775 113.138C181.742 114.551 180.809 115.222 179.577 115.713C181.038 115.946 181.432 117.1 182.021 118.508C182.197 116.775 183.129 116.116 184.519 115.629C183.458 115.298 182.706 115.016 182.245 114.03Z" fill="black"/>
<path d="M59.0491 107.926C60.3482 108.368 61.6872 108.354 62.8757 109.143C62.1366 110.208 61.0972 110.142 60.225 110.26C58.6835 110.47 57.789 111.133 57.5572 112.756C57.4227 113.698 57.4018 114.749 56.7051 115.541C55.7492 115.331 55.764 114.581 55.7098 113.985C55.4881 111.545 54.2843 110.162 51.7575 110.037C51.2258 110.01 50.6426 109.941 50.3018 109.288C50.634 108.331 51.6206 108.454 52.2939 108.377C54.3518 108.142 55.4105 107.16 55.5791 105.055C55.6368 104.334 55.5916 103.415 56.4608 102.854C57.4622 103.338 57.1375 104.395 57.428 105.163C57.8014 106.15 57.6019 107.439 59.0491 107.926ZM57.2918 108.292C56.8592 107.906 56.7657 107.347 56.4451 106.514C56.2307 108.27 55.1912 108.937 53.8 109.319C55.3205 109.542 56.1408 110.413 56.6168 112.062C56.8264 110.317 57.6719 109.586 59.2149 109.378C58.474 108.984 57.9616 108.712 57.2918 108.292Z" fill="black"/>
<path d="M278.462 177.486C278.916 177.605 279.261 177.675 279.595 177.779C279.898 177.873 280.142 178.056 280.119 178.417C280.097 178.776 279.814 178.925 279.524 179.011C279.141 179.125 278.747 179.253 278.353 179.271C276.19 179.371 275.118 180.527 274.993 182.645C274.985 182.794 274.984 182.964 274.913 183.086C274.639 183.559 274.931 184.518 274.07 184.451C273.328 184.394 273.437 183.551 273.284 182.997C273.218 182.755 273.125 182.512 273.111 182.266C273.011 180.414 272.047 179.509 270.196 179.332C269.47 179.263 268.555 179.262 268.098 178.321C268.61 177.453 269.571 177.5 270.327 177.379C272.072 177.098 273.014 176.253 273.078 174.443C273.097 173.903 273.299 173.364 273.455 172.836C273.542 172.541 273.733 172.284 274.089 172.289C274.446 172.293 274.608 172.541 274.69 172.855C274.792 173.243 274.947 173.626 274.981 174.02C275.163 176.099 276.15 177.362 278.462 177.486ZM274.395 176.503C274.322 176.319 274.25 176.135 274.093 175.737C273.774 177.213 272.912 177.99 271.609 178.423C273.055 178.679 273.767 179.595 274.191 181.336C274.367 179.411 275.261 178.682 276.677 178.409C275.705 178.011 274.774 177.737 274.395 176.503Z" fill="black"/>
<path d="M271.64 127.272C271.305 127.918 270.932 127.953 270.564 127.47C270.419 127.281 270.32 127.013 270.308 126.775C270.186 124.391 269.137 122.942 266.569 122.896C266.152 122.888 265.67 122.702 265.537 122.081C266.057 121.303 266.981 121.307 267.764 121.164C269.138 120.911 269.845 120.241 270.046 118.811C270.159 118.006 269.968 116.572 271.018 116.576C272.058 116.581 271.81 118.003 271.972 118.814C272.242 120.167 272.853 120.937 274.294 121.139C275.113 121.254 276.092 121.296 276.684 122.199C276.17 122.963 275.364 122.986 274.659 123.056C272.933 123.229 272.041 124.1 271.965 125.844C271.945 126.288 271.771 126.724 271.64 127.272ZM272.029 122.658C272.316 122.494 272.603 122.329 273.028 122.085C271.996 121.751 271.413 121.112 270.978 119.875C270.691 121.22 270.002 121.773 268.87 122.172C270.238 122.439 270.722 123.257 271.013 124.562C271.303 123.697 271.416 123.142 272.029 122.658Z" fill="black"/>
<path d="M44.706 127.797C46.3735 123.558 48.424 119.655 50.9954 116.033C51.2937 115.612 51.5733 114.837 52.213 115.235C52.904 115.664 52.2596 116.229 51.9823 116.635C48.4432 121.821 45.7476 127.398 44.0881 133.465C43.9636 133.92 43.9239 134.492 42.8545 134.692C42.8608 132.19 43.9764 130.092 44.706 127.797Z" fill="black"/>
<path d="M43.7403 169.288C43.0997 167.833 43.5596 166.808 44.7978 166.196C45.9601 165.622 46.9776 166.061 47.6352 167.107C48.3235 168.201 48.0486 169.236 47.0637 170.026C46.0576 170.833 44.9682 170.594 43.7403 169.288ZM45.7 169.223C46.4118 169.118 46.7578 168.704 46.6463 167.993C46.5772 167.552 46.237 167.333 45.8019 167.292C45.3686 167.252 44.9926 167.401 44.8289 167.812C44.5628 168.481 44.7874 168.966 45.7 169.223Z" fill="black"/>
<path d="M167.287 111.035C166.392 110.806 165.608 110.634 164.838 110.412C164.548 110.328 164.296 110.112 164.385 109.739C164.453 109.455 164.692 109.296 164.949 109.35C168.372 110.075 171.804 110.778 174.92 112.48C174.978 112.512 174.971 112.664 174.997 112.774C174.564 113.581 173.965 113.119 173.443 112.935C171.455 112.235 169.461 111.554 167.287 111.035Z" fill="black"/>
<path d="M268.443 99.9197C267.405 100.48 266.494 100.487 265.697 99.7351C265.036 99.1122 264.71 98.3348 265.011 97.4188C265.303 96.5306 265.894 95.9971 266.871 95.914C267.867 95.8293 268.661 96.1164 269.141 97.0314C269.717 98.1279 269.45 99.0628 268.443 99.9197ZM266.37 98.6907C266.871 99.1935 267.41 99.2849 267.925 98.7473C268.274 98.382 268.256 97.9289 267.989 97.512C267.714 97.0834 267.275 96.9208 266.821 97.0938C266.156 97.3473 265.94 97.8529 266.37 98.6907Z" fill="black"/>
<path d="M168.459 91.8636C167.773 92.3771 167.166 93.6333 166.52 92.9817C165.683 92.1382 167.058 91.6167 167.55 91.0562C168.01 90.5325 168.452 89.6166 169.478 90.1523C169.633 91.0124 168.924 91.3053 168.459 91.8636Z" fill="black"/>
<path d="M177.734 80.9568C178.329 80.4842 178.632 79.7055 179.499 79.9177C179.545 80.758 177.781 83.0354 177.06 83.0286C176.371 83.022 176.363 82.5392 176.642 82.1133C176.908 81.7063 177.312 81.3892 177.734 80.9568Z" fill="black"/>
<path d="M179.712 92.6712C179.577 92.8989 179.432 93.1464 179.305 93.1371C178.39 93.07 176.761 91.1947 176.632 89.8921C178.118 90.3932 178.923 91.4714 179.712 92.6712Z" fill="black"/>
<path d="M166.859 81.2252C166.526 80.8135 166.061 80.546 166.401 80.0122C167.255 80.0562 169.38 81.6857 169.493 82.4042C169.519 82.5737 169.467 82.8219 169.353 82.9336C169.092 83.188 168.786 83.0706 168.555 82.8575C168.005 82.3506 167.474 81.8219 166.859 81.2252Z" fill="black"/>
<path d="M155.69 105.385C155.391 106.104 155 106.785 154.624 107.439C153.965 107.384 154.036 106.893 153.881 106.443C154.301 105.772 154.643 105.021 155.69 105.385Z" fill="black"/>
<path d="M106.088 186.105C105.273 185.392 105.005 184.551 104.916 183.622C104.049 174.588 110.321 166.348 119.274 164.719C121.164 164.375 123.04 164.175 124.956 164.451C127.357 164.798 128.402 165.812 128.623 168.094C129.495 177.083 122.392 185.839 113.377 186.955C110.899 187.262 108.475 187.407 106.088 186.105ZM123.714 179.751C124.909 178.308 125.828 176.709 126.478 174.95C126.784 174.123 126.675 173.444 126.1 172.728C124.305 170.494 122.323 168.437 120.36 166.359C119.918 165.892 119.485 165.837 118.881 166C113.043 167.578 109.015 171.139 106.864 176.814C106.564 177.606 106.614 178.225 107.209 178.868C108.979 180.782 110.741 182.706 112.435 184.686C113.258 185.648 114.13 185.721 115.249 185.357C118.522 184.292 121.325 182.533 123.714 179.751ZM126.438 171.211C126.659 171.381 126.778 171.733 127.229 171.597C127.599 169.792 128.087 167.788 126.621 166.378C125.374 165.179 123.528 165.452 121.495 165.608C123.285 167.641 124.794 169.355 126.438 171.211ZM109.969 183.843C108.775 182.499 107.581 181.156 106.278 179.69C105.191 184.722 107.034 186.727 111.518 185.698C111.239 184.965 110.554 184.58 109.969 183.843Z" fill="black"/>
<path d="M131.818 187.549C131.975 188.044 132.154 188.43 132.161 188.82C132.184 190.197 133.001 190.727 134.219 190.948C134.827 191.058 135.546 191.066 135.805 191.838C135.591 192.505 134.991 192.614 134.477 192.659C132.914 192.799 132.203 193.681 132.018 195.158C131.961 195.622 132 196.274 131.304 196.299C130.606 196.323 130.581 195.691 130.527 195.216C130.35 193.666 129.575 192.775 127.968 192.619C127.503 192.574 126.98 192.422 126.771 191.964C126.773 191.416 127.123 191.255 127.458 191.206C129.337 190.932 130.399 189.929 130.573 187.985C130.635 187.282 130.991 186.803 131.818 187.549ZM130.908 192.39C131.565 192.801 131.716 192.117 132.09 191.895C131.934 191.455 131.652 191.206 131.166 190.99C131.025 191.428 129.9 191.463 130.908 192.39Z" fill="black"/>
<path d="M86.0119 110.996C87.2194 111.482 86.7566 112.091 86.2121 112.596C85.4889 113.266 84.6116 113.359 83.7096 112.963C82.777 112.554 82.1854 111.826 82.042 110.827C81.9357 110.085 82.3811 109.834 83.0651 110.046C84.0151 110.34 84.9566 110.661 86.0119 110.996Z" fill="black"/>
<path d="M86.9653 109.336C86.2135 109.999 85.5399 110.157 84.6641 109.267C87.1074 108.832 85.2001 106.786 86.3456 105.58C86.9788 106.842 87.2204 107.986 86.9653 109.336Z" fill="black"/>
<path d="M84.4607 104.186C83.4533 104.167 82.5605 104.116 81.4639 104.054C82.2299 102.81 83.1671 102.981 84.0591 103.159C84.549 103.257 85.1007 103.464 84.4607 104.186Z" fill="black"/>
<path d="M77.3044 106.352C77.2244 107.154 76.9387 107.449 76.3939 106.814C76.0189 106.377 75.7459 105.853 75.376 105.29C76.5832 104.657 76.8938 105.534 77.3044 106.352Z" fill="black"/>
<path d="M238.291 118.187C236.773 119.6 235.347 119.664 234.319 118.452C234.027 118.107 233.709 117.738 233.904 117.247C234.078 116.809 234.517 116.799 234.918 116.745C235.661 116.644 236.401 116.523 237.143 116.416C237.619 116.347 238.158 115.974 238.555 116.436C239.039 116.998 238.632 117.56 238.291 118.187Z" fill="black"/>
<path d="M235.25 114.494C235.472 114.916 235.986 115.038 235.876 115.605C235.132 116.032 234.355 115.824 234.15 115.135C233.792 113.931 234.265 112.801 235.023 111.651C235.883 112.693 235.059 113.557 235.25 114.494Z" fill="black"/>
<path d="M237.021 109.796C238.255 109.377 239.284 109.381 240.146 110.651C239.003 110.651 238.094 110.698 237.193 110.631C236.747 110.598 236.67 110.238 237.021 109.796Z" fill="black"/>
<path d="M243.526 112.608C244.105 112.511 244.638 111.801 245.335 112.56C244.926 113.178 244.437 113.713 243.86 114.151C243.143 113.811 243.436 113.293 243.488 112.737C243.499 112.636 243.517 112.618 243.526 112.608Z" fill="black"/>
<path d="M149.002 110.207C149.658 109.987 150.188 110.039 150.166 110.74C150.132 111.852 149.664 112.779 148.557 113.219C147.528 113.628 146.592 113.468 145.838 112.617C145.258 111.963 145.361 111.457 146.217 111.165C147.112 110.859 148.008 110.557 149.002 110.207Z" fill="black"/>
<path d="M146.181 106.537C146.57 107.655 145.512 109.092 147.248 109.612C146.866 110.412 146.354 110.318 145.818 110.061C145.172 109.751 144.945 109.131 145.157 108.553C145.419 107.839 144.694 106.639 146.181 106.537Z" fill="black"/>
<path d="M150.011 104.249C149.211 105.36 148.121 104.599 147.021 105.11C147.643 103.649 148.409 103.477 150.011 104.249Z" fill="black"/>
<path d="M116.234 100.81C114.895 100.716 113.676 100.781 112.527 100.329C112.176 100.192 111.891 100.216 111.556 100.459C110.523 101.211 109.325 100.894 108.197 100.825C107.374 100.774 107.03 100.146 107.032 99.332C107.038 97.321 107.045 95.3099 107.03 93.299C107.023 92.2868 107.571 91.8407 108.506 91.7693C108.906 91.7388 109.32 91.8138 109.71 91.7441C110.526 91.5983 111.432 92.4365 112.146 91.6383C113.151 90.5159 114.138 89.3386 114.255 87.7348C114.331 86.7018 114.529 85.7046 115.793 85.7506C117.025 85.7953 117.651 86.7044 117.762 87.8603C117.856 88.8495 117.781 89.8549 117.781 90.9422C118.633 91.2666 119.592 91.0368 120.526 91.0964C122.093 91.1964 122.528 91.8392 122.543 93.415C122.56 95.2366 122.084 96.9299 121.708 98.6734C121.397 100.121 120.636 100.755 119.24 100.783C118.285 100.802 117.33 100.803 116.234 100.81ZM120.809 94.2261C120.414 93.5072 121.549 93.3058 121.342 92.6505C120.558 92.1897 120.558 92.1897 118.514 92.1898C116.054 92.1898 116.077 92.1941 116.544 89.7269C116.722 88.788 117.016 87.7519 115.786 87.0912C115.641 87.3102 115.454 87.4629 115.446 87.6246C115.332 89.9045 113.904 91.4833 112.534 93.0811C111.883 93.8406 111.388 97.8286 111.94 98.6313C112.072 98.8236 112.303 98.9935 112.525 99.0716C115.049 99.9598 117.594 99.4832 120.478 99.4588C119.572 98.2073 120.129 97.6139 120.855 97.1526C120.417 96.2117 120.404 96.2026 120.997 95.3418C121.243 94.9842 121.182 94.6946 120.809 94.2261ZM108.411 99.4218C110.404 99.8707 110.639 99.7019 110.653 97.7681C110.662 96.5176 110.642 95.2669 110.65 94.0164C110.655 93.218 110.198 92.9851 109.493 92.9983C108.804 93.0113 108.134 93.0497 108.145 93.9854C108.165 95.7315 107.999 97.4818 108.411 99.4218Z" fill="black"/>
<path d="M200.18 90.4882C202.113 87.2758 205.423 85.9849 208.746 87.0681C212.1 88.1614 214.043 91.1594 213.721 94.745C213.415 98.1428 210.766 100.888 207.204 101.171C201.27 101.643 197.64 95.5587 200.18 90.4882ZM204.353 88.3099C203.871 88.5781 203.36 88.8047 202.912 89.1212C200.373 90.9161 199.779 94.6113 201.573 97.3261C203.344 100.005 206.86 100.837 209.541 99.2108C212.318 97.5271 213.331 94.322 212.02 91.3735C210.767 88.5556 207.839 87.3167 204.353 88.3099Z" fill="black"/>
<path d="M111.302 178.438C111.03 178.022 110.661 177.672 111.054 177.293C111.431 176.929 111.793 177.228 112.11 177.489C112.461 177.779 112.798 178.14 113.277 177.696C113.747 177.262 113.478 176.906 113.17 176.532C112.949 176.264 112.678 175.943 112.979 175.598C113.358 175.162 113.699 175.483 114.007 175.748C114.375 176.065 114.742 176.31 115.185 175.873C115.5 175.562 115.422 175.256 115.187 174.935C114.904 174.549 114.358 174.105 114.989 173.68C115.556 173.297 115.835 173.988 116.213 174.263C116.333 174.35 116.464 174.421 116.6 174.506C117.499 174.152 117.65 173.661 116.963 172.941C116.667 172.63 116.486 172.226 116.919 171.901C117.28 171.63 117.581 171.911 117.832 172.165C118.153 172.491 118.438 172.886 118.962 172.474C119.579 171.988 119.146 171.612 118.845 171.214C118.627 170.926 118.41 170.606 118.734 170.278C119.035 169.973 119.47 170.023 119.67 170.32C120.197 171.106 121.02 170.761 121.818 170.915C121.693 171.755 121.499 172.579 122.208 173.244C122.428 173.451 122.365 173.825 122.076 174.038C121.836 174.214 121.607 174.094 121.387 173.95C120.948 173.662 120.703 172.728 119.955 173.412C119.252 174.056 120.089 174.458 120.306 174.948C120.415 175.194 120.465 175.417 120.3 175.689C119.639 176.126 119.35 175.47 118.955 175.162C118.579 174.869 118.247 174.839 117.885 175.175C117.484 175.547 117.641 175.86 117.925 176.214C118.214 176.576 118.839 176.961 118.305 177.462C117.793 177.941 117.407 177.355 117.054 177.031C116.698 176.705 116.365 176.648 116.002 176.999C115.66 177.33 115.838 177.63 116.052 177.933C116.336 178.333 116.753 178.713 116.299 179.243C115.811 179.452 115.534 179.122 115.24 178.856C114.899 178.547 114.577 178.169 114.101 178.65C113.737 179.018 113.893 179.36 114.136 179.727C114.395 180.12 114.933 180.574 114.356 181.016C113.878 181.382 113.489 180.874 113.264 180.52C112.762 179.732 112.046 180.498 111.521 180.246C110.986 179.68 111.87 179.047 111.302 178.438Z" fill="black"/>
<path d="M208.764 96.9969C206.84 97.9242 205.045 97.8021 203.883 96.7264C203.587 96.4518 203.21 96.1371 203.502 95.7148C203.814 95.2627 204.215 95.5442 204.545 95.7848C205.716 96.6384 206.904 96.816 208.165 95.9575C208.549 95.6954 209.034 95.1604 209.451 95.7537C209.84 96.3072 209.246 96.6281 208.764 96.9969Z" fill="black"/>
<path d="M203.777 93.3336C202.7 93.8698 202.642 93.1945 202.826 92.551C203.061 91.7339 203.702 91.2735 204.568 91.5629C205.519 91.8804 205.854 92.5653 205.529 93.4144C204.776 93.9344 204.497 92.5221 203.777 93.3336Z" fill="black"/>
<path d="M207.338 92.7265C207.783 91.619 208.505 91.1958 209.499 91.7297C210.24 92.1276 210.495 92.787 209.951 93.6232C209.282 93.5227 208.754 92.618 208.002 93.5073C207.735 93.8236 207.364 93.2742 207.338 92.7265Z" fill="black"/>
<defs>
<linearGradient id="paint0_linear_332_3228" x1="154.5" y1="2.65299e-08" x2="154.827" y2="145.103" gradientUnits="userSpaceOnUse">
<stop stop-color="#3EA7FD"/>
<stop offset="1" stop-color="white"/>
</linearGradient>
</defs>
</svg>
