<svg width="309" height="227" viewBox="0 0 309 227" fill="none" xmlns="http://www.w3.org/2000/svg">
<path d="M154.5 0C239.828 0 309 65.1426 309 145.5C309 175.699 299.23 203.749 282.506 227H26.4941C9.76957 203.749 0 175.699 0 145.5C0 65.1426 69.172 0 154.5 0Z" fill="url(#paint0_linear_332_3288)"/>
<path d="M120.632 157.651C121.804 158.821 122.901 159.917 124.193 161.209C124.833 159.699 126.874 159.052 125.989 156.952C125.848 156.617 126.183 156.304 126.383 156.014C128.952 152.291 131.524 148.568 134.085 144.838C136.593 141.186 140.382 139.315 144.225 137.516C145.181 137.068 146.132 136.602 147.119 136.234C147.946 135.926 148.179 135.391 148.018 134.593C147.989 134.445 147.918 134.299 147.92 134.153C147.982 130.919 146.55 129.132 143.488 127.623C139.212 125.514 136.474 121.517 134.674 117.08C133.743 114.784 133.751 112.442 135.631 110.469C136.024 110.056 136.013 109.584 135.957 109.064C135.639 106.114 137.024 104.064 139.437 102.574C139.692 102.416 139.963 102.252 140.249 102.179C143.372 101.378 145.77 99.6308 147.889 97.1631C149.917 94.8021 152.446 94.9006 155.015 96.8464C156.676 95.7227 157.528 95.7217 159.008 97.0186C160.782 98.5723 161.461 100.56 160.875 102.853C160.66 103.693 160.657 104.375 161.059 105.145C161.701 106.373 161.996 107.712 161.705 109.088C161.53 109.915 161.894 110.553 162.17 111.245C163.547 114.698 165.059 118.127 165.124 121.926C165.175 124.921 164.251 127.472 161.375 128.949C160.102 129.603 161.069 130.523 161.155 131.311C161.266 132.325 162.043 132.247 162.763 132.1C167.289 131.175 171.813 130.246 176.333 129.297C177.758 128.998 179.166 128.625 180.586 128.305C181.163 128.175 181.775 127.917 182.292 128.445C182.671 128.831 183.048 128.589 183.409 128.471C186.714 127.39 189.882 126.111 192.672 123.895C196.93 120.514 201.713 117.89 206.286 114.965C207.24 114.354 207.812 113.657 208.03 112.512C208.64 109.296 210.847 106.751 211.874 103.697C212.048 103.181 212.578 102.985 213.127 103.06C213.73 103.143 214.077 103.549 214.333 104.082C214.937 105.337 214.313 106.551 214.243 107.782C214.232 107.972 214.206 108.161 214.176 108.469C215.54 108.184 216.491 107.335 217.554 106.729C218.95 105.932 220.282 105.021 221.693 104.254C222.411 103.864 223.275 103.721 223.938 104.406C224.653 105.146 224.179 105.867 223.645 106.635C224.945 106.335 226.21 105.193 227.291 106.629C228.046 107.632 227.119 108.265 226.4 109.024C227.252 109.285 228.07 109.635 227.842 110.696C227.64 111.633 226.746 111.941 226.056 112.406C227.16 114.294 227.037 115.001 224.935 115.76C221.069 117.155 217.662 119.705 213.475 120.281C212.779 120.377 212.409 121.005 211.953 121.46C206.965 126.428 202.014 131.442 196.312 135.612C193.632 137.571 190.668 139.097 187.775 140.72C186.886 141.219 186.32 141.741 186.675 142.852C186.969 143.773 186.221 144.084 185.619 144.43C182.787 146.058 179.959 147.697 177.1 149.278C176.244 149.752 175.872 150.304 175.996 151.317C176.491 155.351 176.938 159.391 177.374 163.432C177.945 168.718 178.482 174.009 179.046 179.296C179.19 180.642 179.404 181.98 179.542 183.326C179.642 184.299 179.948 185.336 178.776 185.99C178.317 186.246 178.425 186.785 178.511 187.233C179.791 193.886 181.094 200.536 182.342 207.196C182.542 208.263 183.064 208.621 184.086 208.589C185.543 208.544 187.002 208.583 188.461 208.583C217.025 208.582 245.59 208.578 274.154 208.594C275.004 208.594 275.969 208.302 276.672 209.112C276.551 209.964 275.915 209.849 275.395 209.857C273.987 209.879 272.579 209.864 271.171 209.864C192.417 209.866 113.664 209.869 34.9103 209.863C34.2433 209.863 33.4765 210.088 32.9717 209.287C33.2969 208.39 34.1004 208.609 34.7401 208.605C39.4672 208.578 44.1952 208.536 48.9212 208.61C50.3958 208.632 51.3882 208.197 52.4202 207.082C59.3855 199.553 66.4482 192.115 73.4736 184.642C73.7738 184.323 74.2062 184.087 74.2592 183.545C74.0035 182.97 73.3717 182.792 72.9326 182.4C72.2008 181.745 72.2184 181.154 73.1863 180.863C74.7721 180.387 76.3836 179.99 77.9963 179.611C78.8862 179.402 79.2259 179.88 79.0571 180.716C78.7488 182.242 78.4208 183.764 78.0642 185.279C77.9555 185.741 77.9547 186.364 77.3154 186.458C76.7717 186.538 76.5888 186.009 76.3058 185.673C76.0207 185.334 75.8613 184.872 75.1304 184.64C67.8193 192.403 60.4333 200.247 53.0558 208.081C53.5381 208.811 54.1476 208.577 54.6492 208.578C60.7342 208.595 66.8193 208.568 72.9042 208.6C73.9428 208.605 74.7035 208.295 75.4125 207.527C78.3417 204.357 81.3203 201.232 84.2507 198.123C83.933 197.017 82.5935 196.939 82.402 195.768C83.3819 194.857 84.7397 194.857 85.9518 194.53C89.4681 193.584 89.4868 193.622 88.6461 197.159C88.4489 197.99 88.2888 198.829 88.08 199.656C87.9612 200.126 87.9668 200.748 87.3579 200.868C86.8301 200.972 86.6097 200.455 86.3263 200.113C86.0425 199.771 85.7541 199.433 85.3504 198.954C82.1007 201.895 79.4094 205.226 76.3294 208.298C77.1207 208.73 77.7825 208.573 78.4133 208.573C89.829 208.584 101.245 208.563 112.66 208.604C114.022 208.608 114.985 208.247 115.922 207.192C119.559 203.094 123.306 199.095 127.008 195.054C127.344 194.687 127.646 194.289 127.991 193.872C127.248 192.555 125.423 192.382 124.92 190.838C125.8 190 126.951 189.934 127.973 189.601C129.549 189.089 131.157 188.678 132.749 188.216C133.636 187.958 134.186 188.148 133.978 189.198C133.489 191.659 132.977 194.116 132.442 196.568C132.363 196.932 132.284 197.411 131.776 197.475C131.299 197.536 131.084 197.151 130.838 196.832C130.321 196.161 129.87 195.43 128.953 194.76C124.829 199.248 120.704 203.737 116.566 208.24C117.015 208.769 117.555 208.578 118.018 208.579C124.757 208.592 131.496 208.557 138.235 208.607C139.564 208.616 140.042 208.155 140.27 206.845C141.13 201.902 142.125 196.983 143.085 192.057C143.231 191.309 143.435 190.595 142.807 189.938C142.473 189.587 142.549 189.1 142.569 188.642C142.897 180.988 142.447 173.382 141.105 165.835C141.019 165.347 140.887 164.867 140.721 164.144C139.841 165.195 139.089 166.103 138.325 167.001C137.931 167.465 137.48 168.034 136.814 167.695C135.591 167.074 134.986 167.797 134.347 168.622C132.925 170.457 131.282 172.088 129.572 173.646C125.835 177.051 122.303 176.917 118.71 173.412C114.737 169.535 112.191 164.724 109.944 159.789C108.45 156.51 106.478 154.446 102.958 153.08C97.8869 151.113 94.351 147.129 92.5508 141.835C92.2549 140.964 92.0353 140.093 92.626 139.235C93.0483 138.622 92.6248 138.069 92.4183 137.528C90.8142 133.324 90.5998 129 91.3987 124.622C92.1711 120.39 94.2907 119.003 98.4758 119.845C98.9681 119.944 99.463 120.046 99.9417 120.195C109.52 123.171 115.331 129.518 117.044 139.457C117.429 141.687 117.396 143.966 117.052 146.211C116.761 148.113 116.264 149.96 114.633 151.515C116.651 153.58 118.604 155.578 120.632 157.651ZM175.53 158.028C175.052 153.994 174.564 149.962 174.107 145.925C174.051 145.432 173.774 144.664 174.599 144.598C175.26 144.545 175.199 145.298 175.314 145.747C175.54 146.635 175.256 147.64 175.913 148.511C178.903 146.835 181.833 145.19 184.767 143.55C185.4 143.197 185.475 142.724 185.32 142.03C184.435 138.05 183.189 134.183 181.842 130.343C181.587 129.616 181.24 129.324 180.386 129.548C174.898 130.986 169.318 132.018 163.745 133.054C162.135 133.353 161.856 133.932 162.177 135.427C162.764 138.155 161.383 140.342 158.711 141.069C155.427 141.962 152.289 141.143 150.054 138.851C148.313 137.066 147.081 137.322 145.337 138.315C143.811 139.184 142.205 139.913 140.643 140.72C138.414 141.871 136.557 143.455 135.13 145.527C132.736 149.005 130.367 152.5 127.93 155.947C127.383 156.721 127.54 157.135 128.191 157.687C131.144 160.19 134.028 162.772 136.778 165.499C136.947 165.666 137.182 165.766 137.354 165.877C138.031 165.616 138.329 165.065 138.705 164.606C140.329 162.623 141.93 160.62 143.561 158.642C143.885 158.25 144.236 157.514 144.853 158.037C145.463 158.555 144.767 159.021 144.474 159.431C144.067 160.002 143.623 160.557 143.133 161.059C142.023 162.196 141.782 163.409 142.108 165.025C142.72 168.067 143.028 171.173 143.428 174.257C144.001 178.663 143.665 183.093 143.699 187.513C143.708 188.645 144.067 189.088 145.225 189.222C150.044 189.779 154.849 189.665 159.665 189.208C165.599 188.645 171.319 187.183 176.944 185.265C177.96 184.918 178.418 184.394 178.278 183.283C178.02 181.244 177.858 179.193 177.634 177.149C176.944 170.866 176.244 164.585 175.53 158.028ZM153.435 190.858C152.53 190.858 151.625 190.876 150.721 190.854C149.945 190.834 149.569 191.118 149.423 191.947C148.535 196.986 147.629 202.023 146.634 207.042C146.372 208.362 146.842 208.611 147.998 208.597C151.415 208.555 154.833 208.613 158.25 208.571C161.559 208.53 161.504 209.336 162.197 205.394C162.705 202.502 164.554 201.006 166.725 199.599C167.055 199.385 167.456 199.096 167.798 199.515C168.142 199.936 167.804 200.274 167.488 200.526C166.78 201.089 166.084 201.679 165.32 202.155C163.929 203.019 163.636 204.172 164.188 205.648C164.363 206.116 164.48 206.61 164.575 207.102C164.775 208.147 165.322 208.604 166.445 208.593C170.918 208.551 175.391 208.566 179.864 208.602C181.002 208.612 181.409 208.218 181.18 207.066C179.929 200.77 178.652 194.478 177.522 188.16C177.244 186.608 176.706 186.584 175.438 187.021C168.409 189.443 161.14 190.567 153.435 190.858ZM200.983 119.735C195.12 123.24 190.072 128.159 183.106 130.01C184.126 133.335 185.145 136.654 186.232 140.197C189.026 138.571 191.676 137.157 194.194 135.537C199.941 131.839 204.641 126.909 209.476 122.161C211.225 120.443 212.863 118.784 215.477 118.534C216.196 118.466 216.903 118.061 217.574 117.727C219.598 116.718 221.637 115.753 223.782 115.018C224.336 114.829 224.95 114.64 225.504 113.722C224.042 114.113 222.943 114.425 221.835 114.694C221.292 114.826 220.565 115.339 220.244 114.556C219.862 113.624 220.859 113.58 221.375 113.315C222.582 112.697 223.836 112.173 225.039 111.548C225.525 111.296 226.236 111.242 226.352 110.467C225.731 110.206 225.259 110.588 224.77 110.776C223.364 111.317 221.974 111.898 220.576 112.458C220.133 112.635 219.652 112.758 219.423 112.191C219.227 111.705 219.642 111.473 219.993 111.274C221.522 110.406 223.066 109.565 224.584 108.678C225.159 108.342 225.86 108.109 226.144 107.372C225.487 106.894 225.034 107.366 224.578 107.581C223.035 108.31 221.525 109.113 219.972 109.82C219.357 110.1 218.54 110.94 218.022 110.006C217.544 109.143 218.706 108.983 219.181 108.562C220.408 107.473 221.908 106.686 223.182 105.262C222.049 105.151 221.527 105.692 220.95 106.042C219.189 107.108 217.537 108.366 215.648 109.202C214.711 109.617 214.33 110.142 214.656 111.16C215.01 112.27 214.779 113.35 214.285 114.371C214.113 114.728 213.864 115.15 213.374 114.935C212.846 114.703 213.093 114.262 213.246 113.9C213.74 112.727 213.765 111.515 213.256 110.384C212.788 109.341 212.885 108.38 213.095 107.315C213.273 106.411 213.853 105.426 212.88 104.207C212.025 107.394 209.78 109.705 209.236 112.764C208.968 114.277 208.245 115.263 206.909 116.016C204.943 117.125 203.075 118.407 200.983 119.735ZM163.582 124.533C163.848 123.362 164.108 122.222 163.923 120.972C163.451 117.806 162.333 114.866 161.142 111.926C160.592 110.567 159.963 109.84 158.469 110.599C158.07 110.802 157.661 110.858 157.471 110.347C157.291 109.866 157.652 109.632 158.005 109.401C158.45 109.111 159.148 109.303 159.442 108.589C159.108 107.697 158.674 106.826 157.725 106.124C155.081 108.48 151.711 108.738 148.472 109.354C145.613 109.898 144.709 111.617 146.157 114.105C146.941 115.452 147.409 116.831 147.334 118.394C147.296 119.189 147.499 120.11 146.67 120.578C145.867 121.03 145.437 120.145 144.866 119.815C144.157 119.406 143.459 119.202 142.779 119.79C142.07 120.403 141.833 121.165 142.166 122.091C142.727 123.647 144.151 124.56 145.869 124.184C146.96 123.945 147.21 124.304 147.479 125.277C148.339 128.388 148.754 131.569 149.171 134.752C149.31 135.812 149.447 136.835 150.31 137.614C152.54 139.627 155.125 140.471 158.099 139.99C159.877 139.702 160.979 138.344 161.074 136.526C161.135 135.338 160.718 134.255 160.465 133.131C160.279 132.301 159.82 132.03 158.989 131.965C156.615 131.779 154.549 130.76 152.664 129.358C152.24 129.043 151.74 128.704 151.988 127.917C153.166 127.761 154.149 128.517 155.254 128.711C158.874 129.346 162.314 127.756 163.582 124.533ZM100.591 149.94C100.78 151.3 102.008 151.7 102.946 151.896C107.342 152.818 109.86 155.598 111.215 159.681C111.277 159.87 111.383 160.045 111.473 160.224C113.781 164.808 116.162 169.339 119.963 172.93C122.631 175.45 124.965 175.607 127.877 173.407C130.508 171.419 132.523 168.837 134.67 166.382C135.011 165.992 135.125 165.618 134.706 165.202C132.469 162.981 130.1 160.913 127.714 158.911C126.939 159.351 126.71 160.076 126.214 160.556C125.062 161.67 124.861 162.778 126.016 164.04C126.429 164.491 126.841 165.075 126.332 165.71C125.815 165.814 125.569 165.566 125.379 165.259C122.37 160.415 117.787 156.995 114.088 152.775C113.756 152.396 113.43 152.068 112.823 152.123C109.485 152.422 106.528 151.147 103.589 149.822C102.396 149.283 101.75 148.388 101.543 147.063C101.418 146.263 101.562 145.301 100.711 144.519C100.204 146.403 100.709 148.083 100.591 149.94ZM95.8423 129.85C94.9568 130.739 94.066 131.624 93.1886 132.522C92.8344 132.884 92.5248 133.272 92.609 133.845C92.9113 135.9 93.644 137.775 94.759 139.508C96.4082 138.689 96.4544 138.704 97.5992 140.084C97.7516 140.268 97.9444 140.501 98.1523 140.543C100.345 140.985 100.66 143.395 102.261 144.47C102.536 144.655 102.496 145.311 102.597 145.751C102.683 146.128 102.599 146.577 103.215 146.885C107.577 145.49 111.479 143.17 114.699 139.702C115.478 138.863 115.599 138.029 115.303 136.953C113.977 132.133 111.363 128.209 107.4 125.155C106.538 124.491 105.741 124.408 104.751 124.774C101.566 125.95 98.6206 127.534 95.8423 129.85ZM96.3334 127.922C98.7635 125.985 101.596 124.76 104.586 123.489C103.53 122.824 102.805 122.179 101.633 122.647C98.5101 123.896 95.7779 125.714 93.2577 127.919C92.077 128.953 91.929 130.107 92.2987 131.666C93.5661 130.253 94.7378 129.012 96.3334 127.922ZM142.4 208.403C142.56 208.098 142.807 207.81 142.869 207.487C143.882 202.22 144.872 196.949 145.864 191.678C145.948 191.226 146.048 190.73 145.397 190.613C144.717 190.491 144.517 190.992 144.418 191.501C143.393 196.769 142.376 202.039 141.378 207.312C141.263 207.917 141.2 208.599 142.4 208.403ZM112.27 143.577C109.646 145.596 106.681 146.982 103.516 148.1C104.642 149.283 105.729 149.282 107.045 148.782C110.097 147.622 112.726 145.864 115.109 143.659C116.129 142.715 116.252 141.698 115.903 140.331C114.662 141.437 113.696 142.607 112.27 143.577ZM148.248 191.126C147.267 190.448 147.178 191.203 147.044 191.877C146.466 194.781 145.871 197.682 145.317 200.591C144.895 202.809 144.522 205.037 144.138 207.262C144.064 207.691 143.851 208.276 144.443 208.421C145.125 208.59 145.207 207.949 145.329 207.466C145.366 207.321 145.361 207.166 145.388 207.018C146.361 201.79 147.334 196.563 148.248 191.126ZM109.163 149.214C108.729 149.525 108.108 149.526 107.774 150.029C113.475 152.325 115.451 150.55 115.968 144.608C113.908 146.448 111.786 148.014 109.163 149.214ZM94.5416 121.215C92.5253 122.644 92.688 124.924 92.0427 127.258C93.5936 126.078 94.8106 125.041 96.1373 124.172C97.4822 123.292 98.9355 122.576 100.471 121.716C98.4934 120.875 96.6803 120.433 94.5416 121.215ZM128.399 190.715C128.036 190.927 127.462 190.81 127.281 191.573C128.752 192.562 130.125 193.771 131.322 195.572C131.946 193.446 132.36 191.646 132.571 189.69C131.059 189.779 129.868 190.359 128.399 190.715ZM98.3217 142.807C97.6981 146.718 97.9776 148.37 99.4385 149.235C99.3617 148.071 99.2741 146.929 99.2147 145.785C99.1652 144.833 99.1868 143.876 99.0937 142.929C99.0677 142.665 99.0158 141.81 98.3217 142.807ZM87.5693 196.309C87.7058 195.778 87.6246 195.336 86.9563 195.502C86.1571 195.7 85.2983 195.752 84.93 195.995C85.5788 196.852 86.2442 197.731 86.9384 198.648C87.3532 197.909 87.3758 197.201 87.5693 196.309ZM74.6549 182.043C75.3622 182.777 76.0695 183.51 76.9264 184.398C77.2941 183.149 77.7331 182.187 77.5638 181.016C76.4937 181.202 75.512 181.307 74.6549 182.043ZM96.9371 144.574C97.2075 143.14 96.889 141.819 96.2128 140.56C95.991 142.602 95.7771 144.63 96.235 146.602C96.4101 146.594 96.5852 146.586 96.7603 146.578C96.8075 145.993 96.8548 145.408 96.9371 144.574ZM93.6258 141.253C93.9008 141.98 94.1758 142.707 94.6031 143.836C94.6872 142.25 94.764 141.133 93.4418 140.255C93.5211 140.685 93.5561 140.874 93.6258 141.253Z" fill="black"/>
<path d="M207.407 198.818C202.398 200.106 197.551 198.454 194.864 194.628C191.935 190.457 191.84 185.32 194.617 181.214C198.067 176.112 204.965 174.692 210.206 178.007C215.465 181.332 217.148 188.344 213.943 193.613C212.428 196.105 210.355 197.914 207.407 198.818ZM206.394 191.774C205.485 190.686 204.24 191.199 203.15 191.167C201.249 191.112 199.948 193.131 200.671 194.853C200.846 195.268 201.153 195.674 201.18 196.098C201.294 197.891 202.452 198.018 203.878 198.055C205.354 198.095 206.169 197.756 206.672 196.147C207.147 194.628 208.032 193.324 206.394 191.774ZM195.84 186.715C195.236 187.577 193.675 187.668 193.999 189.303C194.487 191.768 194.462 191.617 196.842 192.308C198.594 192.817 199.614 192.456 200.533 190.926C201.24 189.747 200.681 188.785 200.365 187.774C199.688 185.602 197.684 185.076 195.84 186.715ZM208.37 186.841C208.118 187.441 207.84 188.031 207.62 188.643C206.651 191.337 208.049 193.01 210.887 192.575C211.184 192.53 211.506 192.449 211.784 192.517C212.804 192.766 213.378 192.422 213.652 191.393C213.871 190.575 214.549 189.634 214.048 188.957C213.261 187.89 212.209 186.948 211.096 186.219C210.3 185.698 209.369 186.359 208.37 186.841ZM204.982 183.036C205.9 183.886 206.749 184.918 208.003 185.194C209.757 185.582 210.669 184.551 211.212 181.841C211.456 180.626 209.666 178.521 208.463 178.606C206.329 178.757 204.811 180.557 204.982 183.036ZM198.015 179.497C197.158 180.278 196.889 183.409 197.754 184.093C198.523 184.7 199.638 185.42 200.485 185.04C201.639 184.523 203.045 183.911 203.35 182.404C203.49 181.712 203.856 180.939 203.278 180.234C202.057 178.744 199.786 178.355 198.015 179.497Z" fill="black"/>
<path d="M182.902 115.388C180.417 114.86 177.912 115.165 175.652 114.232C175.687 113.983 175.684 113.898 175.701 113.894C177.7 113.416 177.42 111.72 177.626 110.29C177.697 109.793 177.702 109.287 177.784 108.792C178.142 106.613 178.147 106.646 180.402 106.729C181.668 106.776 182.63 106.219 183.116 104.987C183.386 104.302 183.318 103.73 182.656 103.275C181.606 102.552 180.787 101.602 180.108 100.529C179.857 100.131 179.486 99.9093 179.069 99.6993C174.935 97.6159 172.933 93.986 173.336 89.354C173.358 89.1037 173.375 88.853 173.391 88.6022C173.523 86.5436 173.892 86.2351 175.889 86.4885C176.968 86.6254 178.09 86.9568 178.694 85.5433C178.856 85.1654 179.389 85.2477 179.801 85.2923C184.792 85.8322 189.783 86.3648 194.774 86.8961C195.189 86.9401 195.756 87.0363 195.789 87.4062C195.947 89.1656 197.358 88.7775 198.368 88.9387C200.385 89.2609 200.725 89.5855 200.408 91.5716C199.896 94.7782 198.842 97.7153 196.022 99.6817C195.693 99.911 195.36 100.208 194.989 100.291C192.481 100.849 190.471 102.347 188.35 103.659C187.666 104.082 187.077 104.395 187.122 105.326C187.164 106.21 187.496 106.881 188.282 107.293C188.59 107.455 188.918 107.601 189.254 107.683C191.647 108.264 191.649 108.258 191.423 110.795C191.374 111.345 191.319 111.895 191.27 112.445C191.157 113.725 190.361 115.252 192.654 115.558C192.047 116.582 191.312 116.29 190.674 116.225C188.127 115.965 185.583 115.677 182.902 115.388ZM194.685 89.6693C194.785 88.957 195.21 88.1056 193.965 87.9635C189.583 87.463 185.198 86.9767 180.818 86.4569C179.686 86.3224 179.285 86.7756 179.311 87.8821C179.361 90.0389 179.178 92.2116 179.374 94.3521C179.658 97.4733 180.621 100.365 183.361 102.287C184.586 103.146 184.552 104.233 184.17 105.49C184.014 106.003 183.466 106.358 183.592 107.042C184.47 107.12 185.332 107.36 186.235 107.193C185.689 103.958 185.682 103.947 188.505 102.288C189.836 101.505 190.86 100.442 191.69 99.1521C193.502 96.3354 194.251 93.188 194.685 89.6693ZM182.723 108.157C182.128 108.074 181.528 108.022 180.94 107.903C179.564 107.624 178.888 108.102 178.863 109.568C178.846 110.563 178.677 111.561 178.504 112.545C178.352 113.408 178.697 113.698 179.517 113.79C182.597 114.136 185.671 114.538 188.748 114.908C189.417 114.989 189.94 114.851 190.002 114.017C190.093 112.77 190.215 111.525 190.342 110.282C190.437 109.357 190.072 108.887 189.113 108.803C187.071 108.624 185.033 108.391 182.723 108.157ZM175.218 91.6751C175.167 91.3283 175.099 90.9831 175.068 90.6346C174.895 88.7125 175.295 88.325 177.213 88.5504C177.554 88.5905 177.921 88.732 178.103 88.149C177.412 87.3992 176.444 87.787 175.617 87.6413C174.864 87.5086 174.558 87.9069 174.505 88.6657C174.379 90.4863 174.462 92.2872 175.122 93.9936C175.807 95.7657 176.81 97.313 178.824 97.9481C176.719 96.4571 175.699 94.3584 175.218 91.6751ZM193.613 98.9495C193.43 99.1393 193.021 99.1691 193.177 99.672C193.555 99.5587 193.95 99.493 194.298 99.3276C197.525 97.7922 198.91 94.2276 199.291 91.0473C199.351 90.5512 199.065 90.2632 198.627 90.2002C197.781 90.0786 196.928 89.8325 196.041 90.0445C196.164 90.5689 196.51 90.5097 196.787 90.5621C198.575 90.8999 198.784 91.1946 198.307 92.9805C197.619 95.5609 196.326 97.6951 193.613 98.9495ZM195.641 95.9292C196.267 95.0132 196.701 94.0016 197.101 92.9749C197.306 92.4487 197.319 91.9751 196.608 91.8334C196.094 91.731 195.519 91.651 195.415 92.3406C195.17 93.9598 194.564 95.4868 194.156 97.0636C194.288 97.1701 194.421 97.2766 194.554 97.3832C194.873 96.9535 195.192 96.5238 195.641 95.9292ZM177.897 90.1498C177.517 89.6641 177.042 89.5314 176.357 89.7767C176.149 91.8585 176.652 93.7055 178.091 95.295C177.942 93.6445 178.046 92.0125 177.897 90.1498Z" fill="black"/>
<path d="M96.1365 196.556C93.2804 189.582 97.3967 182.943 104.156 181.916C109.703 181.072 114.744 184.729 115.849 190.378C116.882 195.664 113.306 201.026 107.879 202.328C103.297 203.428 98.7842 201.24 96.1365 196.556ZM101 189.484C101.706 191.07 102.707 192.446 104.059 193.528C104.552 193.922 105.172 194.753 105.833 193.983C106.44 193.279 106.572 192.421 105.637 191.63C103.584 189.894 102.592 187.568 102.222 184.947C102.175 184.612 102.255 184.223 101.78 183.981C100.508 184.321 99.7354 184.94 100.153 186.522C100.395 187.441 100.573 188.377 101 189.484ZM103.486 200.2C103.256 200.426 102.787 200.389 102.755 200.878C103.816 201.291 104.884 201.631 105.881 200.809C108.168 198.925 109.686 196.572 110.041 193.58C110.104 193.049 110.392 192.223 109.481 192.138C108.759 192.071 107.938 192.16 107.544 192.97C107.372 193.325 107.321 193.738 107.199 194.119C106.476 196.382 105.594 198.551 103.486 200.2ZM111.583 187.885C109.356 187.648 107.216 187.839 105.152 189.118C105.872 190.101 106.34 191.53 107.683 191.174C110.049 190.546 112.29 190.52 114.54 191.6C114.669 189.104 114.394 188.75 111.583 187.885ZM99.7591 189.464C99.4423 188.428 99.1255 187.392 98.7841 186.276C97.636 187.003 97.7342 188.044 97.9147 189.001C98.5626 192.436 100.397 195.074 103.408 196.884C103.968 197.22 104.459 197.518 104.885 196.71C105.228 196.061 105.147 195.636 104.474 195.234C102.288 193.931 100.791 192.029 99.7591 189.464ZM108.161 186.738C109.716 186.309 111.282 186.733 112.94 186.813C110.768 183.91 109.187 183.518 105.328 184.816C103.248 185.516 103.088 186.179 104.61 187.782C105.709 187.444 106.808 187.107 108.161 186.738ZM97.1251 190.769C97.0526 190.541 96.9801 190.312 96.8523 189.91C96.2924 190.938 96.1779 191.849 96.5432 192.75C97.6167 195.398 99.4428 197.414 101.875 198.892C102.592 199.328 103.145 199.225 103.619 198.338C100.449 196.673 98.321 194.237 97.1251 190.769ZM111.273 193.811C110.768 196.598 109.558 199.035 107.182 201.25C110.483 200.334 113.383 195.92 113.04 192.91C112.943 192.062 112.381 191.914 111.751 192.205C111.221 192.45 111.463 193.106 111.273 193.811ZM103.863 183.266C103.568 183.448 103.226 183.607 103.548 184.153C104.387 183.874 105.237 183.591 106.502 183.17C105.387 183.01 104.722 182.967 103.863 183.266ZM113.903 196.077C114.173 195.181 114.706 194.33 114.233 193.298C114.097 194.265 113.961 195.231 113.903 196.077Z" fill="black"/>
<path d="M200.573 170.261C194.798 171.33 189.461 168.723 187.144 163.794C184.853 158.919 186.052 152.952 190.198 149.535C193.714 146.638 197.757 145.867 202.073 147.45C206.283 148.995 208.643 152.092 209.573 156.499C210.701 161.851 207.527 168.595 200.573 170.261ZM200.49 164.497C200.589 162.646 200.522 160.735 201.499 159.081C202.363 157.618 201.569 157.052 200.337 156.43C197.728 159.942 195.162 163.401 192.589 166.855C192.185 167.397 192.377 167.726 192.874 168.084C196.599 170.763 199.815 169.473 200.379 165.056C200.392 164.957 200.416 164.859 200.49 164.497ZM198.639 154.899C198.114 154.452 197.659 154.356 197.085 154.924C195.881 156.113 194.358 156.775 192.78 157.328C191.453 157.792 190.111 158.25 188.986 159.13C188.276 159.685 187.371 160.341 187.585 161.291C188.064 163.428 189.203 165.22 191.12 166.69C193.837 163.039 196.44 159.542 199.04 156.043C199.359 155.614 199.133 155.296 198.639 154.899ZM188.071 154.511C187.51 155.841 187.207 157.212 187.292 158.975C189.889 156.21 193.896 156.408 196.395 153.734C195.275 152.839 194.205 152.37 193.079 152.15C189.453 151.443 189.814 151.198 188.071 154.511ZM201.592 165.485C201.386 166.58 201.18 167.675 200.95 168.897C202.882 168.262 204.415 167.285 205.7 165.912C205.97 165.624 206.329 165.314 206.178 164.876C205.47 162.817 204.612 160.84 202.957 159.048C201.706 161.137 201.69 163.181 201.592 165.485ZM207.084 153.137C206.542 152.305 206.024 151.449 205.119 150.902C203.893 151.99 202.929 153.207 201.937 154.402C201.552 154.866 201.22 155.299 201.821 155.803C202.351 156.247 202.675 157.176 203.66 156.632C205.002 155.889 206.439 155.572 207.992 155.808C208.093 154.782 207.548 154.086 207.084 153.137ZM199.33 153.896C199.753 154.169 200.184 154.539 200.647 153.985C201.735 152.684 202.808 151.371 203.874 150.079C202.64 148.634 200.196 147.817 198.571 148.285C198.956 149.751 199.156 151.234 198.614 152.714C198.409 153.273 198.752 153.552 199.33 153.896ZM208.211 161.302C208.51 160.383 208.511 159.431 208.516 158.481C208.52 157.701 208.301 157.091 207.364 157.055C206.197 157.011 205.045 157.022 204.226 158.039C204.148 158.137 204.221 158.448 204.324 158.586C205.477 160.119 206.323 161.842 207.21 163.649C207.816 162.9 207.952 162.208 208.211 161.302ZM196.51 148.043C194.554 148.272 192.854 149.056 191.088 150.385C192.867 150.861 194.373 151.177 195.782 151.819C197.335 152.527 198.009 152.02 197.735 150.308C197.606 149.506 197.6 148.579 196.51 148.043Z" fill="black"/>
<path d="M217.694 162.581C220.179 159.538 223.328 158.496 226.577 159.572C229.516 160.545 231.691 163.392 231.829 166.447C231.977 169.735 230.299 172.646 227.516 173.924C224.523 175.299 221.176 174.779 218.842 172.579C216.47 170.341 215.746 166.948 217.002 163.869C217.172 163.453 217.418 163.07 217.694 162.581ZM222.841 163.353C222.902 163.432 223.028 163.566 223.014 163.583C222.358 164.366 223.098 165.466 222.266 166.37C221.936 166.73 221.584 167.668 221.355 168.359C220.947 169.595 219.989 170.129 219.08 170.824C220.446 173.122 223.529 174.15 226.012 173.059C224.636 170.894 225.762 164.457 229.129 163.082C228.53 161.111 224.986 159.91 222.839 160.484C222.429 160.593 221.974 161.057 222.36 161.342C223.15 161.925 222.484 162.627 222.841 163.353ZM228.178 166.689C227.58 168.454 226.729 170.218 228.03 172.072C230.638 170.209 231.491 166.406 229.839 164.361C229.567 164.664 229.987 165.429 229.519 165.369C228.38 165.222 228.797 166.296 228.178 166.689ZM218.025 164.598C217.508 165.9 217.539 167.219 217.845 168.632C218.365 168.499 218.927 168.635 219.239 168.216C220.727 166.218 221.11 163.945 220.759 161.437C219.465 162.066 218.679 163.118 218.025 164.598Z" fill="black"/>
<path d="M104.732 167.794C104.011 171.187 103.312 174.454 102.534 178.088C100.322 176.442 99.9131 173.974 98.3832 172.329C97.5306 172.494 97.1405 173.196 96.6517 173.726C89.6324 181.328 82.6307 188.946 75.6248 196.561C75.4887 196.709 75.3659 196.872 75.2139 197.001C74.822 197.334 74.4478 198.075 73.8772 197.541C73.2842 196.986 74.0256 196.553 74.353 196.191C81.7387 188.037 89.1544 179.91 96.7382 171.938C98.2091 170.392 98.5637 170.451 99.7648 172.282C100.095 172.786 100.396 173.309 100.718 173.819C101.011 174.283 101.316 174.741 101.865 175.585C102.724 171.521 103.508 167.81 104.359 163.783C100.483 164.907 96.8608 165.957 93.0479 167.063C94.212 168.356 95.9718 168.36 96.8793 169.63C95.7857 170.209 91.9058 168.452 90.7464 166.917C90.8149 166.418 91.225 166.343 91.6112 166.231C95.7078 165.039 99.7998 163.831 103.902 162.659C105.547 162.189 105.786 162.44 105.456 164.126C105.224 165.307 104.988 166.487 104.732 167.794Z" fill="black"/>
<path d="M254.021 159.557C254.805 159.845 254.592 160.385 254.471 160.853C253.514 164.549 252.546 168.241 251.566 171.931C251.457 172.344 251.44 172.899 250.837 172.934C250.367 172.962 250.164 172.55 249.94 172.222C249.179 171.108 248.425 169.989 247.712 168.937C246.78 168.938 246.42 169.551 245.982 169.996C238.25 177.837 230.533 185.694 222.795 193.53C222.348 193.983 221.817 195.019 221.146 194.365C220.357 193.595 221.495 193.092 221.952 192.627C229.917 184.521 237.902 176.436 245.892 168.354C247.269 166.962 247.572 167.004 248.78 168.617C249.317 169.333 249.842 170.058 250.561 171.034C251.466 167.617 252.3 164.468 253.239 160.925C249.745 162.066 246.638 163.08 243.437 164.125C244.169 165.37 245.805 165.386 246.247 166.762C245.132 167.205 244.551 166.364 243.825 166.04C243.139 165.735 242.496 165.328 241.839 164.958C241.49 164.761 241.07 164.57 241.127 164.087C241.182 163.614 241.632 163.485 242.007 163.364C245.973 162.083 249.944 160.816 254.021 159.557Z" fill="black"/>
<path d="M256.532 119.639C255.653 123.315 254.802 126.877 253.948 130.438C253.845 130.866 253.884 131.434 253.358 131.57C252.756 131.726 252.486 131.175 252.198 130.785C251.49 129.825 250.813 128.841 249.978 127.661C248.867 128.846 247.87 129.88 246.906 130.945C240.506 138.02 234.112 145.103 227.717 152.182C227.683 152.22 227.652 152.262 227.611 152.29C227.121 152.626 226.751 153.662 226.084 153.06C225.421 152.461 226.311 151.913 226.705 151.478C233.278 144.217 239.871 136.973 246.458 129.724C247.302 128.795 248.136 127.856 248.979 126.926C249.63 126.207 250.262 126.23 250.862 126.993C251.445 127.735 252.025 128.478 252.891 129.584C253.721 126.18 254.466 123.126 255.278 119.797C251.833 120.637 248.837 122.008 245.584 122.992C246.354 124.127 248.129 123.934 248.541 125.751C246.501 125.25 244.975 124.349 243.532 123.353C243.042 123.015 243.487 122.537 243.969 122.369C247.807 121.025 251.642 119.673 255.493 118.368C256.556 118.007 256.694 118.686 256.532 119.639Z" fill="black"/>
<path d="M76.4229 168.522C77.3887 167.713 78.2789 166.979 79.1472 166.264C78.343 164.991 77.4126 164.547 76.6812 163.893C75.8886 163.183 75.6727 162.573 76.959 162.239C79.389 161.609 81.8215 160.988 84.2589 160.387C85.2797 160.135 85.5502 160.649 85.3187 161.556C84.723 163.891 84.1257 166.225 83.5077 168.554C83.3956 168.976 83.344 169.526 82.8248 169.646C82.2101 169.789 81.9784 169.23 81.6821 168.839C81.171 168.163 80.6651 167.484 80.1721 166.826C79.3634 167.027 79.0699 167.671 78.627 168.12C69.3723 177.491 60.1331 186.876 50.8761 196.245C50.4285 196.698 50.08 197.49 48.8125 196.981C51.5994 193.452 54.8937 190.584 57.8644 187.432C60.8632 184.251 63.9919 181.192 67.0574 178.073C70.1581 174.919 73.2511 171.756 76.4229 168.522ZM78.2036 163.388C79.6003 164.752 81.2643 165.835 82.3566 167.847C83.0944 165.61 83.5556 163.758 83.9514 161.704C81.8885 162.221 80.0188 162.514 78.2036 163.388Z" fill="black"/>
<path d="M111.327 108.4C113.217 109.743 115.034 111.002 116.809 112.318C117.413 112.765 117.87 113.043 118.665 112.599C119.951 111.882 121.13 112.352 122.018 113.411C122.847 114.399 122.877 115.566 122.218 116.643C121.551 117.733 120.495 118.167 119.229 117.863C117.832 117.528 117.089 116.563 117.04 115.163C117.012 114.357 116.889 113.745 116.164 113.241C112.657 110.806 109.175 108.334 105.703 105.85C104.995 105.343 104.355 105.064 103.505 105.559C102.921 105.899 102.12 105.967 101.62 105.587C100.445 104.695 99.573 105.374 98.6328 105.924C96.5951 107.116 94.5618 108.315 92.5209 109.501C91.9729 109.82 91.6403 110.14 91.6703 110.905C91.7235 112.264 90.9309 113.215 89.6377 113.543C88.3729 113.865 87.2059 113.546 86.5382 112.297C85.9525 111.201 85.8841 110.039 86.734 109.054C87.6574 107.983 88.8762 107.701 90.1297 108.405C90.9011 108.838 91.4664 108.764 92.1924 108.327C94.3863 107.007 96.6249 105.76 98.8491 104.49C99.4066 104.172 99.6981 103.799 99.7101 103.065C99.7395 101.269 100.855 100.172 102.477 100.143C104.097 100.114 105.318 101.212 105.354 102.968C105.374 103.969 105.801 104.535 106.552 105.047C108.128 106.124 109.678 107.239 111.327 108.4ZM101.657 104.339C102.723 104.959 103.512 104.579 103.951 103.555C104.299 102.744 104.064 101.979 103.256 101.493C102.542 101.063 101.877 101.26 101.37 101.821C100.653 102.617 100.734 103.444 101.657 104.339ZM90.1779 109.879C88.7821 108.924 87.4843 109.232 87.3066 110.568C87.2129 111.273 87.4338 111.842 88.0676 112.232C88.6467 112.588 89.2089 112.573 89.7549 112.197C90.549 111.649 90.5739 110.889 90.1779 109.879ZM119.701 116.751C120.591 116.834 121.134 116.379 121.408 115.586C121.631 114.94 121.36 114.397 120.895 113.963C120.402 113.502 119.801 113.484 119.206 113.72C118.646 113.943 118.332 114.378 118.317 114.997C118.297 115.842 118.641 116.447 119.701 116.751Z" fill="black"/>
<path d="M72.8653 120.999C73.295 122.979 73.7532 124.83 74.0897 126.703C74.32 127.985 75.0383 128.587 76.2627 128.82C78.1846 129.185 80.0927 129.624 82.0074 130.027C82.4931 130.129 83.0093 130.167 83.2586 130.712C83.2084 131.331 82.7284 131.341 82.288 131.438C80.2803 131.879 78.283 132.373 76.2669 132.771C74.9416 133.033 74.3171 133.804 74.0799 135.09C73.7254 137.012 73.2744 138.916 72.8666 140.828C72.7646 141.306 72.7957 141.854 72.1797 142.075C71.4835 141.927 71.4909 141.317 71.3756 140.797C70.9844 139.034 70.5133 137.283 70.2421 135.501C69.9781 133.766 69.1504 132.853 67.3728 132.597C65.5906 132.341 63.8437 131.842 62.0791 131.459C61.643 131.365 61.1601 131.379 60.9639 130.815C61.1101 130.133 61.7224 130.126 62.238 130.013C64.1 129.607 65.9587 129.178 67.8337 128.843C69.1275 128.611 69.8726 127.985 70.1209 126.648C70.4777 124.727 70.9596 122.828 71.3838 120.919C71.4911 120.436 71.5032 119.909 72.0462 119.637C72.8128 119.727 72.7499 120.354 72.8653 120.999ZM65.6872 131.121C66.4738 131.283 67.2556 131.475 68.048 131.601C69.9954 131.908 71.0516 133.005 71.2952 134.979C71.4227 136.013 71.6115 137.061 72.2057 138.337C72.5021 136.93 72.7835 135.863 72.9424 134.778C73.1898 133.088 74.0438 132.089 75.7602 131.702C76.9245 131.44 78.1738 131.369 79.45 130.696C77.9901 130.356 76.7793 130.023 75.5486 129.8C73.985 129.516 73.2341 128.553 72.9643 127.064C72.7441 125.849 72.4632 124.644 72.1164 122.993C71.7095 124.792 71.3547 126.129 71.1144 127.487C70.8684 128.877 70.0438 129.57 68.721 129.825C67.4685 130.067 66.2232 130.347 64.6021 130.689C65.1526 130.909 65.3247 130.978 65.6872 131.121Z" fill="black"/>
<path d="M241.226 106.761C239.19 105.822 237.063 105.676 235.029 105.158C234.469 105.016 233.802 105.044 233.56 104.319C233.856 103.622 234.544 103.67 235.092 103.54C236.604 103.182 238.122 102.82 239.658 102.594C241.067 102.386 241.741 101.674 241.971 100.276C242.262 98.498 242.729 96.7489 243.111 94.9852C243.197 94.59 243.22 94.1227 243.749 94.1139C244.256 94.1054 244.38 94.5593 244.465 94.9481C244.873 96.8083 245.325 98.6624 245.632 100.54C245.838 101.795 246.526 102.341 247.695 102.554C249.323 102.85 250.947 103.176 252.554 103.569C253.085 103.699 253.807 103.609 254.064 104.349C253.849 105.027 253.225 105.002 252.715 105.115C251.197 105.453 249.683 105.836 248.146 106.047C246.546 106.267 245.795 107.14 245.535 108.668C245.267 110.249 244.886 111.811 244.555 113.382C244.453 113.866 244.45 114.395 243.677 114.856C242.316 112.325 242.594 109.319 241.226 106.761ZM245.962 103.162C245.139 102.798 244.853 102.08 244.647 101.27C244.367 100.17 244.353 98.9914 243.73 97.7178C243.428 99.0539 243.169 100.122 242.947 101.198C242.673 102.521 241.92 103.306 240.565 103.551C239.427 103.757 238.304 104.049 237.174 104.303C237.922 104.66 238.644 104.874 239.38 104.953C241.556 105.185 242.843 106.231 243.119 108.515C243.214 109.305 243.172 110.247 243.891 111.005C244.134 109.847 244.385 108.827 244.556 107.793C244.809 106.257 245.685 105.41 247.207 105.144C248.293 104.954 249.366 104.689 250.752 104.392C248.996 103.956 247.589 103.607 245.962 103.162Z" fill="black"/>
<path d="M128.019 96.4246C127.608 98.1747 127.22 99.8064 126.848 101.37C125.966 101.39 125.873 100.925 125.773 100.482C125.563 99.5519 125.353 98.6213 125.165 97.6862C124.591 94.8302 124.557 94.8054 121.65 94.3156C120.451 94.1135 119.2 94.0335 118.094 93.2653C118.627 92.365 119.416 92.2997 120.129 92.281C123.568 92.1907 125.451 90.599 125.57 87.0327C125.592 86.3622 125.571 85.484 126.316 84.9917C126.95 84.9673 127.037 85.4226 127.126 85.8786C127.366 87.1098 127.639 88.3355 127.84 89.573C128.045 90.8344 128.736 91.4923 130.002 91.6919C131.29 91.8949 132.561 92.2093 133.834 92.5004C134.208 92.5859 134.691 92.6417 134.646 93.2027C134.61 93.6574 134.196 93.6977 133.862 93.772C132.539 94.0659 131.216 94.3593 129.887 94.6223C128.918 94.814 128.185 95.2266 128.019 96.4246ZM129.087 93.6644C129.623 93.5159 130.159 93.3673 130.694 93.2188C128.035 92.963 126.717 91.496 126.528 88.852C125.439 92.0217 125.439 92.0217 121.717 93.2169C124.731 93.3475 126.257 94.6657 126.365 97.4467C127.105 96.0192 126.873 94.128 129.087 93.6644Z" fill="black"/>
<path d="M228.468 132.873C229.802 131.654 231.059 130.509 232.237 129.437C231.649 128.131 230.385 127.998 229.988 126.931C230.518 126.144 231.444 126.21 232.214 125.973C233.315 125.634 234.434 125.351 235.548 125.052C236.163 124.887 236.802 124.971 236.718 125.73C236.492 127.796 236.062 129.828 235.446 131.806C234.171 131.644 234.068 130.399 233.165 130.096C232.584 130.196 232.296 130.713 231.922 131.092C227.728 135.341 223.546 139.602 219.361 143.861C219.256 143.968 219.165 144.095 219.046 144.183C218.608 144.505 218.22 145.352 217.602 144.701C217.108 144.18 217.755 143.708 218.126 143.33C220.306 141.11 222.498 138.904 224.687 136.693C225.922 135.444 227.157 134.196 228.468 132.873ZM232.358 127.198C232.613 128.463 234.028 128.575 234.624 129.784C235.104 128.534 235.377 127.541 235.349 126.33C234.32 126.625 233.422 126.882 232.358 127.198Z" fill="black"/>
<path d="M240.265 148.547C239.394 148.026 239.39 147.577 240.265 147.289C241.027 147.038 241.811 146.771 242.601 146.71C244.158 146.589 244.719 145.688 244.963 144.284C245.143 143.247 245.123 142.093 245.966 141.182C247.082 141.872 247.027 143.01 247.104 143.9C247.267 145.799 248.24 146.607 250.011 146.884C250.893 147.022 251.916 147.002 252.62 147.902C252.074 148.833 251.104 148.76 250.341 148.852C248.391 149.089 247.216 149.882 247.094 152.02C247.047 152.854 246.924 153.814 246.219 154.558C245.329 154.259 245.28 153.471 245.244 152.843C245.09 150.204 243.77 148.831 241.113 148.756C240.867 148.749 240.624 148.645 240.265 148.547ZM243.475 148.103C245.058 148.218 245.745 149.274 246.053 150.784C246.528 150.054 246.382 149.184 247.014 148.768C247.568 148.403 248.226 148.196 248.855 147.912C248.191 147.582 247.532 147.335 246.967 146.949C246.391 146.557 246.412 145.76 245.984 145.126C246.05 147.032 244.464 147.298 243.475 148.103Z" fill="black"/>
<path d="M62.0636 168.649C62.6131 168.067 63.0897 167.562 63.5377 167.087C63.2286 165.987 61.9748 165.828 61.6767 164.772C62.0869 163.941 63.0154 164.054 63.7191 163.809C64.807 163.431 65.9407 163.184 67.0559 162.885C68.0869 162.608 68.6492 162.829 68.3651 164.057C68.0256 165.524 67.7318 167.001 67.4125 168.473C67.308 168.955 67.2958 169.556 66.6712 169.648C66.0656 169.737 65.8584 169.158 65.5593 168.772C65.3182 168.461 65.0896 168.141 64.74 167.669C60.8656 171.48 57.4388 175.617 53.3874 179.376C52.7542 178.145 53.47 177.706 53.8947 177.253C56.5744 174.393 59.2882 171.565 62.0636 168.649ZM66.3529 167.325C66.7288 166.399 67.0412 165.461 66.9101 164.294C65.8218 164.387 64.8282 164.535 63.7549 165.17C64.6462 165.989 65.4333 166.713 66.3529 167.325Z" fill="black"/>
<path d="M212.664 139.696C211.29 141.171 209.995 142.575 208.684 143.962C208.319 144.348 207.873 144.981 207.329 144.456C206.762 143.909 207.442 143.473 207.795 143.095C210.297 140.421 212.813 137.759 215.313 135.105C215.1 134.161 214.226 134.047 213.674 133.586C212.683 132.758 212.717 132.2 213.924 131.811C215.738 131.225 217.592 130.762 219.422 130.224C220.406 129.934 220.811 130.359 220.629 131.271C220.227 133.288 219.779 135.297 219.274 137.29C219.004 138.355 218.406 138.253 217.803 137.505C217.367 136.964 216.95 136.407 216.472 135.788C215.041 136.99 213.909 138.324 212.664 139.696ZM219.228 132.438C219.258 132.043 219.366 131.511 218.709 131.684C217.488 132.004 216.194 132.14 215.014 132.891C216.134 133.931 217.167 134.889 218.249 135.892C218.858 134.807 218.861 133.684 219.228 132.438Z" fill="black"/>
<path d="M245.967 188.306C247.236 189.323 248.976 188.909 250.147 189.959C249.797 190.88 248.994 190.859 248.353 190.937C246.5 191.161 245.481 192.058 245.299 193.986C245.236 194.644 245.265 195.548 244.292 195.904C243.387 195.226 243.464 194.126 243.284 193.213C243.031 191.923 242.362 191.343 241.117 191.104C240.281 190.944 239.318 190.917 238.645 190.1C239.283 189.127 240.328 189.166 241.189 189.013C242.424 188.792 242.967 188.154 243.249 186.981C243.469 186.064 243.379 184.96 244.415 184.21C245.54 185.359 245.245 186.977 245.967 188.306ZM245.172 190.769C245.637 190.543 246.103 190.317 246.789 189.985C245.148 189.881 244.71 188.834 244.366 187.629C244.145 188.911 243.581 189.805 241.781 190.069C243.417 190.437 244.173 191.097 244.27 192.554C244.609 191.815 244.816 191.366 245.172 190.769Z" fill="black"/>
<path d="M129.16 138.251C128.221 137.681 128.317 136.733 128.172 135.938C127.932 134.628 127.331 133.919 125.948 133.76C125.166 133.67 124.226 133.647 123.684 132.761C124.225 131.852 125.161 131.87 125.938 131.763C127.366 131.566 127.972 130.814 128.205 129.435C128.34 128.639 128.079 127.234 129.213 127.237C130.157 127.239 130.021 128.584 130.141 129.361C130.376 130.888 131.202 131.626 132.685 131.844C133.38 131.946 134.213 131.906 134.611 132.719C134.33 133.567 133.589 133.526 132.983 133.588C131.238 133.765 130.293 134.629 130.086 136.418C130.013 137.048 130.046 137.867 129.16 138.251ZM130.561 132.488C129.808 132.181 129.504 131.496 129.134 130.753C129.049 131.871 128.171 132.293 127.197 132.931C128.505 133.126 128.927 133.874 129.187 134.86C129.185 133.674 130.32 133.387 130.561 132.488Z" fill="black"/>
<path d="M224.936 144.733C228.46 140.887 231.913 137.12 235.383 133.369C235.478 133.266 235.751 133.328 235.912 133.315C236.42 133.934 235.966 134.307 235.649 134.657C231.816 138.892 227.972 143.119 224.122 147.34C223.831 147.659 223.536 148.062 222.764 147.798C222.864 146.387 224.201 145.808 224.936 144.733Z" fill="black"/>
<path d="M214.247 81.8374C212.636 83.5025 211.104 85.0963 209.558 86.6754C209.257 86.9828 208.903 87.5079 208.437 87.1426C207.854 86.6859 208.367 86.2173 208.693 85.881C210.929 83.5711 213.184 81.2798 215.445 78.995C215.714 78.7228 216.068 78.3282 216.472 78.6882C216.968 79.1299 216.519 79.5108 216.224 79.8267C215.607 80.4875 214.958 81.118 214.247 81.8374Z" fill="black"/>
<path d="M84.2449 150.296C83.42 151.563 82.3329 151.927 81.0659 151.447C80.1041 151.083 79.5747 150.273 79.5912 149.215C79.6096 148.042 80.2066 147.239 81.3138 146.834C82.2701 146.485 83.1097 146.766 83.7912 147.437C84.5765 148.211 84.7738 149.151 84.2449 150.296ZM82.9445 150.07C83.4061 149.353 83.4921 148.642 82.7068 148.123C82.2205 147.802 81.6336 147.849 81.1818 148.263C80.6811 148.722 80.5785 149.281 80.985 149.869C81.4659 150.564 82.0671 150.692 82.9445 150.07Z" fill="black"/>
<path d="M79.2577 122.782C79.5549 122.506 79.7661 122.292 79.9998 122.106C80.2789 121.884 80.5996 121.661 80.9288 121.981C81.2714 122.315 81.0339 122.637 80.7892 122.89C80.0256 123.678 79.2532 124.459 78.4603 125.218C78.1769 125.489 77.8075 125.799 77.4341 125.367C77.0698 124.945 77.4419 124.623 77.7038 124.342C78.1796 123.831 78.6872 123.35 79.2577 122.782Z" fill="black"/>
<path d="M213.431 94.1365C212.411 93.8247 211.312 94.0626 210.613 93.1325C211.809 92.3634 214.884 92.9258 215.683 94.0615C214.987 94.6067 214.257 94.2481 213.431 94.1365Z" fill="black"/>
<path d="M66.5708 136.437C66.0901 137.788 65.016 138.565 64.1314 139.497C63.9201 139.72 63.6379 139.87 63.3259 139.706C63.076 139.574 62.9557 139.266 63.112 139.073C64.0084 137.97 64.7527 136.696 66.1649 136.135C66.2506 136.101 66.4138 136.262 66.5708 136.437Z" fill="black"/>
<path d="M78.6584 138.059C78.1899 137.45 77.4124 137.163 77.4852 136.231C78.7025 135.861 79.1317 136.936 79.7295 137.528C80.2354 138.029 81.475 138.623 80.7627 139.34C80.0125 140.096 79.562 138.724 78.9446 138.346C78.8619 138.295 78.8029 138.206 78.6584 138.059Z" fill="black"/>
<path d="M64.341 122.242C65.0878 123.369 66.542 123.878 66.7855 125.82C65.0792 124.869 64.1606 123.672 63.1579 122.586C63.0745 122.496 63.1126 122.157 63.2148 122.056C63.581 121.692 63.9369 121.915 64.341 122.242Z" fill="black"/>
<path d="M251.139 112.423C249.074 110.665 248.906 110.45 248.674 109.358C249.68 109.306 251.869 111.208 251.803 112.106C251.78 112.406 251.499 112.458 251.139 112.423Z" fill="black"/>
<path d="M250.589 96.7396C250.974 96.4147 251.302 96.0816 251.676 96.5212C251.958 96.853 251.756 97.2 251.51 97.4523C250.852 98.1265 250.179 98.7876 249.484 99.4228C249.266 99.622 248.945 99.7292 248.689 99.4372C248.447 99.1613 248.542 98.8563 248.752 98.6297C249.325 98.0115 249.927 97.4198 250.589 96.7396Z" fill="black"/>
<path d="M235.699 112.144C236.333 110.728 237.189 109.626 238.799 109.108C238.555 110.658 236.885 112.255 235.699 112.144Z" fill="black"/>
<path d="M120.021 98.713C120.944 97.9605 121.423 96.7809 122.704 96.605C122.771 97.5794 121.03 99.8144 120.279 99.7538C119.555 99.6954 119.707 99.2402 120.021 98.713Z" fill="black"/>
<path d="M237.883 97.7404C238.349 98.2986 239.042 98.6034 238.904 99.4011C237.704 99.51 236.119 98.0287 235.792 96.4432C236.876 96.203 237.184 97.2087 237.883 97.7404Z" fill="black"/>
<path d="M132.053 86.861C132.632 86.4654 133.352 86.3947 133.024 87.1482C132.505 88.3381 131.467 89.2131 129.977 89.979C130.078 88.2316 131.338 87.799 132.053 86.861Z" fill="black"/>
<path d="M119.871 87.2063C119.857 86.9713 119.839 86.7583 119.924 86.7027C120.589 86.2668 120.934 86.8595 121.298 87.212C121.931 87.8235 122.905 88.3107 122.869 89.281C122.843 89.964 122.218 89.7026 121.875 89.3624C121.202 88.6945 120.566 87.9905 119.871 87.2063Z" fill="black"/>
<path d="M130.064 97.0049C131.42 96.835 133.058 98.4704 132.954 99.9781C131.624 99.2836 130.685 98.3523 130.064 97.0049Z" fill="black"/>
<path d="M160.631 178.804C164.925 173.978 167.5 168.325 169.282 162.263C170.43 162.748 170.12 163.346 169.982 163.829C168.05 170.57 164.727 176.511 159.76 181.498C159.549 181.709 159.312 181.904 159.058 182.06C158.781 182.229 158.455 182.237 158.24 181.965C158.021 181.687 158.134 181.392 158.361 181.156C159.092 180.396 159.828 179.642 160.631 178.804Z" fill="black"/>
<path d="M156.34 124.46C155.956 124.197 155.645 124.016 155.398 123.772C154.906 123.285 154.229 122.821 154.422 122.021C154.649 121.083 155.549 121.4 156.192 121.264C157.664 120.952 159.139 120.673 160.57 120.175C161.99 119.681 162.395 120.056 162.231 121.573C161.91 124.551 159.496 125.777 156.34 124.46ZM156.715 123.313C159.048 124.537 160.776 123.795 160.914 121.394C159.266 121.785 157.652 122.168 155.897 122.585C156.195 122.859 156.375 123.025 156.715 123.313Z" fill="black"/>
<path d="M160.318 116.738C160.537 118.106 159.706 118.64 158.746 119.06C158.407 119.208 158.037 119.225 157.856 118.804C157.705 118.457 157.931 118.2 158.205 118.077C159.713 117.397 159.127 116.682 158.34 115.826C157.718 115.149 156.737 114.594 157.069 113.034C158.534 114.089 159.388 115.389 160.318 116.738Z" fill="black"/>
<path d="M151.752 111.606C152.374 111.44 153.047 111.056 153.3 111.756C153.588 112.55 152.751 112.538 152.281 112.702C151.531 112.965 151.031 113.505 150.562 114.1C150.315 114.414 150.053 114.813 149.595 114.453C149.165 114.116 149.444 113.721 149.636 113.38C150.095 112.564 150.79 112.01 151.752 111.606Z" fill="black"/>
<path d="M143.035 120.693C144.032 120.148 144.778 120.52 145.407 121.136C145.858 121.576 146.259 122.12 145.674 122.891C144.787 122.417 144.248 121.351 143.019 121.573C142.647 121.64 142.702 121.076 143.035 120.693Z" fill="black"/>
<path d="M153.653 114.968C153.939 115.591 153.905 116.07 153.341 116.337C152.893 116.549 152.573 116.277 152.355 115.9C152.144 115.536 152.026 115.128 152.334 114.779C152.769 114.285 153.21 114.415 153.653 114.968Z" fill="black"/>
<path d="M160.873 112.9C160.762 113.502 160.54 113.884 159.964 113.715C159.551 113.594 159.326 113.261 159.288 112.825C159.255 112.438 159.39 112.108 159.785 112.021C160.389 111.888 160.704 112.244 160.873 112.9Z" fill="black"/>
<path d="M104.967 135.873C104.561 135.118 104.105 134.982 103.449 135.433C103.108 135.669 102.645 136.119 102.27 135.601C101.832 134.995 102.481 134.748 102.844 134.442C103.069 134.251 103.301 134.07 103.513 133.898C103.431 133.235 103.097 132.831 102.565 132.524C101.884 132.574 101.382 133.585 100.547 132.99C100.32 131.984 101.398 131.976 101.72 131.362C101.864 130.591 100.52 130.191 101.239 129.056C102.352 129.802 103.422 131.185 104.869 129.725C105.379 130.704 104.739 130.928 104.331 131.232C103.853 131.587 103.889 131.961 104.176 132.4C104.437 132.798 104.705 133.15 105.268 132.915C105.775 132.704 106.389 131.962 106.806 132.743C107.201 133.483 106.171 133.586 105.821 134.011C105.728 134.124 105.642 134.241 105.587 134.312C105.856 136.58 107.58 134.86 108.585 135.349C108.333 136.371 106.246 137.097 108.175 138.259C108.829 138.317 109.316 137.336 110.096 137.907C110.316 138.864 109.289 138.941 108.98 139.512C108.708 140.311 110.236 141.043 109.322 141.634C108.419 142.218 108.378 140.74 107.644 140.412C107.028 140.301 106.563 141.25 105.672 140.847C105.241 139.778 108.314 139.082 105.956 137.718C105.358 137.591 104.817 138.765 103.938 138.211C103.418 137.032 105.671 137.19 104.967 135.873Z" fill="black"/>
<path d="M190.23 98.7726C189.267 99.1095 189.237 98.4484 189.496 98.0304C190.897 95.7693 191.536 93.2725 191.98 90.6972C192.006 90.5479 192.243 90.435 192.387 90.2998C193.388 91.6891 192.335 95.8495 190.23 98.7726Z" fill="black"/>
<path d="M184.261 109.05C185.533 109.216 186.671 109.361 187.808 109.516C188.052 109.549 188.377 109.537 188.519 109.686C189.55 110.769 188.532 111.951 188.613 113.094C188.663 113.785 188.033 113.967 187.431 113.908C185.294 113.701 183.156 113.496 181.025 113.239C180.204 113.14 179.801 112.622 179.962 111.754C180.007 111.508 180.031 111.259 180.056 111.01C180.283 108.772 180.323 108.735 182.483 108.894C183.031 108.934 183.579 108.986 184.261 109.05ZM183.505 110.096C183.257 110.066 183.01 110.034 182.763 110.005C181.918 109.906 181.269 110.073 181.184 111.095C181.098 112.132 181.817 112.167 182.541 112.249C183.779 112.387 185.015 112.547 186.25 112.706C186.849 112.784 187.476 112.981 187.606 112.054C187.723 111.212 187.613 110.545 186.59 110.438C185.648 110.339 184.707 110.246 183.505 110.096Z" fill="black"/>
<defs>
<linearGradient id="paint0_linear_332_3288" x1="154.5" y1="2.65299e-08" x2="154.827" y2="145.103" gradientUnits="userSpaceOnUse">
<stop stop-color="#3EA7FD"/>
<stop offset="1" stop-color="white"/>
</linearGradient>
</defs>
</svg>
