<svg width="49" height="40" viewBox="0 0 49 40" fill="none" xmlns="http://www.w3.org/2000/svg">
<path fill-rule="evenodd" clip-rule="evenodd" d="M31.5714 27.0699C28.5152 30.1263 23.9898 30.7867 20.2864 29.074C19.7397 28.8539 19.2915 28.676 18.8654 28.676C17.6785 28.683 16.2012 29.8339 15.4334 29.067C14.6656 28.2991 15.8173 26.8206 15.8173 25.6266C15.8173 25.2004 15.6464 24.7602 15.4263 24.2124C13.7128 20.5096 14.3741 15.9827 17.4303 12.9272C21.3316 9.02443 27.67 9.02443 31.5714 12.9262C35.4797 16.835 35.4727 23.1681 31.5714 27.0699Z" stroke="#565656" stroke-opacity="0.6" stroke-width="1.5" stroke-linecap="round" stroke-linejoin="round"/>
<path d="M28.4389 20.4131H28.4479" stroke="#565656" stroke-opacity="0.6" stroke-width="2" stroke-linecap="round" stroke-linejoin="round"/>
<path d="M24.431 20.4131H24.44" stroke="#565656" stroke-opacity="0.6" stroke-width="2" stroke-linecap="round" stroke-linejoin="round"/>
<path d="M20.4213 20.4131H20.4303" stroke="#565656" stroke-opacity="0.6" stroke-width="2" stroke-linecap="round" stroke-linejoin="round"/>
</svg>
