<svg width="79" height="87" viewBox="0 0 79 87" fill="none" xmlns="http://www.w3.org/2000/svg">
<path d="M0.414253 61.5865C1.12484 64.2781 2.58907 66.5821 4.74235 68.4124C5.77592 69.2952 7.77848 70.501 17.6405 76.1642C20.5474 77.8437 25.3062 80.5784 28.2131 82.2579C31.1416 83.959 34.07 85.5309 34.7591 85.7678C37.6876 86.8014 40.8744 86.8014 43.8244 85.7678C44.4919 85.5309 47.9587 83.636 51.5116 81.5689C55.0861 79.5233 61.1583 76.0134 65.0127 73.7956C73.1736 69.0799 73.3674 68.9722 74.9393 67.3142C76.3605 65.8069 77.1357 64.5365 77.9108 62.4262L78.4707 60.8759V43.3267V25.7774L77.9539 24.2701C76.5758 20.2435 74.7025 18.284 69.3193 15.1833C67.2521 13.9775 61.5674 10.7045 56.7226 7.90521C45.7839 1.57457 44.3627 0.820925 42.6186 0.368736C39.8839 -0.341846 36.0295 0.00267267 33.704 1.16544C33.2087 1.4023 26.7274 5.10595 19.2555 9.36944C6.07738 16.949 5.64673 17.2074 3.96717 18.8869C2.65367 20.1789 2.02922 21.0187 1.4263 22.246C-0.0163984 25.196 -0.0163982 24.9807 0.00513458 43.4343C0.00513458 59.0456 0.0266626 60.1007 0.414253 61.5865Z" fill="#3EA7FD"/>
<path d="M36.6055 51.7733V48.7156C36.6055 47.9351 37.2429 47.3023 38.0291 47.3023H40.9033C41.2809 47.3023 41.643 47.4512 41.91 47.7163C42.177 47.9813 42.327 48.3408 42.327 48.7156V51.7733C42.3246 52.0978 42.4528 52.4099 42.6831 52.6402C42.9134 52.8705 43.2268 53 43.5536 53H45.5145C46.4303 53.0023 47.3095 52.6428 47.9579 52.0008C48.6063 51.3588 48.9707 50.487 48.9707 49.5778V40.8669C48.9707 40.1325 48.6428 39.4358 48.0753 38.9647L41.4047 33.6759C40.2444 32.7486 38.5818 32.7785 37.4561 33.747L30.9377 38.9647C30.3434 39.422 29.9883 40.1206 29.9707 40.8669V49.5689C29.9707 51.4639 31.5181 53 33.4269 53H35.343C36.0219 53 36.5737 52.4562 36.5786 51.7822L36.6055 51.7733Z" fill="white"/>
</svg>
