<svg width="99" height="107" viewBox="0 0 99 107" fill="none" xmlns="http://www.w3.org/2000/svg">
<path d="M10.4133 71.5865C11.1239 74.2781 12.5881 76.5821 14.7414 78.4124C15.7749 79.2952 17.7775 80.501 27.6395 86.1642C30.5465 87.8437 35.3052 90.5784 38.2121 92.2579C41.1406 93.959 44.0691 95.5309 44.7581 95.7678C47.6866 96.8014 50.8734 96.8014 53.8234 95.7678C54.4909 95.5309 57.9577 93.636 61.5106 91.5689C65.0851 89.5233 71.1573 86.0134 75.0117 83.7956C83.1727 79.0799 83.3664 78.9722 84.9383 77.3142C86.3595 75.8069 87.1347 74.5365 87.9099 72.4262L88.4697 70.8759V53.3267V35.7774L87.9529 34.2701C86.5748 30.2435 84.7015 28.284 79.3183 25.1833C77.2511 23.9775 71.5665 20.7045 66.7216 17.9052C55.7829 11.5746 54.3618 10.8209 52.6176 10.3687C49.8829 9.65815 46.0286 10.0027 43.703 11.1654C43.2078 11.4023 36.7264 15.1059 29.2545 19.3694C16.0764 26.949 15.6458 27.2074 13.9662 28.8869C12.6527 30.1789 12.0282 31.0187 11.4253 32.246C9.98262 35.196 9.98262 34.9807 10.0042 53.4343C10.0042 69.0456 10.0257 70.1007 10.4133 71.5865Z" fill="#3EA7FD"/>
<path d="M46.6045 61.7733V58.7156C46.6045 57.9351 47.2419 57.3023 48.0282 57.3023H50.9023C51.2799 57.3023 51.642 57.4512 51.909 57.7163C52.176 57.9813 52.326 58.3408 52.326 58.7156V61.7733C52.3236 62.0978 52.4518 62.4099 52.6821 62.6402C52.9124 62.8705 53.2258 63 53.5527 63H55.5136C56.4294 63.0023 57.3085 62.6428 57.9569 62.0008C58.6053 61.3588 58.9697 60.487 58.9697 59.5778V50.8669C58.9697 50.1325 58.6418 49.4358 58.0743 48.9647L51.4038 43.6759C50.2434 42.7486 48.5808 42.7785 47.4551 43.747L40.9367 48.9647C40.3425 49.422 39.9873 50.1206 39.9697 50.8669V59.5689C39.9697 61.4639 41.5171 63 43.4259 63H45.342C46.021 63 46.5727 62.4562 46.5776 61.7822L46.6045 61.7733Z" fill="white"/>
</svg>
