<svg width="49" height="40" viewBox="0 0 49 40" fill="none" xmlns="http://www.w3.org/2000/svg">
<path d="M20.7499 29.75H28.2499M24.4999 29.75V23.75M30.4999 18.5C30.4999 16.1263 30.4962 12.1892 30.4943 11C30.4943 10.8011 30.4153 10.6103 30.2746 10.4697C30.134 10.329 29.9432 10.25 29.7443 10.25L19.2541 10.2622C19.0556 10.2622 18.8652 10.3409 18.7246 10.481C18.5841 10.6212 18.5048 10.8113 18.5041 11.0098C18.5041 12.4433 18.498 17.0647 18.498 18.5C18.498 21.5131 22.3887 23.75 24.498 23.75C26.6074 23.75 30.4999 21.5131 30.4999 18.5Z" stroke="#565656" stroke-opacity="0.6" stroke-width="1.5" stroke-linecap="round" stroke-linejoin="round"/>
<path d="M18.5 12.5H14.75V13.25C14.75 15.8384 16.3227 18.5 18.5 18.5M30.5 12.5H34.25V13.25C34.25 15.8384 32.6773 18.5 30.5 18.5" stroke="#565656" stroke-opacity="0.6" stroke-width="1.5" stroke-linecap="round" stroke-linejoin="round"/>
</svg>
