<svg width="24" height="24" viewBox="0 0 24 24" fill="none" xmlns="http://www.w3.org/2000/svg">
<path d="M4 0L7.63754 8.83378C5.45808 10.1878 4 12.5975 4 15.3483C4 19.5793 7.44227 23.0224 11.6741 23.0224C15.906 23.0224 19.3483 19.5793 19.3483 15.3483C19.3483 12.5984 17.8902 10.1887 15.7107 8.83378L19.3483 0H17.5048L14.1691 8.09877C13.6007 7.90161 13.0112 7.77197 12.4126 7.7125L15.5854 0H13.7419L10.5426 7.76793C10.0787 7.83629 9.62203 7.94704 9.17833 8.09877L5.8435 0H4ZM7.76203 0L9.92869 5.26445L10.8513 3.02446L9.60638 0H7.76203ZM11.6741 9.37949C14.9646 9.37949 17.6429 12.0569 17.6429 15.3483C17.6429 18.6396 14.9646 21.317 11.6741 21.317C8.38363 21.317 5.70536 18.6396 5.70536 15.3483C5.70536 12.0569 8.38363 9.37949 11.6741 9.37949ZM11.6741 12.0757L10.6782 14.3097L8.26341 14.574L10.0711 16.1975L9.56204 18.5936L11.6741 17.3759L13.7862 18.5953L13.278 16.1992L15.0849 14.5732L12.6701 14.3088L11.6741 12.0757Z" fill="#565656"/>
</svg>
