<svg width="24" height="24" viewBox="0 0 24 24" fill="none" xmlns="http://www.w3.org/2000/svg">
<g clip-path="url(#clip0_263_934)">
<path d="M4.68675 0.902932C3.9465 0.476932 3 1.00493 3 1.87568L3.0075 17.4757C3.0075 18.0127 3.2925 18.5069 3.756 18.7769L3.75975 18.7784L11.1698 23.0234L11.1742 23.0264C11.6918 23.3189 12.327 23.3234 12.8468 23.0227H12.8483L20.2477 18.7784L20.2515 18.7762C20.4795 18.6442 20.6687 18.4545 20.8001 18.2263C20.9314 17.998 21.0004 17.7391 21 17.4757V1.87493C21 1.00493 20.0535 0.476182 19.3132 0.902182L12 5.12693L4.6875 0.903682L4.68675 0.902932ZM4.5075 17.4749L4.5 2.52743L12 6.85943L12.0075 21.7469C11.9742 21.7453 11.9417 21.7364 11.9123 21.7207L11.9107 21.7199L4.50825 17.4794L4.5075 17.4749Z" fill="#565656"/>
</g>
<defs>
<clipPath id="clip0_263_934">
<rect width="24" height="24" fill="white"/>
</clipPath>
</defs>
</svg>
