<svg width="82" height="82" viewBox="0 0 82 82" fill="none" xmlns="http://www.w3.org/2000/svg">
<path d="M59.6667 54.334V59.6673H27.6667V54.334C27.6667 54.334 27.6667 43.6673 43.6667 43.6673C59.6667 43.6673 59.6667 54.334 59.6667 54.334ZM51.6667 30.334C51.6667 28.7517 51.1975 27.205 50.3184 25.8894C49.4394 24.5738 48.1899 23.5485 46.7281 22.943C45.2663 22.3375 43.6578 22.179 42.1059 22.4877C40.5541 22.7964 39.1286 23.5583 38.0098 24.6771C36.891 25.796 36.1291 27.2214 35.8204 28.7733C35.5117 30.3251 35.6701 31.9336 36.2756 33.3955C36.8811 34.8573 37.9065 36.1067 39.2221 36.9857C40.5377 37.8648 42.0844 38.334 43.6667 38.334C45.7884 38.334 47.8232 37.4911 49.3235 35.9908C50.8238 34.4906 51.6667 32.4557 51.6667 30.334ZM60.2 43.8273C61.6577 45.1721 62.8329 46.7938 63.657 48.5978C64.4811 50.4017 64.9377 52.3517 65 54.334V59.6673H73V54.334C73 54.334 73 45.134 60.2 43.8273ZM57 22.334C56.1943 22.334 55.3935 22.46 54.6267 22.7073C56.1868 24.9446 57.0233 27.6065 57.0233 30.334C57.0233 33.0615 56.1868 35.7234 54.6267 37.9607C55.3935 38.208 56.1943 38.3339 57 38.334C59.1217 38.334 61.1566 37.4911 62.6569 35.9908C64.1571 34.4906 65 32.4557 65 30.334C65 28.2123 64.1571 26.1774 62.6569 24.6771C61.1566 23.1768 59.1217 22.334 57 22.334ZM30.3333 35.6673H22.3333V27.6673H17V35.6673H9V41.0007H17V49.0007H22.3333V41.0007H30.3333V35.6673Z" fill="#3EA7FD"/>
</svg>
