<svg width="16" height="16" viewBox="0 0 16 16" fill="none" xmlns="http://www.w3.org/2000/svg">
<path fill-rule="evenodd" clip-rule="evenodd" d="M12.7139 12.7139C10.6765 14.7515 7.65952 15.1918 5.19062 14.05C4.82615 13.9033 4.52733 13.7847 4.24326 13.7847C3.452 13.7893 2.46712 14.5566 1.95525 14.0453C1.44338 13.5334 2.21118 12.5477 2.21118 11.7517C2.21118 11.4676 2.09728 11.1741 1.95056 10.8089C0.808228 8.3404 1.24908 5.32244 3.28651 3.28546C5.88741 0.683606 10.113 0.683606 12.7139 3.28479C15.3195 5.89065 15.3148 10.1127 12.7139 12.7139Z" stroke="#565656" stroke-linecap="round" stroke-linejoin="round"/>
<path d="M10.6262 8.27474H10.6322" stroke="#565656" stroke-linecap="round" stroke-linejoin="round"/>
<path d="M7.95338 8.27474H7.95938" stroke="#565656" stroke-linecap="round" stroke-linejoin="round"/>
<path d="M5.28053 8.27474H5.28653" stroke="#565656" stroke-linecap="round" stroke-linejoin="round"/>
</svg>
