<svg width="82" height="82" viewBox="0 0 82 82" fill="none" xmlns="http://www.w3.org/2000/svg">
<path d="M23.9102 51.2502H35.6259M23.9102 37.5835H51.2435M46.1185 6.8335H29.0352C28.3621 6.8335 27.6957 6.96606 27.0739 7.22361C26.4521 7.48117 25.8871 7.85867 25.4112 8.33457C24.9353 8.81047 24.5578 9.37545 24.3003 9.99724C24.0427 10.619 23.9102 11.2855 23.9102 11.9585C23.9102 12.6315 24.0427 13.298 24.3003 13.9197C24.5578 14.5415 24.9353 15.1065 25.4112 15.5824C25.8871 16.0583 26.4521 16.4358 27.0739 16.6934C27.6957 16.9509 28.3621 17.0835 29.0352 17.0835H46.1185C46.7915 17.0835 47.4579 16.9509 48.0797 16.6934C48.7015 16.4358 49.2665 16.0583 49.7424 15.5824C50.2183 15.1065 50.5958 14.5415 50.8534 13.9197C51.1109 13.298 51.2435 12.6315 51.2435 11.9585C51.2435 11.2855 51.1109 10.619 50.8534 9.99724C50.5958 9.37545 50.2183 8.81047 49.7424 8.33457C49.2665 7.85867 48.7015 7.48117 48.0797 7.22361C47.4579 6.96606 46.7915 6.8335 46.1185 6.8335Z" stroke="#3EA7FD" stroke-width="5.125" stroke-linecap="round" stroke-linejoin="round"/>
<path d="M64.9064 46.1252V32.4004C64.9064 22.7347 64.9064 17.9035 61.9032 14.9002C59.7165 12.7136 56.5492 12.1191 51.2432 11.9585M40.9863 75.1668H30.7363C21.074 75.1668 16.2394 75.1668 13.2396 72.1602C10.2363 69.1603 10.2363 64.3292 10.2363 54.6668V32.397C10.2363 22.7312 10.2363 17.9001 13.2396 14.8968C15.4297 12.7102 18.5969 12.1157 23.903 11.9551M47.8231 68.3335C47.8231 68.3335 51.2397 68.3335 54.6564 75.1668C54.6564 75.1668 62.0911 58.0835 71.7397 54.6668" stroke="#3EA7FD" stroke-width="5.125" stroke-linecap="round" stroke-linejoin="round"/>
</svg>
