<svg width="24" height="24" viewBox="0 0 24 24" fill="none" xmlns="http://www.w3.org/2000/svg">
<path d="M19.09 14.4422V18.8822C19.0898 19.5104 18.8401 20.1128 18.3959 20.557C17.9516 21.0013 17.3492 21.2509 16.721 21.2512H5.12002C4.80777 21.2511 4.49863 21.1892 4.21035 21.0693C3.92208 20.9493 3.66035 20.7735 3.44021 20.5521C3.22007 20.3307 3.04586 20.0679 2.92758 19.7789C2.80931 19.4899 2.74931 19.1804 2.75102 18.8682V7.2802C2.74916 6.96845 2.80919 6.65943 2.92764 6.37104C3.04608 6.08266 3.22059 5.82066 3.44103 5.60021C3.66148 5.37977 3.92348 5.20526 4.21186 5.08682C4.50025 4.96837 4.80927 4.90834 5.12102 4.9102H9.56002" stroke="#3EA7FD" stroke-width="1.5" stroke-linecap="round" stroke-linejoin="round"/>
<path d="M19.09 8.9957L15.005 4.9097M6.83496 15.8037V13.6387C6.83696 13.2817 6.97896 12.9387 7.22996 12.6857L16.762 3.1537C16.8884 3.02581 17.039 2.92427 17.205 2.85498C17.371 2.78568 17.5491 2.75 17.729 2.75C17.9088 2.75 18.0869 2.78568 18.2529 2.85498C18.4189 2.92427 18.5695 3.02581 18.696 3.1537L20.847 5.3047C20.9749 5.43118 21.0764 5.58177 21.1457 5.74776C21.215 5.91374 21.2507 6.09183 21.2507 6.2717C21.2507 6.45157 21.215 6.62965 21.1457 6.79564C21.0764 6.96163 20.9749 7.11222 20.847 7.2387L11.315 16.7707C11.0615 17.0224 10.7192 17.1643 10.362 17.1657H8.19696C8.01803 17.166 7.8408 17.1309 7.67544 17.0626C7.51007 16.9942 7.35982 16.8939 7.2333 16.7674C7.10677 16.6408 7.00646 16.4906 6.9381 16.3252C6.86975 16.1599 6.8347 15.9826 6.83496 15.8037Z" stroke="#3EA7FD" stroke-width="1.5" stroke-linecap="round" stroke-linejoin="round"/>
</svg>
