<svg width="48" height="48" viewBox="0 0 48 48" fill="none" xmlns="http://www.w3.org/2000/svg">
<path d="M21.675 17.25C21.375 15.975 20.175 15 18.75 15C17.325 15 16.2 15.975 15.825 17.25H13.5V18.75H15.825C16.125 20.025 17.325 21 18.75 21C20.175 21 21.3 20.025 21.675 18.75H34.5V17.25H21.675ZM18.75 19.5C17.925 19.5 17.25 18.825 17.25 18C17.25 17.175 17.925 16.5 18.75 16.5C19.575 16.5 20.25 17.175 20.25 18C20.25 18.825 19.575 19.5 18.75 19.5ZM29.25 21C27.825 21 26.7 21.975 26.325 23.25H13.5V24.75H26.325C26.625 26.025 27.825 27 29.25 27C30.675 27 31.8 26.025 32.175 24.75H34.5V23.25H32.175C31.875 21.975 30.675 21 29.25 21ZM29.25 25.5C28.425 25.5 27.75 24.825 27.75 24C27.75 23.175 28.425 22.5 29.25 22.5C30.075 22.5 30.75 23.175 30.75 24C30.75 24.825 30.075 25.5 29.25 25.5ZM22.5 27C21.075 27 19.95 27.975 19.575 29.25H13.5V30.75H19.575C19.875 32.025 21.075 33 22.5 33C23.925 33 25.05 32.025 25.425 30.75H34.5V29.25H25.425C25.125 27.975 23.925 27 22.5 27ZM22.5 31.5C21.675 31.5 21 30.825 21 30C21 29.175 21.675 28.5 22.5 28.5C23.325 28.5 24 29.175 24 30C24 30.825 23.325 31.5 22.5 31.5Z" fill="#565656"/>
</svg>
