<svg width="21" height="21" viewBox="0 0 21 21" fill="none" xmlns="http://www.w3.org/2000/svg">
<path fill-rule="evenodd" clip-rule="evenodd" d="M14 12.25C15.1603 12.25 16.2731 12.7109 17.0936 13.5314C17.9141 14.3519 18.375 15.4647 18.375 16.625V18.375C18.375 18.6071 18.2828 18.8296 18.1187 18.9937C17.9546 19.1578 17.7321 19.25 17.5 19.25C17.2679 19.25 17.0454 19.1578 16.8813 18.9937C16.7172 18.8296 16.625 18.6071 16.625 18.375V16.625C16.625 15.9288 16.3484 15.2611 15.8562 14.7688C15.3639 14.2766 14.6962 14 14 14H7C6.30381 14 5.63613 14.2766 5.14384 14.7688C4.65156 15.2611 4.375 15.9288 4.375 16.625V18.375C4.375 18.6071 4.28281 18.8296 4.11872 18.9937C3.95462 19.1578 3.73206 19.25 3.5 19.25C3.26794 19.25 3.04538 19.1578 2.88128 18.9937C2.71719 18.8296 2.625 18.6071 2.625 18.375V16.625C2.625 15.4647 3.08594 14.3519 3.90641 13.5314C4.72688 12.7109 5.83968 12.25 7 12.25H14ZM18.7372 7.94588C18.8943 7.78728 19.1061 7.69472 19.3292 7.68715C19.5523 7.67958 19.7699 7.75757 19.9374 7.90516C20.1049 8.05274 20.2096 8.25876 20.2302 8.48105C20.2507 8.70333 20.1856 8.92507 20.048 9.10087L19.9745 9.184L17.5 11.6585C17.3493 11.8092 17.1489 11.8997 16.9362 11.913C16.7236 11.9264 16.5134 11.8617 16.345 11.7311L16.2627 11.6585L15.0255 10.4212C14.8669 10.2642 14.7743 10.0524 14.7668 9.82927C14.7592 9.60617 14.8372 9.3886 14.9848 9.22112C15.1324 9.05363 15.3384 8.94889 15.5607 8.92832C15.783 8.90776 16.0047 8.97293 16.1805 9.1105L16.2627 9.18313L16.8814 9.80262L18.7372 7.94588ZM10.5 1.75C11.6603 1.75 12.7731 2.21094 13.5936 3.03141C14.4141 3.85188 14.875 4.96468 14.875 6.125C14.875 7.28532 14.4141 8.39812 13.5936 9.21859C12.7731 10.0391 11.6603 10.5 10.5 10.5C9.33968 10.5 8.22688 10.0391 7.40641 9.21859C6.58594 8.39812 6.125 7.28532 6.125 6.125C6.125 4.96468 6.58594 3.85188 7.40641 3.03141C8.22688 2.21094 9.33968 1.75 10.5 1.75ZM10.5 3.5C10.1553 3.5 9.81394 3.5679 9.49546 3.69982C9.17698 3.83173 8.8876 4.02509 8.64384 4.26884C8.40009 4.5126 8.20673 4.80198 8.07482 5.12046C7.9429 5.43894 7.875 5.78028 7.875 6.125C7.875 6.46972 7.9429 6.81106 8.07482 7.12954C8.20673 7.44802 8.40009 7.7374 8.64384 7.98116C8.8876 8.22491 9.17698 8.41827 9.49546 8.55018C9.81394 8.6821 10.1553 8.75 10.5 8.75C11.1962 8.75 11.8639 8.47344 12.3562 7.98116C12.8484 7.48887 13.125 6.82119 13.125 6.125C13.125 5.42881 12.8484 4.76113 12.3562 4.26884C11.8639 3.77656 11.1962 3.5 10.5 3.5Z" fill="#565656"/>
</svg>
