<svg width="24" height="24" viewBox="0 0 24 24" fill="none" xmlns="http://www.w3.org/2000/svg">
<g clip-path="url(#clip0_263_937)">
<path d="M23.0364 9.88914L13.271 9.88867C12.8398 9.88867 12.4902 10.2382 12.4902 10.6694V13.789C12.4902 14.2201 12.8398 14.5697 13.2709 14.5697H18.7703C18.1681 16.1325 17.0441 17.4412 15.6102 18.2728L17.9551 22.332C21.7166 20.1566 23.9404 16.3396 23.9404 12.0668C23.9404 11.4584 23.8956 11.0234 23.8059 10.5337C23.7377 10.1617 23.4147 9.88914 23.0364 9.88914Z" fill="#167EE6"/>
<path d="M11.969 19.2572C9.27777 19.2572 6.92834 17.7867 5.66651 15.6108L1.60742 17.9504C3.67307 21.5305 7.54268 23.9413 11.969 23.9413C14.1404 23.9413 16.1893 23.3567 17.9544 22.3378V22.3322L15.6095 18.273C14.5369 18.8951 13.2957 19.2572 11.969 19.2572Z" fill="#12B347"/>
<path d="M17.956 22.3375V22.332L15.6111 18.2727C14.5386 18.8948 13.2974 19.2569 11.9707 19.2569V23.941C14.1421 23.941 16.1911 23.3564 17.956 22.3375Z" fill="#0F993E"/>
<path d="M4.68418 11.9705C4.68418 10.6439 5.0462 9.40286 5.66816 8.33032L1.60907 5.99072C0.584599 7.75017 0 9.7935 0 11.9705C0 14.1474 0.584599 16.1908 1.60907 17.9502L5.66816 15.6106C5.0462 14.5381 4.68418 13.297 4.68418 11.9705Z" fill="#FFD500"/>
<path d="M11.969 4.68416C13.724 4.68416 15.336 5.30775 16.5951 6.34503C16.9058 6.60091 17.3572 6.58244 17.6418 6.2979L19.8521 4.08754C20.175 3.76471 20.152 3.23627 19.8071 2.9371C17.6975 1.10695 14.9527 0 11.969 0C7.54268 0 3.67306 2.41082 1.60742 5.99087L5.66651 8.33047C6.92834 6.15458 9.27777 4.68416 11.969 4.68416Z" fill="#FF4B26"/>
<path d="M16.5968 6.34504C16.9074 6.60091 17.359 6.58244 17.6434 6.2979L19.8538 4.08755C20.1766 3.76471 20.1536 3.23628 19.8088 2.9371C17.6992 1.10691 14.9543 0 11.9707 0V4.68416C13.7256 4.68416 15.3377 5.30775 16.5968 6.34504Z" fill="#D93F21"/>
</g>
<defs>
<clipPath id="clip0_263_937">
<rect width="24" height="24" fill="white"/>
</clipPath>
</defs>
</svg>
