<svg width="12" height="12" viewBox="0 0 12 12" fill="none" xmlns="http://www.w3.org/2000/svg">
<path fill-rule="evenodd" clip-rule="evenodd" d="M6.3 5.7515L8.2455 7.697L7.8215 8.1215L5.7 6V3H6.3V5.7515ZM6 11C3.2385 11 1 8.7615 1 6C1 3.2385 3.2385 1 6 1C8.7615 1 11 3.2385 11 6C11 8.7615 8.7615 11 6 11ZM6 10.4C7.16695 10.4 8.28611 9.93643 9.11127 9.11127C9.93643 8.28611 10.4 7.16695 10.4 6C10.4 4.83305 9.93643 3.71389 9.11127 2.88873C8.28611 2.06357 7.16695 1.6 6 1.6C4.83305 1.6 3.71389 2.06357 2.88873 2.88873C2.06357 3.71389 1.6 4.83305 1.6 6C1.6 7.16695 2.06357 8.28611 2.88873 9.11127C3.71389 9.93643 4.83305 10.4 6 10.4Z" fill="#565656"/>
</svg>
