<svg width="8" height="8" viewBox="0 0 8 8" fill="none" xmlns="http://www.w3.org/2000/svg">
<path d="M1.33203 5.99935C1.33203 5.64573 1.47251 5.30659 1.72256 5.05654C1.9726 4.80649 2.31174 4.66602 2.66536 4.66602H5.33203C5.68565 4.66602 6.02479 4.80649 6.27484 5.05654C6.52489 5.30659 6.66536 5.64573 6.66536 5.99935C6.66536 6.17616 6.59513 6.34573 6.4701 6.47075C6.34508 6.59578 6.17551 6.66602 5.9987 6.66602H1.9987C1.82189 6.66602 1.65232 6.59578 1.52729 6.47075C1.40227 6.34573 1.33203 6.17616 1.33203 5.99935Z" stroke="#565656" stroke-width="0.5" stroke-linejoin="round"/>
<path d="M3.99902 3.33301C4.55131 3.33301 4.99902 2.88529 4.99902 2.33301C4.99902 1.78072 4.55131 1.33301 3.99902 1.33301C3.44674 1.33301 2.99902 1.78072 2.99902 2.33301C2.99902 2.88529 3.44674 3.33301 3.99902 3.33301Z" stroke="#565656" stroke-width="0.5"/>
</svg>
