<svg width="12" height="12" viewBox="0 0 12 12" fill="none" xmlns="http://www.w3.org/2000/svg">
<path fill-rule="evenodd" clip-rule="evenodd" d="M6.1235 10.4845C6.69856 9.96269 7.23077 9.39554 7.715 8.7885C8.735 7.507 9.3555 6.2435 9.3975 5.12C9.41412 4.6634 9.33854 4.20813 9.17527 3.78139C9.012 3.35465 8.7644 2.9652 8.44725 2.63629C8.1301 2.30739 7.74991 2.04578 7.32939 1.8671C6.90887 1.68842 6.45666 1.59633 5.99975 1.59633C5.54285 1.59633 5.09063 1.68842 4.67011 1.8671C4.24959 2.04578 3.8694 2.30739 3.55225 2.63629C3.2351 2.9652 2.9875 3.35465 2.82423 3.78139C2.66096 4.20813 2.58538 4.6634 2.602 5.12C2.6445 6.2435 3.2655 7.507 4.285 8.7885C4.76923 9.39554 5.30144 9.96269 5.8765 10.4845C5.93183 10.5345 5.973 10.5708 6 10.5935L6.1235 10.4845ZM5.631 11.067C5.631 11.067 2 8.009 2 5C2 3.93913 2.42143 2.92172 3.17157 2.17157C3.92172 1.42143 4.93913 1 6 1C7.06087 1 8.07828 1.42143 8.82843 2.17157C9.57857 2.92172 10 3.93913 10 5C10 8.009 6.369 11.067 6.369 11.067C6.167 11.253 5.8345 11.251 5.631 11.067ZM6 6.4C6.3713 6.4 6.7274 6.2525 6.98995 5.98995C7.2525 5.7274 7.4 5.3713 7.4 5C7.4 4.6287 7.2525 4.2726 6.98995 4.01005C6.7274 3.7475 6.3713 3.6 6 3.6C5.6287 3.6 5.2726 3.7475 5.01005 4.01005C4.7475 4.2726 4.6 4.6287 4.6 5C4.6 5.3713 4.7475 5.7274 5.01005 5.98995C5.2726 6.2525 5.6287 6.4 6 6.4ZM6 7C5.46957 7 4.96086 6.78929 4.58579 6.41421C4.21071 6.03914 4 5.53043 4 5C4 4.46957 4.21071 3.96086 4.58579 3.58579C4.96086 3.21071 5.46957 3 6 3C6.53043 3 7.03914 3.21071 7.41421 3.58579C7.78929 3.96086 8 4.46957 8 5C8 5.53043 7.78929 6.03914 7.41421 6.41421C7.03914 6.78929 6.53043 7 6 7Z" fill="#565656"/>
</svg>
