<svg width="24" height="24" viewBox="0 0 24 24" fill="none" xmlns="http://www.w3.org/2000/svg">
<path d="M8.14244 4.28613C7.63591 4.28613 7.13434 4.3859 6.66637 4.57974C6.1984 4.77358 5.7732 5.05769 5.41503 5.41586C5.05686 5.77403 4.77274 6.19924 4.5789 6.66721C4.38506 7.13518 4.2853 7.63675 4.2853 8.14328C4.2853 8.6498 4.38506 9.15137 4.5789 9.61934C4.77274 10.0873 5.05686 10.5125 5.41503 10.8707C5.7732 11.2289 6.1984 11.513 6.66637 11.7068C7.13434 11.9007 7.63591 12.0004 8.14244 12.0004C9.16542 12.0004 10.1465 11.594 10.8699 10.8707C11.5932 10.1473 11.9996 9.16625 11.9996 8.14328C11.9996 7.1203 11.5932 6.13922 10.8699 5.41586C10.1465 4.69251 9.16542 4.28613 8.14244 4.28613ZM5.57101 8.14328C5.57101 7.80559 5.63752 7.47121 5.76675 7.15923C5.89598 6.84725 6.08538 6.56378 6.32416 6.325C6.56294 6.08622 6.84642 5.89681 7.1584 5.76759C7.47038 5.63836 7.80475 5.57185 8.14244 5.57185C8.48012 5.57185 8.8145 5.63836 9.12648 5.76759C9.43846 5.89681 9.72193 6.08622 9.96071 6.325C10.1995 6.56378 10.3889 6.84725 10.5181 7.15923C10.6474 7.47121 10.7139 7.80559 10.7139 8.14328C10.7139 8.82526 10.443 9.47931 9.96071 9.96155C9.47848 10.4438 8.82442 10.7147 8.14244 10.7147C7.46045 10.7147 6.8064 10.4438 6.32416 9.96155C5.84193 9.47931 5.57101 8.82526 5.57101 8.14328ZM17.1424 6.00042C16.3468 6.00042 15.5837 6.31649 15.0211 6.8791C14.4585 7.44171 14.1424 8.20477 14.1424 9.00042C14.1424 9.79607 14.4585 10.5591 15.0211 11.1217C15.5837 11.6843 16.3468 12.0004 17.1424 12.0004C17.9381 12.0004 18.7012 11.6843 19.2638 11.1217C19.8264 10.5591 20.1424 9.79607 20.1424 9.00042C20.1424 8.20477 19.8264 7.44171 19.2638 6.8791C18.7012 6.31649 17.9381 6.00042 17.1424 6.00042ZM15.4282 9.00042C15.4282 8.54576 15.6088 8.10973 15.9303 7.78824C16.2517 7.46675 16.6878 7.28613 17.1424 7.28613C17.5971 7.28613 18.0331 7.46675 18.3546 7.78824C18.6761 8.10973 18.8567 8.54576 18.8567 9.00042C18.8567 9.45508 18.6761 9.89111 18.3546 10.2126C18.0331 10.5341 17.5971 10.7147 17.1424 10.7147C16.6878 10.7147 16.2517 10.5341 15.9303 10.2126C15.6088 9.89111 15.4282 9.45508 15.4282 9.00042ZM1.71387 15.6433C1.71387 15.1318 1.91706 14.6412 2.27873 14.2796C2.64041 13.9179 3.13095 13.7147 3.64244 13.7147H12.6424C13.1539 13.7147 13.6445 13.9179 14.0061 14.2796C14.3678 14.6412 14.571 15.1318 14.571 15.6433V16.0984C14.5704 16.1678 14.5655 16.2371 14.5564 16.3058C14.5371 16.4827 14.5056 16.6579 14.4622 16.8304C14.3202 17.3932 14.0675 17.922 13.719 18.3861C12.8499 19.5458 11.1922 20.5718 8.14244 20.5718C5.09272 20.5718 3.43501 19.5458 2.56587 18.3861C2.21764 17.922 1.9653 17.3931 1.82358 16.8304C1.76749 16.6064 1.73163 16.3777 1.71644 16.1473L1.71387 16.0984V15.6433ZM2.99958 16.0676V16.083L3.0073 16.1687C3.01587 16.2493 3.03301 16.3701 3.07072 16.5184C3.17066 16.9149 3.34839 17.2875 3.59358 17.6147C4.1713 18.3836 5.40644 19.2861 8.14244 19.2861C10.8784 19.2861 12.1136 18.3836 12.6904 17.6147C12.9904 17.2153 13.1396 16.8158 13.2133 16.5184C13.2494 16.3756 13.2732 16.2299 13.2844 16.083L13.2853 16.0676V15.6433C13.2853 15.4728 13.2176 15.3093 13.097 15.1887C12.9764 15.0681 12.8129 15.0004 12.6424 15.0004H3.64244C3.47194 15.0004 3.30843 15.0681 3.18787 15.1887C3.06731 15.3093 2.99958 15.4728 2.99958 15.6433V16.0676ZM14.6567 18.5318C15.3193 18.735 16.137 18.8576 17.1407 18.8576C19.515 18.8576 20.8419 18.1753 21.5627 17.3524C21.8505 17.0265 22.064 16.6419 22.1884 16.2253C22.2371 16.0569 22.2684 15.884 22.2819 15.7093L22.2836 15.669V15.6433C22.2836 15.1318 22.0804 14.6412 21.7187 14.2796C21.357 13.9179 20.8665 13.7147 20.355 13.7147H14.6516C14.9893 14.067 15.2362 14.5084 15.3527 15.0004H20.3559C20.5249 15.0004 20.6871 15.067 20.8074 15.1857C20.9277 15.3044 20.9965 15.4657 20.9987 15.6347L20.9944 15.6741C20.9859 15.7388 20.9724 15.8027 20.9542 15.8653C20.8818 16.1022 20.759 16.3207 20.5942 16.5056C20.1904 16.9684 19.2682 17.5718 17.1407 17.5718C16.3342 17.5718 15.7007 17.4853 15.2027 17.3516C15.0714 17.7665 14.8879 18.1631 14.6567 18.5318Z" fill="white"/>
</svg>
