<svg width="82" height="82" viewBox="0 0 82 82" fill="none" xmlns="http://www.w3.org/2000/svg">
<path d="M53.9857 52.9593C57.1299 51.2117 56.7225 44.4775 53.0786 37.9072C51.5155 35.0782 49.5936 32.7873 47.6717 31.1858C45.3735 32.8911 42.5898 33.8161 39.728 33.8251C36.8618 33.8188 34.0731 32.8937 31.7714 31.1858C29.8495 32.7873 27.9328 35.0808 26.3645 37.9072C22.7181 44.4749 22.3158 51.2117 25.4677 52.9593C26.8719 53.7588 28.353 53.1592 29.8803 51.6883C29.5942 53.273 29.451 54.8802 29.4523 56.4904C29.4523 64.0191 32.3736 70.1025 35.9688 70.1025C38.1367 70.1025 39.2104 67.8859 39.7254 64.4957C40.2379 67.8628 41.3142 70.1025 43.4667 70.1025C47.0465 70.1025 49.9908 64.0165 49.9908 56.4904C49.9908 54.7992 49.8319 53.1848 49.5603 51.6909C51.0978 53.1643 52.5738 53.7742 53.9832 52.9645L53.9857 52.9593ZM39.7228 31.2626C41.1767 31.2843 42.6204 31.0167 43.9699 30.4752C45.3193 29.9337 46.5476 29.1293 47.5832 28.1086C48.6189 27.088 49.4411 25.8716 50.0022 24.5302C50.5633 23.1887 50.852 21.7491 50.8515 20.2951C50.851 18.841 50.5613 17.4016 49.9993 16.0606C49.4372 14.7196 48.6141 13.5037 47.5777 12.4838C46.5414 11.4639 45.3126 10.6603 43.9627 10.1198C42.6129 9.57925 41.169 9.31259 39.7152 9.33532C36.8365 9.38033 34.0909 10.5557 32.0715 12.6078C30.052 14.6598 28.9206 17.4237 28.9216 20.3028C28.9227 23.1818 30.056 25.945 32.0769 27.9956C34.0978 30.0462 36.8441 31.2196 39.7228 31.2626ZM61.745 38.2173C64.0866 38.1488 66.3094 37.1705 67.9415 35.49C69.5736 33.8095 70.4865 31.5591 70.4865 29.2165C70.4865 26.8739 69.5736 24.6235 67.9415 22.943C66.3094 21.2624 64.0866 20.2841 61.745 20.2157C59.3571 20.216 57.0672 21.1649 55.379 22.8536C53.6908 24.5423 52.7426 26.8325 52.7429 29.2203C52.7432 31.6082 53.6921 33.8981 55.3808 35.5863C57.0695 37.2745 59.3597 38.2227 61.7475 38.2224L61.745 38.2173ZM72.7125 43.6754C71.4261 41.3486 69.8527 39.4678 68.2742 38.1532C66.3861 39.5522 64.1001 40.3109 61.7501 40.3185C59.8128 40.3185 58.0088 39.7881 56.4303 38.9091C57.7013 41.7099 58.488 44.5466 58.6341 47.0835C58.875 50.9683 57.6603 53.8485 55.2311 55.1938C54.7108 55.4807 54.1446 55.6749 53.5578 55.7678C53.4117 56.7723 53.3118 57.8178 53.3118 58.9197C53.3118 65.103 55.7077 70.0973 58.6623 70.0973C60.4407 70.0973 61.3273 68.278 61.7475 65.4951C62.1652 68.2626 63.0493 70.0973 64.8225 70.0973C67.7566 70.0973 70.1782 65.1005 70.1782 58.9248C70.1782 57.5334 70.0424 56.2086 69.8194 54.9786C71.0802 56.1906 72.2948 56.6903 73.453 56.0241C76.0335 54.5891 75.7003 49.0592 72.7099 43.6728L72.7125 43.6754ZM17.7007 38.2173C19.4804 38.2162 21.2199 37.6876 22.6992 36.6981C24.1785 35.7086 25.3312 34.3027 26.0115 32.6582C26.6919 31.0136 26.8694 29.2043 26.5216 27.4589C26.1737 25.7135 25.3162 24.1104 24.0574 22.8523C22.7986 21.5943 21.195 20.7376 19.4494 20.3908C17.7038 20.044 15.8946 20.2225 14.2505 20.9038C12.6063 21.5851 11.2011 22.7386 10.2124 24.2184C9.22378 25.6983 8.6961 27.438 8.6961 29.2178C8.69678 31.6057 9.64569 33.8957 11.3342 35.5842C13.0228 37.2728 15.3128 38.2217 17.7007 38.2224V38.2173ZM24.1967 55.1861C20.1172 52.9183 19.743 46.1559 23.0282 38.904C21.4045 39.8261 19.5705 40.3141 17.7033 40.3211C15.2535 40.3211 13.0088 39.5011 11.1689 38.1532C9.59297 39.4652 8.02216 41.3461 6.73066 43.6703C3.74022 49.0618 3.41222 54.5916 5.99522 56.0215C7.14835 56.6826 8.36553 56.1881 9.6186 54.9811C9.39061 56.2825 9.27487 57.6011 9.27266 58.9223C9.27266 65.103 11.6686 70.0948 14.6232 70.0948C16.4015 70.0948 17.2882 68.2754 17.7084 65.4951C18.1312 68.2626 19.0153 70.0973 20.7834 70.0973C23.7226 70.0973 26.139 65.1005 26.139 58.9248C26.139 57.8153 26.0365 56.7672 25.8905 55.7627C25.2971 55.6702 24.7247 55.4742 24.1992 55.1836L24.1967 55.1861Z" fill="#3EA7FD"/>
</svg>
