<svg width="82" height="82" viewBox="0 0 82 82" fill="none" xmlns="http://www.w3.org/2000/svg">
<path d="M41.0007 39.2916C38.7353 39.2916 36.5627 38.3917 34.9608 36.7898C33.3589 35.1879 32.459 33.0153 32.459 30.7499C32.459 28.4845 33.3589 26.3119 34.9608 24.71C36.5627 23.1082 38.7353 22.2083 41.0007 22.2083C43.266 22.2083 45.4386 23.1082 47.0405 24.71C48.6424 26.3119 49.5423 28.4845 49.5423 30.7499C49.5423 31.8716 49.3214 32.9824 48.8921 34.0187C48.4629 35.055 47.8337 35.9966 47.0405 36.7898C46.2474 37.583 45.3057 38.2121 44.2694 38.6414C43.2331 39.0706 42.1224 39.2916 41.0007 39.2916ZM41.0007 6.83325C34.6576 6.83325 28.5743 9.35304 24.089 13.8383C19.6038 18.3235 17.084 24.4068 17.084 30.7499C17.084 48.6874 41.0007 75.1666 41.0007 75.1666C41.0007 75.1666 64.9173 48.6874 64.9173 30.7499C64.9173 24.4068 62.3975 18.3235 57.9123 13.8383C53.427 9.35304 47.3437 6.83325 41.0007 6.83325Z" fill="#3EA7FD"/>
</svg>
