<svg width="20" height="20" viewBox="0 0 20 20" fill="none" xmlns="http://www.w3.org/2000/svg">
<path fill-rule="evenodd" clip-rule="evenodd" d="M10.2055 17.4735C11.1639 16.6038 12.051 15.6586 12.858 14.6468C14.558 12.511 15.5922 10.4052 15.6622 8.53268C15.6899 7.77168 15.5639 7.0129 15.2918 6.30167C15.0197 5.59044 14.607 4.94135 14.0784 4.39317C13.5498 3.845 12.9162 3.40899 12.2153 3.11118C11.5145 2.81338 10.7608 2.65989 9.99926 2.65989C9.23775 2.65989 8.48405 2.81338 7.78319 3.11118C7.08233 3.40899 6.44868 3.845 5.9201 4.39317C5.39151 4.94135 4.97884 5.59044 4.70672 6.30167C4.43461 7.0129 4.30864 7.77168 4.33634 8.53268C4.40717 10.4052 5.44217 12.511 7.14134 14.6468C7.94839 15.6586 8.83541 16.6038 9.79384 17.4735C9.88606 17.5568 9.95467 17.6174 9.99967 17.6552L10.2055 17.4735ZM9.38467 18.4444C9.38467 18.4444 3.33301 13.3477 3.33301 8.33268C3.33301 6.56457 4.03539 4.86888 5.28563 3.61864C6.53587 2.36839 8.23156 1.66602 9.99967 1.66602C11.7678 1.66602 13.4635 2.36839 14.7137 3.61864C15.964 4.86888 16.6663 6.56457 16.6663 8.33268C16.6663 13.3477 10.6147 18.4444 10.6147 18.4444C10.278 18.7544 9.72384 18.751 9.38467 18.4444ZM9.99967 10.666C10.6185 10.666 11.212 10.4202 11.6496 9.9826C12.0872 9.54501 12.333 8.95152 12.333 8.33268C12.333 7.71384 12.0872 7.12035 11.6496 6.68277C11.212 6.24518 10.6185 5.99935 9.99967 5.99935C9.38084 5.99935 8.78734 6.24518 8.34976 6.68277C7.91217 7.12035 7.66634 7.71384 7.66634 8.33268C7.66634 8.95152 7.91217 9.54501 8.34976 9.9826C8.78734 10.4202 9.38084 10.666 9.99967 10.666ZM9.99967 11.666C9.11562 11.666 8.26777 11.3148 7.64265 10.6897C7.01753 10.0646 6.66634 9.21674 6.66634 8.33268C6.66634 7.44863 7.01753 6.60078 7.64265 5.97566C8.26777 5.35054 9.11562 4.99935 9.99967 4.99935C10.8837 4.99935 11.7316 5.35054 12.3567 5.97566C12.9818 6.60078 13.333 7.44863 13.333 8.33268C13.333 9.21674 12.9818 10.0646 12.3567 10.6897C11.7316 11.3148 10.8837 11.666 9.99967 11.666Z" fill="#565656"/>
</svg>
