<svg width="82" height="82" viewBox="0 0 82 82" fill="none" xmlns="http://www.w3.org/2000/svg">
<path d="M23.9102 51.2497H35.6259M23.9102 37.583H51.2435M46.1185 6.83301H29.0352C28.3621 6.83301 27.6957 6.96557 27.0739 7.22313C26.4521 7.48068 25.8871 7.85819 25.4112 8.33409C24.9353 8.80999 24.5578 9.37496 24.3003 9.99676C24.0427 10.6185 23.9102 11.285 23.9102 11.958C23.9102 12.631 24.0427 13.2975 24.3003 13.9193C24.5578 14.5411 24.9353 15.106 25.4112 15.5819C25.8871 16.0578 26.4521 16.4353 27.0739 16.6929C27.6957 16.9504 28.3621 17.083 29.0352 17.083H46.1185C46.7915 17.083 47.4579 16.9504 48.0797 16.6929C48.7015 16.4353 49.2665 16.0578 49.7424 15.5819C50.2183 15.106 50.5958 14.5411 50.8534 13.9193C51.1109 13.2975 51.2435 12.631 51.2435 11.958C51.2435 11.285 51.1109 10.6185 50.8534 9.99676C50.5958 9.37496 50.2183 8.80999 49.7424 8.33409C49.2665 7.85819 48.7015 7.48068 48.0797 7.22313C47.4579 6.96557 46.7915 6.83301 46.1185 6.83301Z" stroke="#3EA7FD" stroke-width="5.125" stroke-linecap="round" stroke-linejoin="round"/>
<path d="M64.9064 46.1242V32.3994C64.9064 22.7337 64.9064 17.9025 61.9032 14.8993C59.7165 12.7126 56.5492 12.1181 51.2432 11.9575M40.9863 75.1658H30.7363C21.074 75.1658 16.2394 75.1658 13.2396 72.1592C10.2363 69.1593 10.2363 64.3282 10.2363 54.6658V32.396C10.2363 22.7303 10.2363 17.8991 13.2396 14.8959C15.4297 12.7092 18.5969 12.1147 23.903 11.9541M47.8231 68.3325C47.8231 68.3325 51.2397 68.3325 54.6564 75.1658C54.6564 75.1658 62.0911 58.0825 71.7397 54.6658" stroke="#3EA7FD" stroke-width="5.125" stroke-linecap="round" stroke-linejoin="round"/>
</svg>
