<svg width="24" height="24" viewBox="0 0 24 24" fill="none" xmlns="http://www.w3.org/2000/svg">
<path d="M19.4846 20.154L13.2226 13.892C12.7226 14.318 12.1476 14.6477 11.4976 14.881C10.8476 15.1144 10.1943 15.231 9.53762 15.231C7.93895 15.231 6.58428 14.6757 5.47362 13.565C4.36295 12.4537 3.80762 11.0987 3.80762 9.50004C3.80762 7.90138 4.36295 6.54671 5.47362 5.43604C6.58428 4.32538 7.93895 3.76971 9.53762 3.76904C11.1363 3.76838 12.4913 4.32404 13.6026 5.43604C14.714 6.54804 15.2693 7.90271 15.2686 9.50004C15.2686 10.1947 15.1456 10.867 14.8996 11.517C14.6536 12.167 14.3303 12.723 13.9296 13.185L20.1916 19.446L19.4846 20.154ZM9.53862 14.23C10.8653 14.23 11.9853 13.7734 12.8986 12.86C13.8119 11.9467 14.2686 10.8264 14.2686 9.49904C14.2686 8.17171 13.8119 7.05171 12.8986 6.13904C11.9853 5.22638 10.8653 4.76971 9.53862 4.76904C8.21195 4.76838 7.09162 5.22504 6.17762 6.13904C5.26362 7.05304 4.80695 8.17304 4.80762 9.49904C4.80828 10.825 5.26495 11.945 6.17762 12.859C7.09028 13.773 8.21028 14.2297 9.53762 14.229" fill="#565656"/>
</svg>
