<svg width="24" height="24" viewBox="0 0 24 24" fill="none" xmlns="http://www.w3.org/2000/svg">
<path d="M3.3398 17C6.0998 21.783 12.2158 23.42 16.9998 20.66C18.8752 19.5807 20.3482 17.92 21.1958 15.929C21.8067 14.5013 22.0763 12.9508 21.9833 11.4007C21.8902 9.85056 21.4371 8.34346 20.6598 6.99905C19.8841 5.65401 18.8055 4.5083 17.5097 3.65287C16.2139 2.79744 14.7365 2.25583 13.1948 2.07105C11.0469 1.80958 8.87224 2.25468 6.9998 3.33905C2.2168 6.10105 0.577799 12.217 3.3398 17Z" stroke="#565656"/>
<path d="M16.9498 20.573C16.9498 20.573 16.0098 13.982 13.9998 10.5C11.9898 7.018 7.0498 3.427 7.0498 3.427" stroke="#565656" stroke-linecap="round"/>
<path d="M21.8641 12.58C16.4531 11.393 9.05906 16.348 7.57706 20.818M16.4141 3.20898C14.9261 7.62898 7.67406 12.512 2.28906 11.452" stroke="#565656" stroke-linecap="round"/>
</svg>
