<svg width="24" height="24" viewBox="0 0 24 24" fill="none" xmlns="http://www.w3.org/2000/svg">
<path d="M17.6883 2.93756C18.1491 2.56293 18.7325 2.3725 19.3257 2.40309C19.9188 2.43368 20.4796 2.68311 20.8995 3.10316L21.0639 3.28676C21.7803 4.16516 21.7803 5.43476 21.0639 6.31436L20.8995 6.49676L17.3271 10.0692C16.9899 10.4064 16.7991 10.8648 16.7991 11.3412V12.15L16.7871 12.3864C16.7327 12.9383 16.4889 13.4543 16.0971 13.8468L9.04345 20.9004C8.82058 21.1233 8.55596 21.3002 8.26472 21.4209C7.97347 21.5415 7.66131 21.6036 7.34606 21.6036C7.0308 21.6036 6.71864 21.5415 6.42739 21.4209C6.13615 21.3002 5.87153 21.1233 5.64865 20.9004L3.10465 18.3564C2.88169 18.1335 2.70482 17.8689 2.58415 17.5776C2.46348 17.2864 2.40137 16.9742 2.40137 16.659C2.40137 16.3437 2.46348 16.0315 2.58415 15.7403C2.70482 15.4491 2.88169 15.1844 3.10465 14.9616L10.1607 7.90316L10.3371 7.74356C10.766 7.39264 11.3032 7.20099 11.8575 7.20116H12.6615C13.1391 7.20116 13.5975 7.01156 13.9335 6.67316L17.5047 3.10316L17.6883 2.93756ZM14.2767 7.92476C13.7967 8.23076 13.2387 8.40116 12.6615 8.40116H11.8575C11.5801 8.40094 11.3113 8.49677 11.0967 8.67236L11.0091 8.75156L3.95305 15.81C3.72809 16.035 3.60171 16.3402 3.60171 16.6584C3.60171 16.9766 3.72809 17.2817 3.95305 17.5068L6.49706 20.052C6.96505 20.52 7.72585 20.52 8.19506 20.052L15.2487 12.9984C15.4443 12.8016 15.5667 12.5424 15.5943 12.2688L15.5991 12.15V11.3412C15.5991 10.764 15.7671 10.2024 16.0755 9.72356L14.2767 7.92476ZM20.0499 3.95276C19.8401 3.74289 19.5601 3.61816 19.2638 3.60265C18.9675 3.58714 18.676 3.68194 18.4455 3.86876L18.3531 3.95276L15.1767 7.12796L16.8735 8.82476L20.0499 5.64836L20.1327 5.55716C20.3067 5.34318 20.4017 5.07578 20.4017 4.79996C20.4017 4.52414 20.3067 4.25674 20.1327 4.04276L20.0499 3.95276Z" fill="#565656"/>
</svg>
