<svg width="24" height="24" viewBox="0 0 24 24" fill="none" xmlns="http://www.w3.org/2000/svg">
<path d="M12 22.5C9.21523 22.5 6.54451 21.3938 4.57538 19.4246C2.60625 17.4555 1.5 14.7848 1.5 12C1.5 9.21523 2.60625 6.54451 4.57538 4.57538C6.54451 2.60625 9.21523 1.5 12 1.5C14.7848 1.5 17.4555 2.60625 19.4246 4.57538C21.3938 6.54451 22.5 9.21523 22.5 12C22.5 14.7848 21.3938 17.4555 19.4246 19.4246C17.4555 21.3938 14.7848 22.5 12 22.5ZM12 21C13.1819 21 14.3522 20.7672 15.4442 20.3149C16.5361 19.8626 17.5282 19.1997 18.364 18.364C19.1997 17.5282 19.8626 16.5361 20.3149 15.4442C20.7672 14.3522 21 13.1819 21 12C21 10.8181 20.7672 9.64778 20.3149 8.55585C19.8626 7.46392 19.1997 6.47177 18.364 5.63604C17.5282 4.80031 16.5361 4.13738 15.4442 3.68508C14.3522 3.23279 13.1819 3 12 3C9.61305 3 7.32387 3.94821 5.63604 5.63604C3.94821 7.32387 3 9.61305 3 12C3 14.3869 3.94821 16.6761 5.63604 18.364C7.32387 20.0518 9.61305 21 12 21Z" fill="#565656"/>
<path d="M4.37793 6.28833C4.75293 5.90239 5.12012 5.54302 5.47949 5.21021C5.88755 5.92492 6.41012 6.56783 7.02637 7.11333L6.26465 8.4352C5.52596 7.82407 4.88911 7.0994 4.37793 6.28833ZM19.699 6.16411C19.1756 7.02609 18.5118 7.7945 17.735 8.43755L16.9732 7.11567C17.6192 6.54189 18.1622 5.86176 18.5787 5.10474C18.9443 5.43286 19.3178 5.78599 19.699 6.16411ZM10.9217 10.4344L11.1818 8.95786C11.7256 9.01677 12.2741 9.01677 12.8178 8.95786L13.0779 10.4344C12.3617 10.5199 11.6379 10.5199 10.9217 10.4344ZM9.45215 10.1344C8.77026 9.93249 8.11486 9.65003 7.4998 9.29302L8.2498 7.99458C8.7135 8.26267 9.20459 8.48032 9.71465 8.6438L9.45215 10.1344ZM16.4998 9.29536C15.8839 9.65173 15.2277 9.93341 14.5451 10.1344L14.285 8.64849C14.795 8.48501 15.2861 8.26736 15.7498 7.99927L16.4998 9.29771V9.29536ZM4.2959 17.8454C4.82008 16.9805 5.48555 16.2097 6.26465 15.5649L7.02637 16.8844C6.39282 17.4478 5.85809 18.1132 5.44434 18.8532C5.06934 18.5407 4.68652 18.2047 4.2959 17.8454ZM19.7061 17.8477C19.3309 18.193 18.948 18.5298 18.5576 18.8579C18.1447 18.1153 17.609 17.4481 16.9732 16.8844L17.735 15.5649C18.5154 16.2099 19.1817 16.9816 19.7061 17.8477ZM10.9217 13.5657C11.6379 13.4802 12.3617 13.4802 13.0779 13.5657L12.8201 15.0422C12.2764 14.9833 11.7279 14.9833 11.1842 15.0422L10.9217 13.5657ZM9.45215 13.8657L9.71465 15.354C9.20459 15.5174 8.7135 15.7351 8.2498 16.0032L7.4998 14.7047C8.11497 14.3485 8.77037 14.0669 9.45215 13.8657ZM16.4998 14.7047L15.7498 16.0032C15.2863 15.7348 14.7952 15.5171 14.285 15.354L14.5475 13.8657C15.2287 14.0664 15.8833 14.3481 16.4975 14.7047H16.4998Z" fill="#565656"/>
</svg>
