<svg width="24" height="24" viewBox="0 0 24 24" fill="none" xmlns="http://www.w3.org/2000/svg">
<path d="M21.0053 2.99212C18.5397 0.52812 13.7205 1.75052 10.9573 4.67212C9.13854 6.57932 8.07027 9.07952 7.94929 11.7121C8.009 13.2158 7.69569 14.7109 7.03729 16.0641C6.8506 16.0095 6.65269 16.0059 6.46415 16.0537C6.27561 16.1016 6.10334 16.1991 5.96529 16.3361L1.98129 20.3361C1.77376 20.5443 1.65723 20.8262 1.65723 21.1201C1.65723 21.414 1.77376 21.696 1.98129 21.9041L2.09329 22.0161C2.30362 22.2195 2.58473 22.3331 2.87729 22.3331C3.16984 22.3331 3.45095 22.2195 3.66129 22.0161L7.66129 18.0321C7.79832 17.8972 7.89716 17.7285 7.94775 17.543C7.99834 17.3575 7.99887 17.1619 7.94929 16.9761C9.54131 16.3598 11.2341 16.0451 12.9413 16.0481C15.351 15.818 17.6067 14.7608 19.3253 13.0561C22.5733 9.80812 23.3269 5.31212 21.0053 2.99212ZM17.4853 2.92812C18.4544 2.89504 19.3974 3.24579 20.1093 3.90412C20.5653 4.43216 20.8783 5.06831 21.0184 5.7518C21.1584 6.43529 21.1209 7.14328 20.9093 7.80812L16.1893 3.07212C16.6153 2.98012 17.0495 2.93187 17.4853 2.92812ZM10.1733 13.8241C9.70621 13.267 9.39025 12.599 9.25576 11.8845C9.12126 11.1701 9.17275 10.433 9.40529 9.74412L14.2693 14.6081C13.5734 14.8126 12.8388 14.8482 12.1264 14.7118C11.414 14.5754 10.7445 14.2711 10.1733 13.8241ZM14.7813 14.4481L9.56529 9.21612C9.75987 8.61211 10.0229 8.03234 10.3493 7.48812L16.5093 13.6481C15.9639 13.9765 15.3845 14.2447 14.7813 14.4481ZM16.9253 13.3921L10.6213 7.07212C10.9608 6.54928 11.3579 6.06625 11.8053 5.63212L18.3653 12.1921C17.9278 12.6405 17.4452 13.0426 16.9253 13.3921ZM18.7013 11.8561L12.1413 5.29612C12.5553 4.90766 13.0053 4.55942 13.4853 4.25612L19.7573 10.5281C19.4473 11.0026 19.0938 11.4472 18.7013 11.8561ZM20.0133 10.1121L13.9173 4.00012C14.4592 3.66258 15.0464 3.40398 15.6613 3.23212L20.7813 8.35212C20.5891 8.9646 20.3316 9.55466 20.0133 10.1121Z" fill="#565656"/>
</svg>
